adventprofmm_bld_krn.ufo
<glyph name="exclam" format="1">
  <advance width="142"/>
  <unicode hex="0021"/>
  <outline>
    <contour>
      <point x="18" y="582" type="curve" smooth="yes"/>
      <point x="35" y="109" type="line"/>
      <point x="104" y="109" type="line"/>
      <point x="124" y="583" type="line" smooth="yes"/>
      <point x="124" y="624"/>
      <point x="105" y="644"/>
      <point x="69" y="644" type="curve" smooth="yes"/>
      <point x="35" y="644"/>
      <point x="18" y="624"/>
    </contour>
    <contour>
      <point x="71" y="95" type="curve" smooth="yes"/>
      <point x="42" y="95"/>
      <point x="17" y="71"/>
      <point x="17" y="41" type="curve" smooth="yes"/>
      <point x="17" y="11"/>
      <point x="42" y="-14"/>
      <point x="71" y="-14" type="curve" smooth="yes"/>
      <point x="101" y="-14"/>
      <point x="125" y="11"/>
      <point x="125" y="41" type="curve" smooth="yes"/>
      <point x="125" y="71"/>
      <point x="101" y="95"/>
    </contour>
  </outline>
</glyph>
<glyph name="quotedbl" format="1">
  <advance width="238"/>
  <unicode hex="0022"/>
  <outline>
    <contour>
      <point x="140" y="631" type="curve"/>
      <point x="152" y="534" type="line"/>
      <point x="209" y="534" type="line"/>
      <point x="221" y="631" type="line"/>
      <point x="221" y="683"/>
      <point x="139" y="683"/>
    </contour>
    <contour>
      <point x="16" y="631" type="curve"/>
      <point x="29" y="534" type="line"/>
      <point x="85" y="534" type="line"/>
      <point x="98" y="631" type="line"/>
      <point x="98" y="683"/>
      <point x="16" y="683"/>
    </contour>
  </outline>
</glyph>
<glyph name="numbersign" format="1">
  <advance width="534"/>
  <unicode hex="0023"/>
  <outline>
    <contour>
      <point x="516" y="324" type="line"/>
      <point x="516" y="426" type="line"/>
      <point x="448" y="426" type="line"/>
      <point x="497" y="635" type="line"/>
      <point x="393" y="635" type="line"/>
      <point x="344" y="426" type="line"/>
      <point x="236" y="426" type="line"/>
      <point x="285" y="635" type="line"/>
      <point x="190" y="635" type="line"/>
      <point x="142" y="426" type="line"/>
      <point x="17" y="426" type="line"/>
      <point x="17" y="324" type="line"/>
      <point x="117" y="324" type="line"/>
      <point x="98" y="245" type="line"/>
      <point x="17" y="245" type="line"/>
      <point x="17" y="151" type="line"/>
      <point x="76" y="151" type="line"/>
      <point x="40" y="0" type="line"/>
      <point x="136" y="0" type="line"/>
      <point x="171" y="151" type="line"/>
      <point x="278" y="151" type="line"/>
      <point x="244" y="0" type="line"/>
      <point x="346" y="0" type="line"/>
      <point x="382" y="151" type="line"/>
      <point x="516" y="151" type="line"/>
      <point x="516" y="245" type="line"/>
      <point x="404" y="245" type="line"/>
      <point x="422" y="324" type="line"/>
    </contour>
    <contour>
      <point x="212" y="324" type="line"/>
      <point x="320" y="324" type="line"/>
      <point x="301" y="245" type="line"/>
      <point x="193" y="245" type="line"/>
    </contour>
  </outline>
</glyph>
<glyph name="dollar" format="1">
  <advance width="475"/>
  <unicode hex="0024"/>
  <outline>
    <contour>
      <point x="369" y="522" type="curve"/>
      <point x="399" y="610" type="line"/>
      <point x="357" y="632"/>
      <point x="304" y="644"/>
      <point x="253" y="644" type="curve" smooth="yes"/>
      <point x="200" y="644"/>
      <point x="149" y="634"/>
      <point x="108" y="606" type="curve" smooth="yes"/>
      <point x="64" y="577"/>
      <point x="46" y="533"/>
      <point x="46" y="488" type="curve" smooth="yes"/>
      <point x="46" y="389"/>
      <point x="126" y="352"/>
      <point x="204" y="315" type="curve" smooth="yes"/>
      <point x="224" y="306"/>
      <point x="245" y="296"/>
      <point x="264" y="285" type="curve" smooth="yes"/>
      <point x="310" y="260"/>
      <point x="346" y="229"/>
      <point x="346" y="180" type="curve" smooth="yes"/>
      <point x="346" y="152"/>
      <point x="333" y="125"/>
      <point x="313" y="110" type="curve" smooth="yes"/>
      <point x="290" y="93"/>
      <point x="258" y="87"/>
      <point x="231" y="87" type="curve" smooth="yes"/>
      <point x="213" y="87"/>
      <point x="180" y="90"/>
      <point x="146" y="111" type="curve" smooth="yes"/>
      <point x="127" y="123"/>
      <point x="109" y="141"/>
      <point x="94" y="166" type="curve"/>
      <point x="16" y="115" type="line"/>
      <point x="43" y="74"/>
      <point x="65" y="50"/>
      <point x="96" y="28" type="curve" smooth="yes"/>
      <point x="138" y="-2"/>
      <point x="187" y="-11"/>
      <point x="229" y="-11" type="curve" smooth="yes"/>
      <point x="283" y="-11"/>
      <point x="337" y="-1"/>
      <point x="379" y="26" type="curve" smooth="yes"/>
      <point x="435" y="63"/>
      <point x="458" y="124"/>
      <point x="458" y="181" type="curve" smooth="yes"/>
      <point x="458" y="270"/>
      <point x="397" y="327"/>
      <point x="329" y="367" type="curve" smooth="yes"/>
      <point x="303" y="384"/>
      <point x="274" y="397"/>
      <point x="249" y="408" type="curve" smooth="yes"/>
      <point x="196" y="432"/>
      <point x="158" y="451"/>
      <point x="157" y="488" type="curve" smooth="yes"/>
      <point x="157" y="508"/>
      <point x="166" y="523"/>
      <point x="180" y="533" type="curve" smooth="yes"/>
      <point x="195" y="544"/>
      <point x="220" y="551"/>
      <point x="251" y="551" type="curve" smooth="yes"/>
      <point x="284" y="551"/>
      <point x="325" y="543"/>
    </contour>
    <contour>
      <point x="297" y="742" type="line"/>
      <point x="197" y="742" type="line"/>
      <point x="197" y="-104" type="line"/>
      <point x="297" y="-104" type="line"/>
    </contour>
  </outline>
</glyph>
<glyph name="percent" format="1">
  <advance width="637"/>
  <unicode hex="0025"/>
  <outline>
    <contour>
      <point x="620" y="635" type="line"/>
      <point x="505" y="635" type="line"/>
      <point x="16" y="0" type="line"/>
      <point x="129" y="0" type="line"/>
    </contour>
    <contour>
      <point x="159" y="648" type="curve" smooth="yes"/>
      <point x="85" y="648"/>
      <point x="26" y="589"/>
      <point x="26" y="516" type="curve" smooth="yes"/>
      <point x="26" y="443"/>
      <point x="85" y="384"/>
      <point x="159" y="384" type="curve" smooth="yes"/>
      <point x="231" y="384"/>
      <point x="291" y="443"/>
      <point x="291" y="516" type="curve" smooth="yes"/>
      <point x="291" y="589"/>
      <point x="231" y="648"/>
    </contour>
    <contour>
      <point x="159" y="564" type="curve" smooth="yes"/>
      <point x="184" y="564"/>
      <point x="206" y="542"/>
      <point x="206" y="516" type="curve" smooth="yes"/>
      <point x="206" y="490"/>
      <point x="184" y="468"/>
      <point x="159" y="468" type="curve" smooth="yes"/>
      <point x="132" y="468"/>
      <point x="111" y="490"/>
      <point x="111" y="516" type="curve" smooth="yes"/>
      <point x="111" y="542"/>
      <point x="132" y="564"/>
    </contour>
    <contour>
      <point x="486" y="252" type="curve" smooth="yes"/>
      <point x="413" y="252"/>
      <point x="354" y="193"/>
      <point x="354" y="119" type="curve" smooth="yes"/>
      <point x="354" y="46"/>
      <point x="413" y="-13"/>
      <point x="486" y="-13" type="curve" smooth="yes"/>
      <point x="559" y="-13"/>
      <point x="618" y="46"/>
      <point x="618" y="119" type="curve" smooth="yes"/>
      <point x="618" y="193"/>
      <point x="559" y="252"/>
    </contour>
    <contour>
      <point x="486" y="167" type="curve" smooth="yes"/>
      <point x="512" y="167"/>
      <point x="533" y="145"/>
      <point x="533" y="119" type="curve" smooth="yes"/>
      <point x="533" y="94"/>
      <point x="512" y="72"/>
      <point x="486" y="72" type="curve" smooth="yes"/>
      <point x="460" y="72"/>
      <point x="439" y="94"/>
      <point x="439" y="119" type="curve" smooth="yes"/>
      <point x="439" y="145"/>
      <point x="460" y="167"/>
    </contour>
  </outline>
</glyph>
<glyph name="ampersand" format="1">
  <advance width="458"/>
  <unicode hex="0026"/>
  <outline>
    <contour>
      <point x="337" y="535" type="curve"/>
      <point x="356" y="636" type="line"/>
      <point x="356" y="636"/>
      <point x="276" y="636"/>
      <point x="204" y="636" type="curve" smooth="yes"/>
      <point x="122" y="636"/>
      <point x="74" y="582"/>
      <point x="74" y="504" type="curve" smooth="yes"/>
      <point x="74" y="442"/>
      <point x="109" y="394"/>
      <point x="155" y="366" type="curve"/>
      <point x="153" y="366"/>
      <point x="137" y="366"/>
      <point x="130" y="366" type="curve" smooth="yes"/>
      <point x="63" y="366"/>
      <point x="17" y="325"/>
      <point x="17" y="233" type="curve"/>
      <point x="17" y="233"/>
      <point x="17" y="146"/>
      <point x="17" y="146" type="curve"/>
      <point x="17" y="31"/>
      <point x="93" y="-2"/>
      <point x="164" y="-2" type="curve" smooth="yes"/>
      <point x="202" y="-2"/>
      <point x="243" y="15"/>
      <point x="275" y="44" type="curve"/>
      <point x="297" y="11"/>
      <point x="336" y="-6"/>
      <point x="392" y="-7" type="curve"/>
      <point x="422" y="73" type="line"/>
      <point x="380" y="73"/>
      <point x="356" y="83"/>
      <point x="356" y="124" type="curve" smooth="yes"/>
      <point x="356" y="278" type="line"/>
      <point x="421" y="278" type="line"/>
      <point x="442" y="366" type="line"/>
      <point x="352" y="366" type="line"/>
      <point x="352" y="460" type="line"/>
      <point x="252" y="460" type="line"/>
      <point x="252" y="366" type="line"/>
      <point x="251" y="366"/>
      <point x="250" y="366"/>
      <point x="250" y="366" type="curve"/>
      <point x="207" y="397"/>
      <point x="173" y="448"/>
      <point x="173" y="499" type="curve" smooth="yes"/>
      <point x="173" y="524"/>
      <point x="189" y="535"/>
      <point x="213" y="535" type="curve" smooth="yes"/>
      <point x="234" y="535"/>
      <point x="337" y="535"/>
    </contour>
    <contour>
      <point x="252" y="282" type="curve"/>
      <point x="252" y="152" type="line"/>
      <point x="245" y="114"/>
      <point x="215" y="89"/>
      <point x="179" y="89" type="curve" smooth="yes"/>
      <point x="140" y="89"/>
      <point x="116" y="115"/>
      <point x="116" y="149" type="curve" smooth="yes"/>
      <point x="116" y="154"/>
      <point x="116" y="232"/>
      <point x="116" y="235" type="curve" smooth="yes"/>
      <point x="116" y="269"/>
      <point x="143" y="282"/>
      <point x="172" y="282" type="curve" smooth="yes"/>
      <point x="187" y="282"/>
      <point x="225" y="282"/>
    </contour>
  </outline>
</glyph>
<glyph name="quotesingle" format="1">
  <advance width="115"/>
  <unicode hex="0027"/>
  <outline>
    <contour>
      <point x="16" y="631" type="curve"/>
      <point x="29" y="534" type="line"/>
      <point x="85" y="534" type="line"/>
      <point x="98" y="631" type="line"/>
      <point x="98" y="683"/>
      <point x="16" y="683"/>
    </contour>
  </outline>
</glyph>
<glyph name="parenleft" format="1">
  <advance width="193"/>
  <unicode hex="0028"/>
  <outline>
    <contour>
      <point x="178" y="663" type="curve"/>
      <point x="128" y="742" type="line"/>
      <point x="45" y="694"/>
      <point x="20" y="622"/>
      <point x="20" y="549" type="curve" smooth="yes"/>
      <point x="20" y="85" type="line" smooth="yes"/>
      <point x="20" y="12"/>
      <point x="40" y="-55"/>
      <point x="129" y="-105" type="curve"/>
      <point x="179" y="-32" type="line"/>
      <point x="179" y="-32"/>
      <point x="119" y="0"/>
      <point x="119" y="94" type="curve" smooth="yes"/>
      <point x="119" y="165"/>
      <point x="119" y="295"/>
      <point x="119" y="551" type="curve" smooth="yes"/>
      <point x="119" y="637"/>
      <point x="178" y="663"/>
    </contour>
  </outline>
</glyph>
<glyph name="parenright" format="1">
  <advance width="193"/>
  <unicode hex="0029"/>
  <outline>
    <contour>
      <point x="15" y="663" type="curve"/>
      <point x="65" y="742" type="line"/>
      <point x="148" y="694"/>
      <point x="173" y="622"/>
      <point x="173" y="549" type="curve" smooth="yes"/>
      <point x="173" y="85" type="line" smooth="yes"/>
      <point x="173" y="12"/>
      <point x="153" y="-55"/>
      <point x="64" y="-105" type="curve"/>
      <point x="14" y="-32" type="line"/>
      <point x="14" y="-32"/>
      <point x="74" y="0"/>
      <point x="74" y="94" type="curve" smooth="yes"/>
      <point x="74" y="165"/>
      <point x="74" y="295"/>
      <point x="74" y="551" type="curve" smooth="yes"/>
      <point x="74" y="637"/>
      <point x="15" y="663"/>
    </contour>
  </outline>
</glyph>
<glyph name="asterisk" format="1">
  <advance width="326"/>
  <unicode hex="002A"/>
  <outline>
    <contour>
      <point x="120" y="491" type="line"/>
      <point x="37" y="424" type="line"/>
      <point x="126" y="360" type="line"/>
      <point x="161" y="467" type="line"/>
      <point x="195" y="360" type="line"/>
      <point x="288" y="422" type="line"/>
      <point x="201" y="490" type="line"/>
      <point x="311" y="499" type="line"/>
      <point x="270" y="595" type="line"/>
      <point x="185" y="533" type="line"/>
      <point x="216" y="635" type="line"/>
      <point x="107" y="635" type="line"/>
      <point x="137" y="533" type="line"/>
      <point x="49" y="594" type="line"/>
      <point x="14" y="500" type="line"/>
    </contour>
  </outline>
</glyph>
<glyph name="plus" format="1">
  <advance width="324"/>
  <unicode hex="002B"/>
  <outline>
    <contour>
      <point x="111" y="381" type="line"/>
      <point x="16" y="381" type="line"/>
      <point x="16" y="285" type="line"/>
      <point x="111" y="285" type="line"/>
      <point x="111" y="191" type="line"/>
      <point x="212" y="191" type="line"/>
      <point x="212" y="285" type="line"/>
      <point x="307" y="285" type="line"/>
      <point x="307" y="381" type="line"/>
      <point x="212" y="381" type="line"/>
      <point x="212" y="481" type="line"/>
      <point x="111" y="481" type="line"/>
    </contour>
  </outline>
</glyph>
<glyph name="comma" format="1">
  <advance width="140"/>
  <unicode hex="002C"/>
  <outline>
    <contour>
      <point x="41" y="-60" type="curve"/>
      <point x="63" y="-75" type="line"/>
      <point x="63" y="-75"/>
      <point x="124" y="-37"/>
      <point x="124" y="45" type="curve" smooth="yes"/>
      <point x="124" y="75"/>
      <point x="100" y="99"/>
      <point x="71" y="99" type="curve" smooth="yes"/>
      <point x="41" y="99"/>
      <point x="16" y="75"/>
      <point x="16" y="45" type="curve" smooth="yes"/>
      <point x="16" y="20"/>
      <point x="33" y="-1"/>
      <point x="57" y="-7" type="curve"/>
      <point x="54" y="-25"/>
      <point x="50" y="-44"/>
    </contour>
  </outline>
</glyph>
<glyph name="hyphen" format="1">
  <advance width="329"/>
  <unicode hex="002D"/>
  <outline>
    <contour>
      <point x="309" y="375" type="line"/>
      <point x="19" y="375" type="line"/>
      <point x="19" y="278" type="line"/>
      <point x="309" y="278" type="line"/>
    </contour>
  </outline>
</glyph>
<glyph name="period" format="1">
  <advance width="142"/>
  <unicode hex="002E"/>
  <outline>
    <contour>
      <point x="71" y="94" type="curve" smooth="yes"/>
      <point x="41" y="94"/>
      <point x="17" y="69"/>
      <point x="17" y="39" type="curve" smooth="yes"/>
      <point x="17" y="9"/>
      <point x="41" y="-15"/>
      <point x="71" y="-15" type="curve" smooth="yes"/>
      <point x="101" y="-15"/>
      <point x="126" y="9"/>
      <point x="126" y="39" type="curve" smooth="yes"/>
      <point x="126" y="69"/>
      <point x="101" y="94"/>
    </contour>
  </outline>
</glyph>
<glyph name="one" format="1">
  <advance width="225"/>
  <unicode hex="0031"/>
  <outline>
    <contour>
      <point x="0" y="570" type="curve"/>
      <point x="30" y="483" type="line"/>
      <point x="30" y="483"/>
      <point x="83" y="492"/>
      <point x="104" y="506" type="curve"/>
      <point x="103" y="0" type="line"/>
      <point x="204" y="0" type="line"/>
      <point x="204" y="635" type="line"/>
      <point x="104" y="635" type="line"/>
      <point x="68" y="585"/>
      <point x="0" y="570"/>
    </contour>
  </outline>
</glyph>
<glyph name="two" format="1">
  <advance width="368"/>
  <unicode hex="0032"/>
  <outline>
    <contour>
      <point x="27" y="535" type="curve"/>
      <point x="110" y="492" type="line"/>
      <point x="123" y="527"/>
      <point x="154" y="546"/>
      <point x="187" y="546" type="curve" smooth="yes"/>
      <point x="220" y="545"/>
      <point x="251" y="524"/>
      <point x="251" y="481" type="curve" smooth="yes"/>
      <point x="251" y="455"/>
      <point x="245" y="435"/>
      <point x="212" y="384" type="curve" smooth="yes"/>
      <point x="143" y="288"/>
      <point x="78" y="190"/>
      <point x="13" y="92" type="curve"/>
      <point x="13" y="0" type="line"/>
      <point x="352" y="0" type="line"/>
      <point x="352" y="91" type="line"/>
      <point x="128" y="91" type="line"/>
      <point x="209" y="214"/>
      <point x="252" y="276"/>
      <point x="292" y="338" type="curve" smooth="yes"/>
      <point x="325" y="389"/>
      <point x="349" y="433"/>
      <point x="349" y="489" type="curve" smooth="yes"/>
      <point x="349" y="591"/>
      <point x="270" y="644"/>
      <point x="188" y="644" type="curve" smooth="yes"/>
      <point x="115" y="644"/>
      <point x="53" y="602"/>
    </contour>
  </outline>
</glyph>
<glyph name="three" format="1">
  <advance width="378"/>
  <unicode hex="0033"/>
  <outline>
    <contour>
      <point x="209" y="374" type="curve"/>
      <point x="206" y="375" type="line"/>
      <point x="315" y="535" type="line"/>
      <point x="315" y="635" type="line"/>
      <point x="51" y="635" type="line"/>
      <point x="51" y="535" type="line"/>
      <point x="204" y="535" type="line"/>
      <point x="34" y="278" type="line"/>
      <point x="133" y="278" type="line" smooth="yes"/>
      <point x="171" y="278"/>
      <point x="201" y="270"/>
      <point x="222" y="258" type="curve" smooth="yes"/>
      <point x="251" y="242"/>
      <point x="265" y="217"/>
      <point x="265" y="183" type="curve" smooth="yes"/>
      <point x="265" y="155"/>
      <point x="256" y="131"/>
      <point x="239" y="113" type="curve" smooth="yes"/>
      <point x="223" y="96"/>
      <point x="199" y="86"/>
      <point x="169" y="86" type="curve" smooth="yes"/>
      <point x="129" y="86"/>
      <point x="90" y="111"/>
      <point x="73" y="146" type="curve"/>
      <point x="11" y="75" type="line"/>
      <point x="47" y="22"/>
      <point x="106" y="-11"/>
      <point x="171" y="-11" type="curve" smooth="yes"/>
      <point x="225" y="-11"/>
      <point x="270" y="8"/>
      <point x="307" y="45" type="curve" smooth="yes"/>
      <point x="346" y="83"/>
      <point x="365" y="129"/>
      <point x="365" y="183" type="curve" smooth="yes"/>
      <point x="365" y="233"/>
      <point x="349" y="275"/>
      <point x="317" y="310" type="curve" smooth="yes"/>
      <point x="286" y="344"/>
      <point x="250" y="366"/>
    </contour>
  </outline>
</glyph>
<glyph name="four" format="1">
  <advance width="461"/>
  <unicode hex="0034"/>
  <outline>
    <contour>
      <point x="387" y="278" type="line"/>
      <point x="433" y="278" type="line"/>
      <point x="450" y="375" type="line"/>
      <point x="387" y="375" type="line"/>
      <point x="387" y="635" type="line"/>
      <point x="287" y="635" type="line"/>
      <point x="287" y="375" type="line"/>
      <point x="164" y="375" type="line"/>
      <point x="279" y="635" type="line"/>
      <point x="177" y="635" type="line"/>
      <point x="2" y="278" type="line"/>
      <point x="287" y="278" type="line"/>
      <point x="287" y="0" type="line"/>
      <point x="387" y="0" type="line"/>
    </contour>
  </outline>
</glyph>
<glyph name="five" format="1">
  <advance width="374"/>
  <unicode hex="0035"/>
  <outline>
    <contour>
      <point x="144" y="375" type="curve"/>
      <point x="161" y="535" type="line"/>
      <point x="310" y="535" type="line"/>
      <point x="310" y="635" type="line"/>
      <point x="68" y="635" type="line"/>
      <point x="29" y="282" type="line"/>
      <point x="129" y="282" type="line"/>
      <point x="207" y="278"/>
      <point x="260" y="252"/>
      <point x="260" y="183" type="curve" smooth="yes"/>
      <point x="260" y="129"/>
      <point x="219" y="88"/>
      <point x="166" y="88" type="curve" smooth="yes"/>
      <point x="111" y="88"/>
      <point x="48" y="125"/>
      <point x="48" y="125" type="curve"/>
      <point x="12" y="38" type="line"/>
      <point x="12" y="38"/>
      <point x="89" y="-11"/>
      <point x="168" y="-11" type="curve" smooth="yes"/>
      <point x="296" y="-11"/>
      <point x="361" y="97"/>
      <point x="361" y="181" type="curve" smooth="yes"/>
      <point x="361" y="285"/>
      <point x="297" y="369"/>
      <point x="162" y="374" type="curve" smooth="yes"/>
      <point x="156" y="374"/>
      <point x="150" y="375"/>
    </contour>
  </outline>
</glyph>
<glyph name="six" format="1">
  <advance width="411"/>
  <unicode hex="0036"/>
  <outline>
    <contour>
      <point x="232" y="544" type="curve" smooth="yes"/>
      <point x="267" y="544" type="line"/>
      <point x="267" y="635" type="line"/>
      <point x="236" y="635" type="line" smooth="yes"/>
      <point x="155" y="635"/>
      <point x="93" y="604"/>
      <point x="61" y="559" type="curve" smooth="yes"/>
      <point x="28" y="513"/>
      <point x="15" y="466"/>
      <point x="15" y="418" type="curve" smooth="yes"/>
      <point x="15" y="185" type="line" smooth="yes"/>
      <point x="15" y="131"/>
      <point x="34" y="85"/>
      <point x="71" y="47" type="curve" smooth="yes"/>
      <point x="107" y="10"/>
      <point x="153" y="-9"/>
      <point x="207" y="-9" type="curve" smooth="yes"/>
      <point x="260" y="-9"/>
      <point x="306" y="10"/>
      <point x="344" y="47" type="curve" smooth="yes"/>
      <point x="381" y="85"/>
      <point x="400" y="131"/>
      <point x="400" y="185" type="curve" smooth="yes"/>
      <point x="400" y="238"/>
      <point x="381" y="284"/>
      <point x="344" y="321" type="curve" smooth="yes"/>
      <point x="306" y="358"/>
      <point x="260" y="375"/>
      <point x="207" y="375" type="curve" smooth="yes"/>
      <point x="147" y="375"/>
      <point x="113" y="349"/>
      <point x="113" y="349" type="curve"/>
      <point x="113" y="397" type="line" smooth="yes"/>
      <point x="113" y="444"/>
      <point x="125" y="482"/>
      <point x="147" y="507" type="curve" smooth="yes"/>
      <point x="167" y="531"/>
      <point x="196" y="544"/>
    </contour>
    <contour>
      <point x="207" y="277" type="curve" smooth="yes"/>
      <point x="259" y="277"/>
      <point x="301" y="235"/>
      <point x="301" y="184" type="curve" smooth="yes"/>
      <point x="301" y="132"/>
      <point x="259" y="89"/>
      <point x="207" y="89" type="curve" smooth="yes"/>
      <point x="156" y="89"/>
      <point x="113" y="132"/>
      <point x="113" y="184" type="curve" smooth="yes"/>
      <point x="113" y="235"/>
      <point x="156" y="277"/>
    </contour>
  </outline>
</glyph>
<glyph name="seven" format="1">
  <advance width="390"/>
  <unicode hex="0037"/>
  <outline>
    <contour>
      <point x="385" y="635" type="line"/>
      <point x="28" y="635" type="line"/>
      <point x="28" y="535" type="line"/>
      <point x="273" y="535" type="line"/>
      <point x="9" y="0" type="line"/>
      <point x="119" y="0" type="line"/>
      <point x="385" y="535" type="line"/>
    </contour>
  </outline>
</glyph>
<glyph name="eight" format="1">
  <advance width="412"/>
  <unicode hex="0038"/>
  <outline>
    <contour>
      <point x="206" y="644" type="curve" smooth="yes"/>
      <point x="161" y="644"/>
      <point x="124" y="628"/>
      <point x="94" y="596" type="curve" smooth="yes"/>
      <point x="63" y="565"/>
      <point x="48" y="528"/>
      <point x="48" y="484" type="curve" smooth="yes"/>
      <point x="48" y="453"/>
      <point x="54" y="425"/>
      <point x="69" y="402" type="curve"/>
      <point x="80" y="383"/>
      <point x="95" y="367"/>
      <point x="115" y="354" type="curve"/>
      <point x="91" y="341"/>
      <point x="71" y="324"/>
      <point x="55" y="304" type="curve" smooth="yes"/>
      <point x="28" y="270"/>
      <point x="12" y="228"/>
      <point x="12" y="183" type="curve" smooth="yes"/>
      <point x="12" y="129"/>
      <point x="31" y="83"/>
      <point x="69" y="45" type="curve" smooth="yes"/>
      <point x="106" y="8"/>
      <point x="151" y="-11"/>
      <point x="205" y="-11" type="curve" smooth="yes"/>
      <point x="259" y="-11"/>
      <point x="304" y="8"/>
      <point x="341" y="45" type="curve" smooth="yes"/>
      <point x="379" y="83"/>
      <point x="399" y="129"/>
      <point x="399" y="183" type="curve" smooth="yes"/>
      <point x="399" y="235"/>
      <point x="378" y="283"/>
      <point x="342" y="318" type="curve"/>
      <point x="329" y="332"/>
      <point x="313" y="343"/>
      <point x="296" y="353" type="curve"/>
      <point x="317" y="366"/>
      <point x="333" y="383"/>
      <point x="345" y="402" type="curve" smooth="yes"/>
      <point x="359" y="425"/>
      <point x="366" y="453"/>
      <point x="366" y="484" type="curve" smooth="yes"/>
      <point x="366" y="528"/>
      <point x="350" y="565"/>
      <point x="319" y="596" type="curve" smooth="yes"/>
      <point x="288" y="628"/>
      <point x="250" y="644"/>
    </contour>
    <contour>
      <point x="205" y="424" type="curve" smooth="yes"/>
      <point x="187" y="424"/>
      <point x="170" y="433"/>
      <point x="160" y="445" type="curve" smooth="yes"/>
      <point x="150" y="456"/>
      <point x="145" y="470"/>
      <point x="145" y="485" type="curve" smooth="yes"/>
      <point x="145" y="519"/>
      <point x="172" y="545"/>
      <point x="205" y="545" type="curve" smooth="yes"/>
      <point x="239" y="545"/>
      <point x="266" y="519"/>
      <point x="266" y="485" type="curve" smooth="yes"/>
      <point x="266" y="470"/>
      <point x="259" y="455"/>
      <point x="250" y="445" type="curve" smooth="yes"/>
      <point x="239" y="433"/>
      <point x="223" y="424"/>
    </contour>
    <contour>
      <point x="205" y="87" type="curve" smooth="yes"/>
      <point x="152" y="87"/>
      <point x="110" y="130"/>
      <point x="110" y="183" type="curve" smooth="yes"/>
      <point x="110" y="207"/>
      <point x="120" y="230"/>
      <point x="135" y="247" type="curve" smooth="yes"/>
      <point x="152" y="266"/>
      <point x="178" y="278"/>
      <point x="205" y="278" type="curve" smooth="yes"/>
      <point x="229" y="278"/>
      <point x="249" y="270"/>
      <point x="266" y="256" type="curve" smooth="yes"/>
      <point x="287" y="239"/>
      <point x="300" y="213"/>
      <point x="300" y="183" type="curve" smooth="yes"/>
      <point x="300" y="130"/>
      <point x="258" y="87"/>
    </contour>
  </outline>
</glyph>
<glyph name="nine" format="1">
  <advance width="409"/>
  <unicode hex="0039"/>
  <outline>
    <contour>
      <point x="201" y="644" type="curve" smooth="yes"/>
      <point x="147" y="644"/>
      <point x="102" y="625"/>
      <point x="64" y="588" type="curve" smooth="yes"/>
      <point x="27" y="551"/>
      <point x="8" y="504"/>
      <point x="8" y="451" type="curve" smooth="yes"/>
      <point x="8" y="397"/>
      <point x="27" y="352"/>
      <point x="64" y="314" type="curve" smooth="yes"/>
      <point x="101" y="277"/>
      <point x="148" y="260"/>
      <point x="201" y="260" type="curve" smooth="yes"/>
      <point x="262" y="260"/>
      <point x="294" y="286"/>
      <point x="294" y="286" type="curve"/>
      <point x="294" y="238" type="line" smooth="yes"/>
      <point x="294" y="192"/>
      <point x="283" y="154"/>
      <point x="261" y="127" type="curve"/>
      <point x="241" y="105"/>
      <point x="213" y="91"/>
      <point x="175" y="91" type="curve" smooth="yes"/>
      <point x="140" y="91" type="line"/>
      <point x="140" y="-1" type="line"/>
      <point x="172" y="-1" type="line" smooth="yes"/>
      <point x="253" y="-1"/>
      <point x="315" y="31"/>
      <point x="347" y="75" type="curve" smooth="yes"/>
      <point x="380" y="122"/>
      <point x="393" y="168"/>
      <point x="393" y="216" type="curve" smooth="yes"/>
      <point x="393" y="451" type="line" smooth="yes"/>
      <point x="393" y="504"/>
      <point x="374" y="551"/>
      <point x="337" y="588" type="curve" smooth="yes"/>
      <point x="300" y="625"/>
      <point x="254" y="644"/>
    </contour>
    <contour>
      <point x="201" y="545" type="curve" smooth="yes"/>
      <point x="253" y="545"/>
      <point x="294" y="504"/>
      <point x="294" y="452" type="curve" smooth="yes"/>
      <point x="294" y="400"/>
      <point x="253" y="358"/>
      <point x="201" y="358" type="curve" smooth="yes"/>
      <point x="149" y="358"/>
      <point x="106" y="400"/>
      <point x="106" y="452" type="curve" smooth="yes"/>
      <point x="106" y="504"/>
      <point x="149" y="545"/>
    </contour>
  </outline>
</glyph>
<glyph name="colon" format="1">
  <advance width="145"/>
  <unicode hex="003A"/>
  <outline>
    <contour>
      <point x="126" y="130" type="curve" smooth="yes"/>
      <point x="126" y="160"/>
      <point x="101" y="185"/>
      <point x="71" y="185" type="curve" smooth="yes"/>
      <point x="41" y="185"/>
      <point x="18" y="160"/>
      <point x="18" y="130" type="curve" smooth="yes"/>
      <point x="18" y="100"/>
      <point x="41" y="76"/>
      <point x="71" y="76" type="curve" smooth="yes"/>
      <point x="101" y="76"/>
      <point x="126" y="100"/>
    </contour>
    <contour>
      <point x="126" y="350" type="curve" smooth="yes"/>
      <point x="126" y="379"/>
      <point x="101" y="404"/>
      <point x="71" y="404" type="curve" smooth="yes"/>
      <point x="41" y="404"/>
      <point x="18" y="379"/>
      <point x="18" y="350" type="curve" smooth="yes"/>
      <point x="18" y="320"/>
      <point x="41" y="295"/>
      <point x="71" y="295" type="curve" smooth="yes"/>
      <point x="101" y="295"/>
      <point x="126" y="320"/>
    </contour>
  </outline>
</glyph>
<glyph name="semicolon" format="1">
  <advance width="144"/>
  <unicode hex="003B"/>
  <outline>
    <contour>
      <point x="41" y="25" type="curve"/>
      <point x="64" y="10" type="line"/>
      <point x="64" y="10"/>
      <point x="125" y="47"/>
      <point x="125" y="130" type="curve" smooth="yes"/>
      <point x="125" y="160"/>
      <point x="100" y="184"/>
      <point x="71" y="184" type="curve" smooth="yes"/>
      <point x="41" y="184"/>
      <point x="17" y="160"/>
      <point x="17" y="130" type="curve" smooth="yes"/>
      <point x="17" y="105"/>
      <point x="34" y="84"/>
      <point x="58" y="77" type="curve"/>
      <point x="55" y="60"/>
      <point x="50" y="41"/>
    </contour>
    <contour>
      <point x="126" y="350" type="curve" smooth="yes"/>
      <point x="126" y="379"/>
      <point x="101" y="404"/>
      <point x="71" y="404" type="curve" smooth="yes"/>
      <point x="41" y="404"/>
      <point x="18" y="379"/>
      <point x="18" y="350" type="curve" smooth="yes"/>
      <point x="18" y="320"/>
      <point x="41" y="295"/>
      <point x="71" y="295" type="curve" smooth="yes"/>
      <point x="101" y="295"/>
      <point x="126" y="320"/>
    </contour>
  </outline>
</glyph>
<glyph name="less" format="1">
  <advance width="353"/>
  <unicode hex="003C"/>
  <outline>
    <contour>
      <point x="334" y="133" type="line"/>
      <point x="144" y="325" type="line"/>
      <point x="336" y="514" type="line"/>
      <point x="269" y="578" type="line"/>
      <point x="16" y="325" type="line"/>
      <point x="269" y="73" type="line"/>
    </contour>
  </outline>
</glyph>
<glyph name="equal" format="1">
  <advance width="330"/>
  <unicode hex="003D"/>
  <outline>
    <contour>
      <point x="310" y="419" type="line"/>
      <point x="19" y="419" type="line"/>
      <point x="19" y="324" type="line"/>
      <point x="310" y="324" type="line"/>
    </contour>
    <contour>
      <point x="310" y="281" type="line"/>
      <point x="19" y="281" type="line"/>
      <point x="19" y="185" type="line"/>
      <point x="310" y="185" type="line"/>
    </contour>
  </outline>
</glyph>
<glyph name="greater" format="1">
  <advance width="353"/>
  <unicode hex="003E"/>
  <outline>
    <contour>
      <point x="18" y="133" type="line"/>
      <point x="83" y="73" type="line"/>
      <point x="336" y="325" type="line"/>
      <point x="83" y="578" type="line"/>
      <point x="16" y="514" type="line"/>
      <point x="208" y="325" type="line"/>
    </contour>
  </outline>
</glyph>
<glyph name="question" format="1">
  <advance width="367"/>
  <unicode hex="003F"/>
  <outline>
    <contour>
      <point x="15" y="483" type="curve"/>
      <point x="117" y="483" type="line"/>
      <point x="117" y="527"/>
      <point x="147" y="548"/>
      <point x="179" y="548" type="curve" smooth="yes"/>
      <point x="223" y="548"/>
      <point x="250" y="514"/>
      <point x="250" y="477" type="curve" smooth="yes"/>
      <point x="250" y="437"/>
      <point x="218" y="404"/>
      <point x="186" y="364" type="curve" smooth="yes"/>
      <point x="152" y="322"/>
      <point x="117" y="271"/>
      <point x="117" y="193" type="curve" smooth="yes"/>
      <point x="117" y="108" type="line"/>
      <point x="216" y="108" type="line"/>
      <point x="216" y="142"/>
      <point x="216" y="166"/>
      <point x="216" y="191" type="curve" smooth="yes"/>
      <point x="219" y="256"/>
      <point x="232" y="278"/>
      <point x="280" y="332" type="curve" smooth="yes"/>
      <point x="319" y="375"/>
      <point x="351" y="414"/>
      <point x="351" y="474" type="curve" smooth="yes"/>
      <point x="351" y="576"/>
      <point x="272" y="644"/>
      <point x="178" y="644" type="curve" smooth="yes"/>
      <point x="98" y="644"/>
      <point x="15" y="593"/>
    </contour>
    <contour>
      <point x="167" y="94" type="curve" smooth="yes"/>
      <point x="137" y="94"/>
      <point x="113" y="69"/>
      <point x="113" y="39" type="curve" smooth="yes"/>
      <point x="113" y="9"/>
      <point x="137" y="-15"/>
      <point x="167" y="-15" type="curve" smooth="yes"/>
      <point x="197" y="-15"/>
      <point x="221" y="9"/>
      <point x="221" y="39" type="curve" smooth="yes"/>
      <point x="221" y="69"/>
      <point x="197" y="94"/>
    </contour>
  </outline>
</glyph>
<glyph name="at" format="1">
  <advance width="720"/>
  <unicode hex="0040"/>
  <outline>
    <contour>
      <point x="704" y="377" type="curve"/>
      <point x="675" y="440" type="line"/>
      <point x="590" y="424"/>
      <point x="572" y="377"/>
      <point x="572" y="316" type="curve" smooth="yes"/>
      <point x="572" y="302"/>
      <point x="572" y="163"/>
      <point x="572" y="147" type="curve" smooth="yes"/>
      <point x="572" y="52"/>
      <point x="498" y="5"/>
      <point x="349" y="5" type="curve" smooth="yes"/>
      <point x="177" y="5"/>
      <point x="111" y="64"/>
      <point x="111" y="205" type="curve" smooth="yes"/>
      <point x="111" y="237"/>
      <point x="111" y="268"/>
      <point x="111" y="300" type="curve" smooth="yes"/>
      <point x="111" y="403"/>
      <point x="139" y="458"/>
      <point x="273" y="458" type="curve" smooth="yes"/>
      <point x="350" y="458"/>
      <point x="395" y="451"/>
      <point x="395" y="403" type="curve"/>
      <point x="395" y="403"/>
      <point x="304" y="403"/>
      <point x="295" y="403" type="curve" smooth="yes"/>
      <point x="224" y="403"/>
      <point x="171" y="364"/>
      <point x="168" y="259" type="curve"/>
      <point x="168" y="213" type="line" smooth="yes"/>
      <point x="168" y="128"/>
      <point x="203" y="55"/>
      <point x="315" y="55" type="curve" smooth="yes"/>
      <point x="386" y="55"/>
      <point x="495" y="64"/>
      <point x="495" y="64" type="curve"/>
      <point x="495" y="148"/>
      <point x="495" y="230"/>
      <point x="495" y="314" type="curve"/>
      <point x="523" y="314" type="line"/>
      <point x="547" y="403" type="line"/>
      <point x="492" y="403" type="line"/>
      <point x="492" y="524"/>
      <point x="397" y="549"/>
      <point x="269" y="549" type="curve" smooth="yes"/>
      <point x="109" y="549"/>
      <point x="17" y="475"/>
      <point x="17" y="294" type="curve" smooth="yes"/>
      <point x="17" y="255"/>
      <point x="17" y="213"/>
      <point x="17" y="167" type="curve" smooth="yes"/>
      <point x="17" y="-2"/>
      <point x="153" y="-85"/>
      <point x="345" y="-85" type="curve" smooth="yes"/>
      <point x="580" y="-85"/>
      <point x="664" y="35"/>
      <point x="664" y="162" type="curve" smooth="yes"/>
      <point x="664" y="305" type="line" smooth="yes"/>
      <point x="664" y="338"/>
      <point x="666" y="359"/>
    </contour>
    <contour>
      <point x="320" y="314" type="curve" smooth="yes"/>
      <point x="322" y="314"/>
      <point x="372" y="314"/>
      <point x="398" y="314" type="curve"/>
      <point x="398" y="142" type="line"/>
      <point x="374" y="139"/>
      <point x="353" y="139"/>
      <point x="332" y="139" type="curve" smooth="yes"/>
      <point x="290" y="139"/>
      <point x="268" y="152"/>
      <point x="268" y="212" type="curve" smooth="yes"/>
      <point x="268" y="256" type="line" smooth="yes"/>
      <point x="268" y="302"/>
      <point x="300" y="314"/>
    </contour>
  </outline>
</glyph>
<glyph name="A" format="1">
  <advance width="466"/>
  <unicode hex="0041"/>
  <outline>
    <contour>
      <point x="162" y="635" type="line"/>
      <point x="8" y="0" type="line"/>
      <point x="121" y="0" type="line"/>
      <point x="157" y="166" type="line"/>
      <point x="304" y="166" type="line"/>
      <point x="340" y="0" type="line"/>
      <point x="459" y="0" type="line"/>
      <point x="303" y="635" type="line"/>
    </contour>
    <contour>
      <point x="281" y="273" type="line"/>
      <point x="182" y="273" type="line"/>
      <point x="231" y="468" type="line"/>
    </contour>
  </outline>
</glyph>
<glyph name="B" format="1">
  <advance width="427"/>
  <unicode hex="0042"/>
  <outline>
    <contour>
      <point x="205" y="635" type="curve" smooth="yes"/>
      <point x="20" y="635" type="line"/>
      <point x="20" y="0" type="line"/>
      <point x="219" y="0" type="line" smooth="yes"/>
      <point x="288" y="0"/>
      <point x="335" y="23"/>
      <point x="366" y="55" type="curve" smooth="yes"/>
      <point x="401" y="91"/>
      <point x="414" y="140"/>
      <point x="414" y="186" type="curve" smooth="yes"/>
      <point x="414" y="269"/>
      <point x="374" y="322"/>
      <point x="320" y="346" type="curve"/>
      <point x="320" y="347" type="line" smooth="yes"/>
      <point x="320" y="348"/>
      <point x="320" y="348"/>
      <point x="321" y="349" type="curve"/>
      <point x="361" y="376"/>
      <point x="381" y="417"/>
      <point x="381" y="474" type="curve" smooth="yes"/>
      <point x="381" y="526"/>
      <point x="365" y="565"/>
      <point x="331" y="594" type="curve" smooth="yes"/>
      <point x="297" y="622"/>
      <point x="255" y="635"/>
    </contour>
    <contour>
      <point x="164" y="375" type="curve" smooth="yes"/>
      <point x="120" y="375" type="line"/>
      <point x="120" y="535" type="line"/>
      <point x="173" y="535" type="line" smooth="yes"/>
      <point x="235" y="535"/>
      <point x="265" y="516"/>
      <point x="265" y="459" type="curve" smooth="yes"/>
      <point x="265" y="433"/>
      <point x="260" y="414"/>
      <point x="248" y="401" type="curve" smooth="yes"/>
      <point x="232" y="383"/>
      <point x="204" y="375"/>
    </contour>
    <contour>
      <point x="193" y="92" type="curve" smooth="yes"/>
      <point x="120" y="92" type="line"/>
      <point x="120" y="279" type="line"/>
      <point x="184" y="279" type="line" smooth="yes"/>
      <point x="261" y="279"/>
      <point x="299" y="249"/>
      <point x="299" y="188" type="curve" smooth="yes"/>
      <point x="299" y="109"/>
      <point x="236" y="92"/>
    </contour>
  </outline>
</glyph>
<glyph name="C" format="1">
  <advance width="356"/>
  <unicode hex="0043"/>
  <outline>
    <contour>
      <point x="295" y="529" type="curve"/>
      <point x="322" y="614" type="line"/>
      <point x="279" y="635"/>
      <point x="235" y="645"/>
      <point x="191" y="645" type="curve" smooth="yes"/>
      <point x="146" y="645"/>
      <point x="104" y="634"/>
      <point x="72" y="604" type="curve" smooth="yes"/>
      <point x="39" y="575"/>
      <point x="16" y="528"/>
      <point x="16" y="457" type="curve" smooth="yes"/>
      <point x="16" y="166" type="line" smooth="yes"/>
      <point x="16" y="103"/>
      <point x="37" y="58"/>
      <point x="70" y="29" type="curve" smooth="yes"/>
      <point x="102" y="2"/>
      <point x="146" y="-11"/>
      <point x="195" y="-11" type="curve" smooth="yes"/>
      <point x="242" y="-10"/>
      <point x="292" y="1"/>
      <point x="344" y="21" type="curve"/>
      <point x="329" y="115" type="line"/>
      <point x="318" y="115"/>
      <point x="256" y="91"/>
      <point x="201" y="91" type="curve" smooth="yes"/>
      <point x="175" y="91"/>
      <point x="153" y="95"/>
      <point x="138" y="109" type="curve" smooth="yes"/>
      <point x="124" y="121"/>
      <point x="116" y="140"/>
      <point x="116" y="168" type="curve" smooth="yes"/>
      <point x="116" y="465" type="line" smooth="yes"/>
      <point x="116" y="493"/>
      <point x="123" y="512"/>
      <point x="139" y="525" type="curve" smooth="yes"/>
      <point x="154" y="538"/>
      <point x="177" y="545"/>
      <point x="209" y="545" type="curve" smooth="yes"/>
      <point x="236" y="545"/>
      <point x="270" y="538"/>
    </contour>
  </outline>
</glyph>
<glyph name="E" format="1">
  <advance width="340"/>
  <unicode hex="0045"/>
  <outline>
    <contour>
      <point x="322" y="91" type="line"/>
      <point x="120" y="91" type="line"/>
      <point x="120" y="280" type="line"/>
      <point x="216" y="280" type="line"/>
      <point x="245" y="375" type="line"/>
      <point x="120" y="375" type="line"/>
      <point x="120" y="535" type="line"/>
      <point x="324" y="535" type="line"/>
      <point x="324" y="635" type="line"/>
      <point x="20" y="635" type="line"/>
      <point x="20" y="0" type="line"/>
      <point x="322" y="0" type="line"/>
    </contour>
  </outline>
</glyph>
<glyph name="F" format="1">
  <advance width="326"/>
  <unicode hex="0046"/>
  <outline>
    <contour>
      <point x="20" y="0" type="line"/>
      <point x="120" y="0" type="line"/>
      <point x="120" y="280" type="line"/>
      <point x="213" y="280" type="line"/>
      <point x="245" y="375" type="line"/>
      <point x="120" y="375" type="line"/>
      <point x="120" y="535" type="line"/>
      <point x="324" y="535" type="line"/>
      <point x="324" y="635" type="line"/>
      <point x="20" y="635" type="line"/>
    </contour>
  </outline>
</glyph>
<glyph name="G" format="1">
  <advance width="405"/>
  <unicode hex="0047"/>
  <outline>
    <contour>
      <point x="292" y="524" type="curve"/>
      <point x="322" y="614" type="line"/>
      <point x="286" y="632"/>
      <point x="247" y="642"/>
      <point x="204" y="644" type="curve" smooth="yes"/>
      <point x="155" y="644"/>
      <point x="123" y="636"/>
      <point x="95" y="621" type="curve"/>
      <point x="43" y="589"/>
      <point x="16" y="534"/>
      <point x="16" y="456" type="curve" smooth="yes"/>
      <point x="16" y="172" type="line" smooth="yes"/>
      <point x="16" y="112"/>
      <point x="34" y="66"/>
      <point x="72" y="36" type="curve" smooth="yes"/>
      <point x="109" y="6"/>
      <point x="154" y="-9"/>
      <point x="208" y="-9" type="curve" smooth="yes"/>
      <point x="231" y="-9"/>
      <point x="258" y="-4"/>
      <point x="290" y="7" type="curve"/>
      <point x="295" y="0" type="line"/>
      <point x="390" y="0" type="line"/>
      <point x="390" y="273" type="line"/>
      <point x="206" y="273" type="line"/>
      <point x="238" y="177" type="line"/>
      <point x="290" y="177" type="line"/>
      <point x="290" y="169" type="line" smooth="yes"/>
      <point x="290" y="145"/>
      <point x="283" y="126"/>
      <point x="272" y="114" type="curve" smooth="yes"/>
      <point x="258" y="99"/>
      <point x="236" y="92"/>
      <point x="207" y="92" type="curve" smooth="yes"/>
      <point x="148" y="92"/>
      <point x="116" y="112"/>
      <point x="116" y="170" type="curve" smooth="yes"/>
      <point x="116" y="464" type="line" smooth="yes"/>
      <point x="116" y="499"/>
      <point x="128" y="519"/>
      <point x="150" y="530" type="curve" smooth="yes"/>
      <point x="165" y="537"/>
      <point x="185" y="540"/>
      <point x="209" y="540" type="curve" smooth="yes"/>
      <point x="235" y="540"/>
      <point x="263" y="534"/>
    </contour>
  </outline>
</glyph>
<glyph name="J" format="1">
  <advance width="223"/>
  <unicode hex="004A"/>
  <outline>
    <contour>
      <point x="204" y="126" type="curve" smooth="yes"/>
      <point x="204" y="635" type="line"/>
      <point x="51" y="635" type="line"/>
      <point x="51" y="539" type="line"/>
      <point x="106" y="537" type="line"/>
      <point x="106" y="142" type="line" smooth="yes"/>
      <point x="106" y="82"/>
      <point x="74" y="52"/>
      <point x="10" y="52" type="curve"/>
      <point x="43" y="-34" type="line"/>
      <point x="76" y="-33"/>
      <point x="119" y="-25"/>
      <point x="153" y="3" type="curve" smooth="yes"/>
      <point x="182" y="26"/>
      <point x="204" y="65"/>
    </contour>
  </outline>
</glyph>
<glyph name="K" format="1">
  <advance width="434"/>
  <unicode hex="004B"/>
  <outline>
    <contour>
      <point x="20" y="636" type="line"/>
      <point x="20" y="0" type="line"/>
      <point x="127" y="0" type="line"/>
      <point x="127" y="244" type="line"/>
      <point x="134" y="253" type="line"/>
      <point x="305" y="0" type="line"/>
      <point x="430" y="0" type="line"/>
      <point x="193" y="342" type="line"/>
      <point x="394" y="636" type="line"/>
      <point x="274" y="636" type="line"/>
      <point x="127" y="417" type="line"/>
      <point x="127" y="636" type="line"/>
    </contour>
  </outline>
</glyph>
<glyph name="L" format="1">
  <advance width="358"/>
  <unicode hex="004C"/>
  <outline>
    <contour>
      <point x="348" y="92" type="line"/>
      <point x="120" y="92" type="line"/>
      <point x="120" y="635" type="line"/>
      <point x="20" y="635" type="line"/>
      <point x="20" y="0" type="line"/>
      <point x="348" y="0" type="line"/>
    </contour>
  </outline>
</glyph>
<glyph name="M" format="1">
  <advance width="528"/>
  <unicode hex="004D"/>
  <outline>
    <contour>
      <point x="20" y="0" type="line"/>
      <point x="120" y="0" type="line"/>
      <point x="120" y="335" type="line"/>
      <point x="225" y="0" type="line"/>
      <point x="301" y="0" type="line"/>
      <point x="407" y="336" type="line"/>
      <point x="407" y="0" type="line"/>
      <point x="507" y="0" type="line"/>
      <point x="507" y="635" type="line"/>
      <point x="407" y="635" type="line"/>
      <point x="263" y="215" type="line"/>
      <point x="120" y="635" type="line"/>
      <point x="20" y="635" type="line"/>
    </contour>
  </outline>
</glyph>
<glyph name="P" format="1">
  <advance width="428"/>
  <unicode hex="0050"/>
  <outline>
    <contour>
      <point x="217" y="635" type="curve" smooth="yes"/>
      <point x="20" y="635" type="line"/>
      <point x="20" y="0" type="line"/>
      <point x="120" y="0" type="line"/>
      <point x="120" y="177" type="line"/>
      <point x="120" y="177"/>
      <point x="213" y="177"/>
      <point x="217" y="177" type="curve" smooth="yes"/>
      <point x="315" y="177"/>
      <point x="415" y="214"/>
      <point x="415" y="410" type="curve" smooth="yes"/>
      <point x="415" y="589"/>
      <point x="313" y="635"/>
    </contour>
    <contour>
      <point x="120" y="273" type="curve"/>
      <point x="120" y="535" type="line"/>
      <point x="180" y="535" type="line" smooth="yes"/>
      <point x="273" y="535"/>
      <point x="315" y="524"/>
      <point x="315" y="410" type="curve" smooth="yes"/>
      <point x="315" y="288"/>
      <point x="274" y="273"/>
      <point x="180" y="273" type="curve" smooth="yes"/>
      <point x="175" y="273"/>
      <point x="120" y="273"/>
    </contour>
  </outline>
</glyph>
<glyph name="Q" format="1">
  <advance width="415"/>
  <unicode hex="0051"/>
  <outline>
    <contour>
      <point x="16" y="460" type="curve" smooth="yes"/>
      <point x="16" y="168" type="line" smooth="yes"/>
      <point x="16" y="51"/>
      <point x="100" y="-10"/>
      <point x="208" y="-10" type="curve" smooth="yes"/>
      <point x="322" y="-10"/>
      <point x="398" y="57"/>
      <point x="398" y="168" type="curve" smooth="yes"/>
      <point x="398" y="459" type="line" smooth="yes"/>
      <point x="398" y="578"/>
      <point x="329" y="650"/>
      <point x="209" y="650" type="curve" smooth="yes"/>
      <point x="89" y="650"/>
      <point x="16" y="584"/>
    </contour>
    <contour>
      <point x="116" y="167" type="curve" smooth="yes"/>
      <point x="116" y="427" type="line" smooth="yes"/>
      <point x="116" y="506"/>
      <point x="144" y="544"/>
      <point x="207" y="544" type="curve" smooth="yes"/>
      <point x="277" y="544"/>
      <point x="298" y="504"/>
      <point x="298" y="426" type="curve" smooth="yes"/>
      <point x="298" y="169" type="line" smooth="yes"/>
      <point x="298" y="112"/>
      <point x="280" y="74"/>
      <point x="207" y="74" type="curve" smooth="yes"/>
      <point x="126" y="74"/>
      <point x="116" y="127"/>
    </contour>
    <contour>
      <point x="259" y="45" type="curve" smooth="yes"/>
      <point x="259" y="85"/>
      <point x="258" y="121"/>
      <point x="259" y="157" type="curve"/>
      <point x="156" y="157" type="line"/>
      <point x="155" y="112"/>
      <point x="156" y="70"/>
      <point x="156" y="28" type="curve" smooth="yes"/>
      <point x="156" y="-45"/>
      <point x="190" y="-106"/>
      <point x="338" y="-106" type="curve"/>
      <point x="351" y="-20" type="line"/>
      <point x="265" y="-20"/>
      <point x="259" y="5"/>
    </contour>
  </outline>
</glyph>
<glyph name="S" format="1">
  <advance width="465"/>
  <unicode hex="0053"/>
  <outline>
    <contour>
      <point x="364" y="522" type="curve"/>
      <point x="394" y="610" type="line"/>
      <point x="352" y="632"/>
      <point x="299" y="644"/>
      <point x="248" y="644" type="curve" smooth="yes"/>
      <point x="195" y="644"/>
      <point x="144" y="634"/>
      <point x="103" y="606" type="curve" smooth="yes"/>
      <point x="59" y="577"/>
      <point x="41" y="533"/>
      <point x="41" y="488" type="curve" smooth="yes"/>
      <point x="41" y="389"/>
      <point x="121" y="352"/>
      <point x="198" y="315" type="curve" smooth="yes"/>
      <point x="219" y="306"/>
      <point x="240" y="296"/>
      <point x="259" y="285" type="curve" smooth="yes"/>
      <point x="305" y="260"/>
      <point x="341" y="229"/>
      <point x="341" y="180" type="curve" smooth="yes"/>
      <point x="341" y="152"/>
      <point x="328" y="125"/>
      <point x="307" y="110" type="curve" smooth="yes"/>
      <point x="285" y="93"/>
      <point x="253" y="87"/>
      <point x="226" y="87" type="curve" smooth="yes"/>
      <point x="208" y="87"/>
      <point x="175" y="90"/>
      <point x="141" y="111" type="curve" smooth="yes"/>
      <point x="122" y="123"/>
      <point x="104" y="141"/>
      <point x="88" y="166" type="curve"/>
      <point x="11" y="115" type="line"/>
      <point x="38" y="74"/>
      <point x="60" y="50"/>
      <point x="91" y="28" type="curve" smooth="yes"/>
      <point x="133" y="-2"/>
      <point x="182" y="-11"/>
      <point x="224" y="-11" type="curve" smooth="yes"/>
      <point x="277" y="-11"/>
      <point x="332" y="-1"/>
      <point x="374" y="26" type="curve" smooth="yes"/>
      <point x="430" y="63"/>
      <point x="453" y="124"/>
      <point x="453" y="181" type="curve" smooth="yes"/>
      <point x="453" y="270"/>
      <point x="392" y="327"/>
      <point x="324" y="367" type="curve" smooth="yes"/>
      <point x="297" y="384"/>
      <point x="269" y="397"/>
      <point x="244" y="408" type="curve" smooth="yes"/>
      <point x="191" y="432"/>
      <point x="153" y="451"/>
      <point x="152" y="488" type="curve" smooth="yes"/>
      <point x="152" y="508"/>
      <point x="161" y="523"/>
      <point x="175" y="533" type="curve" smooth="yes"/>
      <point x="190" y="544"/>
      <point x="215" y="551"/>
      <point x="246" y="551" type="curve" smooth="yes"/>
      <point x="279" y="551"/>
      <point x="320" y="543"/>
    </contour>
  </outline>
</glyph>
<glyph name="T" format="1">
  <advance width="358"/>
  <unicode hex="0054"/>
  <outline>
    <contour>
      <point x="361" y="635" type="line"/>
      <point x="-5" y="635" type="line"/>
      <point x="-5" y="534" type="line"/>
      <point x="126" y="534" type="line"/>
      <point x="126" y="0" type="line"/>
      <point x="226" y="0" type="line"/>
      <point x="226" y="534" type="line"/>
      <point x="361" y="534" type="line"/>
    </contour>
  </outline>
</glyph>
<glyph name="V" format="1">
  <advance width="436"/>
  <unicode hex="0056"/>
  <outline>
    <contour>
      <point x="275" y="0" type="line"/>
      <point x="434" y="635" type="line"/>
      <point x="318" y="635" type="line"/>
      <point x="216" y="196" type="line"/>
      <point x="112" y="635" type="line"/>
      <point x="-1" y="635" type="line"/>
      <point x="158" y="0" type="line"/>
    </contour>
  </outline>
</glyph>
<glyph name="W" format="1">
  <advance width="641"/>
  <unicode hex="0057"/>
  <outline>
    <contour>
      <point x="188" y="229" type="line"/>
      <point x="113" y="635" type="line"/>
      <point x="3" y="635" type="line"/>
      <point x="125" y="0" type="line"/>
      <point x="241" y="0" type="line"/>
      <point x="320" y="321" type="line"/>
      <point x="401" y="0" type="line"/>
      <point x="514" y="0" type="line"/>
      <point x="636" y="635" type="line"/>
      <point x="521" y="635" type="line"/>
      <point x="453" y="229" type="line"/>
      <point x="356" y="635" type="line"/>
      <point x="285" y="635" type="line"/>
    </contour>
  </outline>
</glyph>
<glyph name="Y" format="1">
  <advance width="436"/>
  <unicode hex="0059"/>
  <outline>
    <contour>
      <point x="417" y="142" type="curve" smooth="yes"/>
      <point x="417" y="635" type="line"/>
      <point x="317" y="635" type="line"/>
      <point x="317" y="368" type="line" smooth="yes"/>
      <point x="317" y="341"/>
      <point x="305" y="315"/>
      <point x="287" y="298" type="curve" smooth="yes"/>
      <point x="269" y="282"/>
      <point x="247" y="273"/>
      <point x="222" y="273" type="curve" smooth="yes"/>
      <point x="189" y="273"/>
      <point x="161" y="281"/>
      <point x="144" y="297" type="curve" smooth="yes"/>
      <point x="123" y="316"/>
      <point x="113" y="345"/>
      <point x="113" y="384" type="curve" smooth="yes"/>
      <point x="113" y="635" type="line"/>
      <point x="13" y="635" type="line"/>
      <point x="13" y="375" type="line" smooth="yes"/>
      <point x="13" y="314"/>
      <point x="32" y="266"/>
      <point x="70" y="231" type="curve" smooth="yes"/>
      <point x="112" y="191"/>
      <point x="162" y="180"/>
      <point x="215" y="180" type="curve" smooth="yes"/>
      <point x="276" y="183"/>
      <point x="317" y="215"/>
      <point x="317" y="215" type="curve"/>
      <point x="317" y="149" type="line" smooth="yes"/>
      <point x="317" y="85"/>
      <point x="288" y="64"/>
      <point x="248" y="59" type="curve"/>
      <point x="280" y="-17" type="line"/>
      <point x="379" y="-7"/>
      <point x="417" y="46"/>
    </contour>
  </outline>
</glyph>
<glyph name="Z" format="1">
  <advance width="473"/>
  <unicode hex="005A"/>
  <outline>
    <contour>
      <point x="26" y="535" type="line"/>
      <point x="325" y="535" type="line"/>
      <point x="14" y="92" type="line"/>
      <point x="14" y="0" type="line"/>
      <point x="457" y="0" type="line"/>
      <point x="457" y="95" type="line"/>
      <point x="139" y="95" type="line"/>
      <point x="452" y="535" type="line"/>
      <point x="452" y="635" type="line"/>
      <point x="26" y="635" type="line"/>
    </contour>
  </outline>
</glyph>
<glyph name="bracketleft" format="1">
  <advance width="183"/>
  <unicode hex="005B"/>
  <outline>
    <contour>
      <point x="167" y="742" type="line"/>
      <point x="21" y="742" type="line"/>
      <point x="21" y="-104" type="line"/>
      <point x="167" y="-104" type="line"/>
      <point x="167" y="-8" type="line"/>
      <point x="121" y="1" type="line"/>
      <point x="121" y="637" type="line"/>
      <point x="167" y="646" type="line"/>
    </contour>
  </outline>
</glyph>
<glyph name="backslash" format="1">
  <advance width="429"/>
  <unicode hex="005C"/>
  <outline>
    <contour>
      <point x="122" y="742" type="line"/>
      <point x="13" y="742" type="line"/>
      <point x="310" y="-104" type="line"/>
      <point x="416" y="-104" type="line"/>
    </contour>
  </outline>
</glyph>
<glyph name="bracketright" format="1">
  <advance width="183"/>
  <unicode hex="005D"/>
  <outline>
    <contour>
      <point x="162" y="742" type="line"/>
      <point x="16" y="742" type="line"/>
      <point x="16" y="646" type="line"/>
      <point x="62" y="637" type="line"/>
      <point x="62" y="1" type="line"/>
      <point x="16" y="-8" type="line"/>
      <point x="16" y="-104" type="line"/>
      <point x="162" y="-104" type="line"/>
    </contour>
  </outline>
</glyph>
<glyph name="asciicircum" format="1">
  <advance width="345"/>
  <unicode hex="005E"/>
  <outline>
    <contour>
      <point x="319" y="702" type="line"/>
      <point x="203" y="816" type="line"/>
      <point x="83" y="701" type="line"/>
      <point x="130" y="653" type="line"/>
      <point x="203" y="728" type="line"/>
      <point x="270" y="654" type="line"/>
    </contour>
  </outline>
</glyph>
<glyph name="grave" format="1">
  <advance width="215"/>
  <unicode hex="0060"/>
  <outline>
    <contour>
      <point x="121" y="640" type="line"/>
      <point x="111" y="664"/>
      <point x="85" y="681"/>
      <point x="61" y="667" type="curve" smooth="yes"/>
      <point x="35" y="653"/>
      <point x="39" y="620"/>
      <point x="55" y="603" type="curve"/>
      <point x="108" y="534" type="line"/>
      <point x="148" y="534" type="line"/>
    </contour>
  </outline>
</glyph>
<glyph name="b" format="1">
  <advance width="383"/>
  <unicode hex="0062"/>
  <outline>
    <contour>
      <point x="120" y="438" type="curve"/>
      <point x="120" y="635" type="line"/>
      <point x="20" y="635" type="line"/>
      <point x="20" y="0" type="line"/>
      <point x="74" y="-4"/>
      <point x="127" y="-10"/>
      <point x="180" y="-10" type="curve" smooth="yes"/>
      <point x="284" y="-10"/>
      <point x="364" y="23"/>
      <point x="369" y="141" type="curve" smooth="yes"/>
      <point x="369" y="142"/>
      <point x="369" y="326"/>
      <point x="369" y="326" type="curve"/>
      <point x="369" y="419"/>
      <point x="302" y="462"/>
      <point x="234" y="462" type="curve" smooth="yes"/>
      <point x="193" y="462"/>
      <point x="159" y="455"/>
    </contour>
    <contour>
      <point x="120" y="85" type="curve"/>
      <point x="120" y="85"/>
      <point x="120" y="336"/>
      <point x="120" y="336" type="curve"/>
      <point x="130" y="343"/>
      <point x="164" y="358"/>
      <point x="206" y="358" type="curve" smooth="yes"/>
      <point x="234" y="358"/>
      <point x="269" y="347"/>
      <point x="269" y="314" type="curve" smooth="yes"/>
      <point x="269" y="295"/>
      <point x="269" y="175"/>
      <point x="269" y="158" type="curve" smooth="yes"/>
      <point x="269" y="112"/>
      <point x="257" y="83"/>
      <point x="174" y="83" type="curve" smooth="yes"/>
      <point x="159" y="83"/>
      <point x="120" y="85"/>
    </contour>
  </outline>
</glyph>
<glyph name="f" format="1">
  <advance width="219"/>
  <unicode hex="0066"/>
  <outline>
    <contour>
      <point x="193" y="551" type="curve"/>
      <point x="209" y="642" type="line"/>
      <point x="192" y="644"/>
      <point x="169" y="646"/>
      <point x="153" y="646" type="curve" smooth="yes"/>
      <point x="79" y="646"/>
      <point x="19" y="599"/>
      <point x="19" y="498" type="curve" smooth="yes"/>
      <point x="19" y="0" type="line"/>
      <point x="122" y="0" type="line"/>
      <point x="122" y="360" type="line"/>
      <point x="179" y="360" type="line"/>
      <point x="201" y="454" type="line"/>
      <point x="122" y="454" type="line"/>
      <point x="122" y="505"/>
      <point x="122" y="506"/>
      <point x="122" y="507" type="curve" smooth="yes"/>
      <point x="122" y="540"/>
      <point x="134" y="556"/>
      <point x="157" y="556" type="curve" smooth="yes"/>
      <point x="169" y="556"/>
      <point x="183" y="554"/>
    </contour>
  </outline>
</glyph>
<glyph name="g" format="1">
  <advance width="367"/>
  <unicode hex="0067"/>
  <outline>
    <contour>
      <point x="349" y="-58" type="curve" smooth="yes"/>
      <point x="349" y="454" type="line"/>
      <point x="249" y="454" type="line"/>
      <point x="249" y="434" type="line"/>
      <point x="221" y="453"/>
      <point x="190" y="463"/>
      <point x="156" y="463" type="curve" smooth="yes"/>
      <point x="63" y="463"/>
      <point x="13" y="405"/>
      <point x="13" y="314" type="curve" smooth="yes"/>
      <point x="13" y="160" type="line" smooth="yes"/>
      <point x="13" y="48"/>
      <point x="66" y="-11"/>
      <point x="167" y="-11" type="curve" smooth="yes"/>
      <point x="197" y="-11"/>
      <point x="228" y="-3"/>
      <point x="249" y="11" type="curve"/>
      <point x="249" y="-48" type="line" smooth="yes"/>
      <point x="249" y="-96"/>
      <point x="213" y="-113"/>
      <point x="183" y="-113" type="curve"/>
      <point x="207" y="-191" type="line"/>
      <point x="294" y="-191"/>
      <point x="349" y="-154"/>
    </contour>
    <contour>
      <point x="249" y="351" type="curve"/>
      <point x="249" y="126" type="line" smooth="yes"/>
      <point x="249" y="105"/>
      <point x="225" y="84"/>
      <point x="175" y="80" type="curve"/>
      <point x="133" y="80"/>
      <point x="113" y="109"/>
      <point x="113" y="145" type="curve" smooth="yes"/>
      <point x="113" y="306" type="line" smooth="yes"/>
      <point x="113" y="357"/>
      <point x="145" y="373"/>
      <point x="180" y="373" type="curve" smooth="yes"/>
      <point x="211" y="373"/>
      <point x="249" y="351"/>
    </contour>
  </outline>
</glyph>
<glyph name="h" format="1">
  <advance width="372"/>
  <unicode hex="0068"/>
  <outline>
    <contour>
      <point x="119" y="433" type="curve"/>
      <point x="119" y="635" type="line"/>
      <point x="20" y="635" type="line"/>
      <point x="20" y="0" type="line"/>
      <point x="119" y="0" type="line"/>
      <point x="119" y="351" type="line"/>
      <point x="148" y="365"/>
      <point x="171" y="372"/>
      <point x="192" y="372" type="curve" smooth="yes"/>
      <point x="230" y="372"/>
      <point x="257" y="346"/>
      <point x="257" y="312" type="curve" smooth="yes"/>
      <point x="257" y="0" type="line"/>
      <point x="356" y="0" type="line"/>
      <point x="356" y="314" type="line" smooth="yes"/>
      <point x="356" y="430"/>
      <point x="282" y="463"/>
      <point x="210" y="463" type="curve" smooth="yes"/>
      <point x="173" y="463"/>
      <point x="135" y="444"/>
    </contour>
  </outline>
</glyph>
<glyph name="i" format="1">
  <advance width="145"/>
  <unicode hex="0069"/>
  <outline>
    <contour>
      <point x="122" y="454" type="line"/>
      <point x="22" y="454" type="line"/>
      <point x="22" y="0" type="line"/>
      <point x="122" y="0" type="line"/>
    </contour>
    <contour>
      <point x="72" y="644" type="curve" smooth="yes"/>
      <point x="42" y="644"/>
      <point x="18" y="621"/>
      <point x="18" y="591" type="curve" smooth="yes"/>
      <point x="18" y="561"/>
      <point x="42" y="536"/>
      <point x="72" y="536" type="curve" smooth="yes"/>
      <point x="102" y="536"/>
      <point x="126" y="561"/>
      <point x="126" y="591" type="curve" smooth="yes"/>
      <point x="126" y="621"/>
      <point x="102" y="644"/>
    </contour>
  </outline>
</glyph>
<glyph name="j" format="1">
  <advance width="201"/>
  <unicode hex="006A"/>
  <outline>
    <contour>
      <point x="176" y="-55" type="curve" smooth="yes"/>
      <point x="176" y="454" type="line"/>
      <point x="10" y="454" type="line"/>
      <point x="10" y="373" type="line"/>
      <point x="76" y="364" type="line"/>
      <point x="76" y="-45" type="line" smooth="yes"/>
      <point x="76" y="-67"/>
      <point x="68" y="-83"/>
      <point x="57" y="-93" type="curve" smooth="yes"/>
      <point x="45" y="-105"/>
      <point x="32" y="-109"/>
      <point x="11" y="-114" type="curve"/>
      <point x="38" y="-195" type="line"/>
      <point x="65" y="-195"/>
      <point x="107" y="-184"/>
      <point x="133" y="-161" type="curve" smooth="yes"/>
      <point x="159" y="-137"/>
      <point x="176" y="-105"/>
    </contour>
    <contour>
      <point x="182" y="590" type="curve" smooth="yes"/>
      <point x="182" y="620"/>
      <point x="157" y="644"/>
      <point x="127" y="644" type="curve" smooth="yes"/>
      <point x="97" y="644"/>
      <point x="73" y="620"/>
      <point x="73" y="590" type="curve" smooth="yes"/>
      <point x="73" y="561"/>
      <point x="97" y="536"/>
      <point x="127" y="536" type="curve" smooth="yes"/>
      <point x="157" y="536"/>
      <point x="182" y="561"/>
    </contour>
  </outline>
</glyph>
<glyph name="k" format="1">
  <advance width="398"/>
  <unicode hex="006B"/>
  <outline>
    <contour>
      <point x="210" y="302" type="curve"/>
      <point x="329" y="403" type="line"/>
      <point x="256" y="472" type="line"/>
      <point x="120" y="347" type="line"/>
      <point x="120" y="635" type="line"/>
      <point x="20" y="635" type="line"/>
      <point x="20" y="0" type="line"/>
      <point x="120" y="0" type="line"/>
      <point x="120" y="218" type="line"/>
      <point x="133" y="231" type="line"/>
      <point x="269" y="0" type="line"/>
      <point x="395" y="0" type="line"/>
      <point x="360" y="55"/>
      <point x="298" y="155"/>
    </contour>
  </outline>
</glyph>
<glyph name="m" format="1">
  <advance width="619"/>
  <unicode hex="006D"/>
  <outline>
    <contour>
      <point x="503" y="310" type="curve" smooth="yes"/>
      <point x="503" y="0" type="line"/>
      <point x="603" y="0" type="line"/>
      <point x="603" y="313" type="line" smooth="yes"/>
      <point x="603" y="429"/>
      <point x="522" y="461"/>
      <point x="450" y="461" type="curve" smooth="yes"/>
      <point x="419" y="461"/>
      <point x="364" y="444"/>
      <point x="325" y="417" type="curve"/>
      <point x="295" y="450"/>
      <point x="251" y="461"/>
      <point x="208" y="461" type="curve" smooth="yes"/>
      <point x="171" y="461"/>
      <point x="133" y="442"/>
      <point x="118" y="432" type="curve"/>
      <point x="118" y="454" type="line"/>
      <point x="18" y="454" type="line"/>
      <point x="18" y="0" type="line"/>
      <point x="118" y="0" type="line"/>
      <point x="118" y="349" type="line"/>
      <point x="146" y="364"/>
      <point x="170" y="371"/>
      <point x="191" y="371" type="curve" smooth="yes"/>
      <point x="229" y="371"/>
      <point x="260" y="345"/>
      <point x="260" y="310" type="curve" smooth="yes"/>
      <point x="260" y="0" type="line"/>
      <point x="360" y="0" type="line"/>
      <point x="360" y="313" type="line" smooth="yes"/>
      <point x="360" y="326"/>
      <point x="359" y="338"/>
      <point x="357" y="349" type="curve"/>
      <point x="385" y="364"/>
      <point x="415" y="371"/>
      <point x="432" y="371" type="curve" smooth="yes"/>
      <point x="470" y="371"/>
      <point x="503" y="346"/>
    </contour>
  </outline>
</glyph>
<glyph name="n" format="1">
  <advance width="370"/>
  <unicode hex="006E"/>
  <outline>
    <contour>
      <point x="255" y="311" type="curve" smooth="yes"/>
      <point x="255" y="-1" type="line"/>
      <point x="354" y="-1" type="line"/>
      <point x="354" y="314" type="line" smooth="yes"/>
      <point x="354" y="430"/>
      <point x="280" y="462"/>
      <point x="208" y="462" type="curve" smooth="yes"/>
      <point x="171" y="462"/>
      <point x="133" y="443"/>
      <point x="117" y="433" type="curve"/>
      <point x="117" y="454" type="line"/>
      <point x="18" y="454" type="line"/>
      <point x="18" y="-1" type="line"/>
      <point x="117" y="-1" type="line"/>
      <point x="117" y="350" type="line"/>
      <point x="146" y="365"/>
      <point x="169" y="372"/>
      <point x="190" y="372" type="curve" smooth="yes"/>
      <point x="228" y="372"/>
      <point x="255" y="345"/>
    </contour>
  </outline>
</glyph>
<glyph name="o" format="1">
  <advance width="360"/>
  <unicode hex="006F"/>
  <outline>
    <contour>
      <point x="347" y="167" type="curve" smooth="yes"/>
      <point x="347" y="287" type="line" smooth="yes"/>
      <point x="347" y="397"/>
      <point x="287" y="464"/>
      <point x="182" y="464" type="curve" smooth="yes"/>
      <point x="72" y="464"/>
      <point x="12" y="403"/>
      <point x="12" y="287" type="curve" smooth="yes"/>
      <point x="12" y="167" type="line" smooth="yes"/>
      <point x="12" y="75"/>
      <point x="62" y="-9"/>
      <point x="182" y="-9" type="curve" smooth="yes"/>
      <point x="295" y="-9"/>
      <point x="347" y="65"/>
    </contour>
    <contour>
      <point x="245" y="293" type="curve" smooth="yes"/>
      <point x="245" y="160" type="line" smooth="yes"/>
      <point x="245" y="119"/>
      <point x="226" y="89"/>
      <point x="181" y="89" type="curve" smooth="yes"/>
      <point x="133" y="89"/>
      <point x="113" y="123"/>
      <point x="113" y="160" type="curve" smooth="yes"/>
      <point x="113" y="293" type="line" smooth="yes"/>
      <point x="113" y="339"/>
      <point x="137" y="364"/>
      <point x="181" y="364" type="curve" smooth="yes"/>
      <point x="224" y="364"/>
      <point x="245" y="336"/>
    </contour>
  </outline>
</glyph>
<glyph name="p" format="1">
  <advance width="368"/>
  <unicode hex="0070"/>
  <outline>
    <contour>
      <point x="354" y="160" type="curve" smooth="yes"/>
      <point x="354" y="314" type="line" smooth="yes"/>
      <point x="354" y="405"/>
      <point x="303" y="463"/>
      <point x="211" y="463" type="curve" smooth="yes"/>
      <point x="175" y="463"/>
      <point x="130" y="445"/>
      <point x="118" y="434" type="curve"/>
      <point x="118" y="454" type="line"/>
      <point x="18" y="454" type="line"/>
      <point x="18" y="-181" type="line"/>
      <point x="118" y="-194" type="line"/>
      <point x="118" y="11" type="line"/>
      <point x="139" y="-3"/>
      <point x="170" y="-11"/>
      <point x="200" y="-11" type="curve" smooth="yes"/>
      <point x="301" y="-11"/>
      <point x="354" y="48"/>
    </contour>
    <contour>
      <point x="254" y="306" type="curve" smooth="yes"/>
      <point x="254" y="145" type="line" smooth="yes"/>
      <point x="254" y="105"/>
      <point x="233" y="80"/>
      <point x="195" y="80" type="curve" smooth="yes"/>
      <point x="165" y="80"/>
      <point x="118" y="94"/>
      <point x="118" y="126" type="curve" smooth="yes"/>
      <point x="118" y="351" type="line"/>
      <point x="118" y="351"/>
      <point x="156" y="373"/>
      <point x="187" y="373" type="curve" smooth="yes"/>
      <point x="222" y="373"/>
      <point x="254" y="357"/>
    </contour>
  </outline>
</glyph>
<glyph name="q" format="1">
  <advance width="367"/>
  <unicode hex="0071"/>
  <outline>
    <contour>
      <point x="249" y="12" type="curve"/>
      <point x="249" y="-180" type="line"/>
      <point x="349" y="-193" type="line"/>
      <point x="349" y="454" type="line"/>
      <point x="249" y="454" type="line"/>
      <point x="249" y="434" type="line"/>
      <point x="222" y="453"/>
      <point x="191" y="464"/>
      <point x="158" y="464" type="curve" smooth="yes"/>
      <point x="64" y="464"/>
      <point x="13" y="407"/>
      <point x="13" y="314" type="curve" smooth="yes"/>
      <point x="13" y="160" type="line" smooth="yes"/>
      <point x="13" y="49"/>
      <point x="66" y="-10"/>
      <point x="167" y="-10" type="curve" smooth="yes"/>
      <point x="196" y="-10"/>
      <point x="227" y="-2"/>
    </contour>
    <contour>
      <point x="249" y="352" type="curve"/>
      <point x="249" y="127" type="line" smooth="yes"/>
      <point x="249" y="106"/>
      <point x="225" y="84"/>
      <point x="175" y="81" type="curve"/>
      <point x="131" y="81"/>
      <point x="113" y="111"/>
      <point x="113" y="146" type="curve" smooth="yes"/>
      <point x="113" y="307" type="line" smooth="yes"/>
      <point x="113" y="358"/>
      <point x="146" y="374"/>
      <point x="179" y="374" type="curve" smooth="yes"/>
      <point x="211" y="374"/>
      <point x="249" y="352"/>
    </contour>
  </outline>
</glyph>
<glyph name="r" format="1">
  <advance width="305"/>
  <unicode hex="0072"/>
  <outline>
    <contour>
      <point x="284" y="372" type="curve"/>
      <point x="298" y="454" type="line"/>
      <point x="279" y="461"/>
      <point x="254" y="467"/>
      <point x="226" y="467" type="curve" smooth="yes"/>
      <point x="187" y="467"/>
      <point x="148" y="455"/>
      <point x="118" y="435" type="curve"/>
      <point x="118" y="454" type="line"/>
      <point x="18" y="454" type="line"/>
      <point x="18" y="0" type="line"/>
      <point x="118" y="0" type="line"/>
      <point x="118" y="353" type="line"/>
      <point x="156" y="370"/>
      <point x="195" y="378"/>
      <point x="236" y="378" type="curve" smooth="yes"/>
      <point x="269" y="378"/>
      <point x="284" y="372"/>
    </contour>
  </outline>
</glyph>
<glyph name="t" format="1">
  <advance width="217"/>
  <unicode hex="0074"/>
  <outline>
    <contour>
      <point x="120" y="120" type="curve" smooth="yes"/>
      <point x="120" y="362" type="line"/>
      <point x="185" y="362" type="line"/>
      <point x="206" y="454" type="line"/>
      <point x="120" y="454" type="line"/>
      <point x="120" y="635" type="line"/>
      <point x="18" y="635" type="line"/>
      <point x="18" y="120" type="line" smooth="yes"/>
      <point x="18" y="34"/>
      <point x="65" y="-10"/>
      <point x="156" y="-12" type="curve"/>
      <point x="186" y="68" type="line"/>
      <point x="144" y="68"/>
      <point x="120" y="79"/>
    </contour>
  </outline>
</glyph>
<glyph name="u" format="1">
  <advance width="368"/>
  <unicode hex="0075"/>
  <outline>
    <contour>
      <point x="250" y="24" type="curve"/>
      <point x="250" y="0" type="line"/>
      <point x="350" y="0" type="line"/>
      <point x="350" y="455" type="line"/>
      <point x="250" y="455" type="line"/>
      <point x="250" y="159" type="line" smooth="yes"/>
      <point x="250" y="117"/>
      <point x="218" y="85"/>
      <point x="177" y="85" type="curve" smooth="yes"/>
      <point x="141" y="85"/>
      <point x="115" y="113"/>
      <point x="115" y="145" type="curve" smooth="yes"/>
      <point x="115" y="455" type="line"/>
      <point x="15" y="455" type="line"/>
      <point x="15" y="143" type="line" smooth="yes"/>
      <point x="15" y="26"/>
      <point x="89" y="-6"/>
      <point x="160" y="-6" type="curve" smooth="yes"/>
      <point x="198" y="-6"/>
      <point x="238" y="11"/>
    </contour>
  </outline>
</glyph>
<glyph name="v" format="1">
  <advance width="393"/>
  <unicode hex="0076"/>
  <outline>
    <contour>
      <point x="244" y="0" type="line"/>
      <point x="386" y="454" type="line"/>
      <point x="278" y="454" type="line"/>
      <point x="196" y="177" type="line"/>
      <point x="111" y="454" type="line"/>
      <point x="3" y="454" type="line"/>
      <point x="147" y="0" type="line"/>
    </contour>
  </outline>
</glyph>
<glyph name="w" format="1">
  <advance width="627"/>
  <unicode hex="0077"/>
  <outline>
    <contour>
      <point x="195" y="176" type="line"/>
      <point x="112" y="454" type="line"/>
      <point x="3" y="454" type="line"/>
      <point x="149" y="0" type="line"/>
      <point x="247" y="0" type="line"/>
      <point x="313" y="243" type="line"/>
      <point x="378" y="0" type="line"/>
      <point x="474" y="0" type="line"/>
      <point x="621" y="454" type="line"/>
      <point x="514" y="454" type="line"/>
      <point x="439" y="176" type="line"/>
      <point x="363" y="454" type="line"/>
      <point x="268" y="454" type="line"/>
    </contour>
  </outline>
</glyph>
<glyph name="x" format="1">
  <advance width="432"/>
  <unicode hex="0078"/>
  <outline>
    <contour>
      <point x="12" y="454" type="line"/>
      <point x="154" y="225" type="line"/>
      <point x="12" y="0" type="line"/>
      <point x="137" y="0" type="line"/>
      <point x="216" y="127" type="line"/>
      <point x="296" y="0" type="line"/>
      <point x="415" y="0" type="line"/>
      <point x="278" y="226" type="line"/>
      <point x="422" y="454" type="line"/>
      <point x="298" y="454" type="line"/>
      <point x="217" y="324" type="line"/>
      <point x="139" y="454" type="line"/>
    </contour>
  </outline>
</glyph>
<glyph name="y" format="1">
  <advance width="405"/>
  <unicode hex="0079"/>
  <outline>
    <contour>
      <point x="394" y="394" type="curve"/>
      <point x="363" y="464" type="line"/>
      <point x="281" y="464"/>
      <point x="251" y="407"/>
      <point x="251" y="356" type="curve" smooth="yes"/>
      <point x="251" y="160" type="line" smooth="yes"/>
      <point x="251" y="118"/>
      <point x="219" y="85"/>
      <point x="178" y="85" type="curve" smooth="yes"/>
      <point x="141" y="85"/>
      <point x="115" y="112"/>
      <point x="115" y="146" type="curve" smooth="yes"/>
      <point x="115" y="455" type="line"/>
      <point x="15" y="455" type="line"/>
      <point x="15" y="144" type="line" smooth="yes"/>
      <point x="15" y="27"/>
      <point x="88" y="-5"/>
      <point x="160" y="-5" type="curve" smooth="yes"/>
      <point x="198" y="-5"/>
      <point x="239" y="12"/>
      <point x="251" y="25" type="curve"/>
      <point x="251" y="-44" type="line" smooth="yes"/>
      <point x="251" y="-65"/>
      <point x="245" y="-81"/>
      <point x="233" y="-92" type="curve" smooth="yes"/>
      <point x="220" y="-104"/>
      <point x="203" y="-113"/>
      <point x="187" y="-113" type="curve"/>
      <point x="214" y="-194" type="line"/>
      <point x="244" y="-194"/>
      <point x="283" y="-181"/>
      <point x="307" y="-163" type="curve"/>
      <point x="337" y="-143"/>
      <point x="351" y="-105"/>
      <point x="351" y="-54" type="curve" smooth="yes"/>
      <point x="351" y="329" type="line" smooth="yes"/>
      <point x="351" y="359"/>
      <point x="358" y="386"/>
    </contour>
  </outline>
</glyph>
<glyph name="z" format="1">
  <advance width="362"/>
  <unicode hex="007A"/>
  <outline>
    <contour>
      <point x="22" y="361" type="line"/>
      <point x="204" y="361" type="line"/>
      <point x="14" y="95" type="line"/>
      <point x="14" y="0" type="line"/>
      <point x="348" y="0" type="line"/>
      <point x="348" y="95" type="line"/>
      <point x="148" y="95" type="line"/>
      <point x="339" y="364" type="line"/>
      <point x="339" y="454" type="line"/>
      <point x="22" y="454" type="line"/>
    </contour>
  </outline>
</glyph>
<glyph name="braceleft" format="1">
  <advance width="247"/>
  <unicode hex="007B"/>
  <outline>
    <contour>
      <point x="188" y="469" type="curve" smooth="yes"/>
      <point x="188" y="572" type="line" smooth="yes"/>
      <point x="188" y="640"/>
      <point x="211" y="659"/>
      <point x="234" y="672" type="curve"/>
      <point x="188" y="746" type="line"/>
      <point x="184" y="745"/>
      <point x="89" y="718"/>
      <point x="89" y="572" type="curve" smooth="yes"/>
      <point x="89" y="469" type="line" smooth="yes"/>
      <point x="89" y="417"/>
      <point x="83" y="372"/>
      <point x="25" y="327" type="curve" smooth="yes"/>
      <point x="16" y="320" type="line"/>
      <point x="25" y="314" type="line"/>
      <point x="83" y="269"/>
      <point x="89" y="223"/>
      <point x="89" y="172" type="curve" smooth="yes"/>
      <point x="89" y="69" type="line" smooth="yes"/>
      <point x="89" y="-76"/>
      <point x="183" y="-105"/>
      <point x="188" y="-106" type="curve"/>
      <point x="234" y="-31" type="line"/>
      <point x="211" y="-18"/>
      <point x="188" y="1"/>
      <point x="188" y="69" type="curve" smooth="yes"/>
      <point x="188" y="172" type="line" smooth="yes"/>
      <point x="188" y="224"/>
      <point x="184" y="274"/>
      <point x="128" y="320" type="curve"/>
      <point x="184" y="367"/>
      <point x="188" y="417"/>
    </contour>
  </outline>
</glyph>
<glyph name="braceright" format="1">
  <advance width="249"/>
  <unicode hex="007D"/>
  <outline>
    <contour>
      <point x="60" y="746" type="curve"/>
      <point x="14" y="672" type="line"/>
      <point x="37" y="659"/>
      <point x="60" y="640"/>
      <point x="60" y="572" type="curve" smooth="yes"/>
      <point x="60" y="469" type="line" smooth="yes"/>
      <point x="60" y="417"/>
      <point x="64" y="367"/>
      <point x="120" y="320" type="curve"/>
      <point x="64" y="274"/>
      <point x="60" y="224"/>
      <point x="60" y="172" type="curve" smooth="yes"/>
      <point x="60" y="69" type="line" smooth="yes"/>
      <point x="60" y="1"/>
      <point x="37" y="-18"/>
      <point x="14" y="-31" type="curve"/>
      <point x="60" y="-106" type="line"/>
      <point x="65" y="-105"/>
      <point x="160" y="-76"/>
      <point x="160" y="69" type="curve" smooth="yes"/>
      <point x="160" y="172" type="line" smooth="yes"/>
      <point x="160" y="223"/>
      <point x="165" y="269"/>
      <point x="223" y="314" type="curve"/>
      <point x="232" y="320" type="line"/>
      <point x="222" y="327" type="line"/>
      <point x="165" y="372"/>
      <point x="160" y="417"/>
      <point x="160" y="469" type="curve" smooth="yes"/>
      <point x="160" y="572" type="line" smooth="yes"/>
      <point x="160" y="718"/>
      <point x="64" y="745"/>
    </contour>
  </outline>
</glyph>
<glyph name="asciitilde" format="1">
  <advance width="321"/>
  <unicode hex="007E"/>
  <outline>
    <contour>
      <point x="304" y="272" type="curve"/>
      <point x="274" y="323" type="line"/>
      <point x="252" y="306"/>
      <point x="233" y="301"/>
      <point x="216" y="301" type="curve" smooth="yes"/>
      <point x="178" y="301"/>
      <point x="145" y="327"/>
      <point x="103" y="327" type="curve" smooth="yes"/>
      <point x="69" y="327"/>
      <point x="41" y="310"/>
      <point x="16" y="290" type="curve"/>
      <point x="46" y="239" type="line"/>
      <point x="68" y="254"/>
      <point x="88" y="260"/>
      <point x="106" y="260" type="curve" smooth="yes"/>
      <point x="144" y="259"/>
      <point x="176" y="234"/>
      <point x="215" y="233" type="curve" smooth="yes"/>
      <point x="252" y="233"/>
      <point x="280" y="251"/>
    </contour>
  </outline>
</glyph>
<glyph name="exclamdown" format="1">
  <advance width="143"/>
  <unicode hex="00A1"/>
  <outline>
    <contour>
      <point x="124" y="62" type="curve" smooth="yes"/>
      <point x="104" y="535" type="line"/>
      <point x="35" y="535" type="line"/>
      <point x="18" y="63" type="line"/>
      <point x="18" y="21"/>
      <point x="35" y="0"/>
      <point x="69" y="0" type="curve" smooth="yes"/>
      <point x="105" y="0"/>
      <point x="124" y="21"/>
    </contour>
    <contour>
      <point x="125" y="604" type="curve" smooth="yes"/>
      <point x="125" y="634"/>
      <point x="101" y="658"/>
      <point x="71" y="658" type="curve" smooth="yes"/>
      <point x="42" y="658"/>
      <point x="17" y="634"/>
      <point x="17" y="604" type="curve" smooth="yes"/>
      <point x="17" y="574"/>
      <point x="42" y="550"/>
      <point x="71" y="550" type="curve" smooth="yes"/>
      <point x="101" y="550"/>
      <point x="125" y="574"/>
    </contour>
  </outline>
</glyph>
<glyph name="cent" format="1">
  <advance width="326"/>
  <unicode hex="00A2"/>
  <outline>
    <contour>
      <point x="285" y="356" type="curve"/>
      <point x="308" y="434" type="line"/>
      <point x="255" y="457"/>
      <point x="197" y="471"/>
      <point x="143" y="459" type="curve" smooth="yes"/>
      <point x="102" y="450"/>
      <point x="66" y="428"/>
      <point x="43" y="388" type="curve" smooth="yes"/>
      <point x="25" y="359"/>
      <point x="19" y="330"/>
      <point x="17" y="290" type="curve"/>
      <point x="17" y="157" type="line" smooth="yes"/>
      <point x="17" y="68"/>
      <point x="57" y="21"/>
      <point x="119" y="1" type="curve" smooth="yes"/>
      <point x="183" y="-18"/>
      <point x="251" y="-11"/>
      <point x="310" y="5" type="curve"/>
      <point x="292" y="85" type="line"/>
      <point x="292" y="85"/>
      <point x="250" y="76"/>
      <point x="210" y="76" type="curve" smooth="yes"/>
      <point x="155" y="76"/>
      <point x="116" y="103"/>
      <point x="116" y="158" type="curve" smooth="yes"/>
      <point x="116" y="301" type="line" smooth="yes"/>
      <point x="116" y="319"/>
      <point x="121" y="334"/>
      <point x="128" y="345" type="curve" smooth="yes"/>
      <point x="139" y="362"/>
      <point x="158" y="372"/>
      <point x="179" y="375" type="curve"/>
      <point x="214" y="382"/>
      <point x="254" y="371"/>
    </contour>
    <contour>
      <point x="260" y="566" type="line"/>
      <point x="164" y="566" type="line"/>
      <point x="164" y="-103" type="line"/>
      <point x="260" y="-103" type="line"/>
    </contour>
  </outline>
</glyph>
<glyph name="sterling" format="1">
  <advance width="363"/>
  <unicode hex="00A3"/>
  <outline>
    <contour>
      <point x="108" y="91" type="curve"/>
      <point x="18" y="91" type="line"/>
      <point x="18" y="0" type="line"/>
      <point x="345" y="0" type="line"/>
      <point x="345" y="91" type="line"/>
      <point x="251" y="91" type="line"/>
      <point x="258" y="98"/>
      <point x="265" y="105"/>
      <point x="271" y="114" type="curve" smooth="yes"/>
      <point x="305" y="165"/>
      <point x="296" y="229"/>
      <point x="276" y="283" type="curve" smooth="yes"/>
      <point x="273" y="292"/>
      <point x="269" y="300"/>
      <point x="264" y="309" type="curve"/>
      <point x="345" y="309" type="line"/>
      <point x="345" y="403" type="line"/>
      <point x="205" y="403" type="line"/>
      <point x="196" y="413"/>
      <point x="188" y="423"/>
      <point x="182" y="433" type="curve"/>
      <point x="158" y="467"/>
      <point x="148" y="498"/>
      <point x="148" y="514" type="curve" smooth="yes"/>
      <point x="148" y="540"/>
      <point x="177" y="548"/>
      <point x="197" y="548" type="curve" smooth="yes"/>
      <point x="233" y="548"/>
      <point x="261" y="540"/>
      <point x="284" y="529" type="curve"/>
      <point x="315" y="611" type="line"/>
      <point x="285" y="632"/>
      <point x="234" y="644"/>
      <point x="202" y="644" type="curve" smooth="yes"/>
      <point x="119" y="644"/>
      <point x="45" y="601"/>
      <point x="41" y="517" type="curve"/>
      <point x="41" y="484"/>
      <point x="53" y="452"/>
      <point x="70" y="421" type="curve" smooth="yes"/>
      <point x="74" y="414"/>
      <point x="77" y="408"/>
      <point x="81" y="403" type="curve"/>
      <point x="18" y="403" type="line"/>
      <point x="18" y="309" type="line"/>
      <point x="142" y="309" type="line"/>
      <point x="145" y="303"/>
      <point x="149" y="298"/>
      <point x="152" y="294" type="curve"/>
      <point x="186" y="239"/>
      <point x="208" y="172"/>
      <point x="165" y="119" type="curve" smooth="yes"/>
      <point x="150" y="102"/>
      <point x="127" y="94"/>
    </contour>
  </outline>
</glyph>
<glyph name="currency" format="1">
  <advance width="426"/>
  <unicode hex="00A4"/>
  <outline>
    <contour>
      <point x="330" y="317" type="curve"/>
      <point x="409" y="395" type="line"/>
      <point x="351" y="453" type="line"/>
      <point x="273" y="374" type="line"/>
      <point x="255" y="384"/>
      <point x="235" y="389"/>
      <point x="213" y="389" type="curve" smooth="yes"/>
      <point x="191" y="389"/>
      <point x="171" y="384"/>
      <point x="153" y="374" type="curve"/>
      <point x="75" y="453" type="line"/>
      <point x="17" y="395" type="line"/>
      <point x="95" y="316" type="line"/>
      <point x="86" y="299"/>
      <point x="81" y="278"/>
      <point x="81" y="257" type="curve" smooth="yes"/>
      <point x="81" y="235"/>
      <point x="86" y="215"/>
      <point x="95" y="197" type="curve"/>
      <point x="17" y="119" type="line"/>
      <point x="75" y="62" type="line"/>
      <point x="153" y="140" type="line"/>
      <point x="171" y="131"/>
      <point x="191" y="125"/>
      <point x="213" y="125" type="curve" smooth="yes"/>
      <point x="234" y="125"/>
      <point x="255" y="130"/>
      <point x="272" y="139" type="curve"/>
      <point x="351" y="62" type="line"/>
      <point x="409" y="119" type="line"/>
      <point x="330" y="197" type="line"/>
      <point x="340" y="215"/>
      <point x="345" y="235"/>
      <point x="345" y="257" type="curve" smooth="yes"/>
      <point x="345" y="279"/>
      <point x="340" y="299"/>
    </contour>
    <contour>
      <point x="213" y="210" type="curve" smooth="yes"/>
      <point x="187" y="210"/>
      <point x="166" y="231"/>
      <point x="166" y="257" type="curve" smooth="yes"/>
      <point x="166" y="284"/>
      <point x="187" y="304"/>
      <point x="213" y="304" type="curve" smooth="yes"/>
      <point x="240" y="304"/>
      <point x="260" y="284"/>
      <point x="260" y="257" type="curve" smooth="yes"/>
      <point x="260" y="231"/>
      <point x="240" y="210"/>
    </contour>
  </outline>
</glyph>
<glyph name="yen" format="1">
  <advance width="458"/>
  <unicode hex="00A5"/>
  <outline>
    <contour>
      <point x="178" y="136" type="line"/>
      <point x="83" y="136" type="line"/>
      <point x="83" y="41" type="line"/>
      <point x="178" y="41" type="line"/>
      <point x="178" y="0" type="line"/>
      <point x="279" y="0" type="line"/>
      <point x="279" y="41" type="line"/>
      <point x="374" y="41" type="line"/>
      <point x="374" y="136" type="line"/>
      <point x="279" y="136" type="line"/>
      <point x="279" y="180" type="line"/>
      <point x="374" y="180" type="line"/>
      <point x="374" y="274" type="line"/>
      <point x="279" y="274" type="line"/>
      <point x="279" y="286" type="line"/>
      <point x="443" y="635" type="line"/>
      <point x="337" y="635" type="line"/>
      <point x="228" y="394" type="line"/>
      <point x="120" y="635" type="line"/>
      <point x="14" y="635" type="line"/>
      <point x="178" y="286" type="line"/>
      <point x="178" y="274" type="line"/>
      <point x="83" y="274" type="line"/>
      <point x="83" y="180" type="line"/>
      <point x="178" y="180" type="line"/>
    </contour>
  </outline>
</glyph>
<glyph name="dieresis" format="1">
  <advance width="361"/>
  <unicode hex="00A8"/>
  <outline>
    <contour>
      <point x="27" y="697" type="curve" smooth="yes"/>
      <point x="-3" y="697"/>
      <point x="-27" y="673"/>
      <point x="-27" y="644" type="curve" smooth="yes"/>
      <point x="-27" y="614"/>
      <point x="-3" y="589"/>
      <point x="27" y="589" type="curve" smooth="yes"/>
      <point x="57" y="589"/>
      <point x="81" y="614"/>
      <point x="81" y="644" type="curve" smooth="yes"/>
      <point x="81" y="673"/>
      <point x="57" y="697"/>
    </contour>
    <contour>
      <point x="171" y="697" type="curve" smooth="yes"/>
      <point x="141" y="697"/>
      <point x="116" y="673"/>
      <point x="116" y="644" type="curve" smooth="yes"/>
      <point x="116" y="614"/>
      <point x="141" y="589"/>
      <point x="171" y="589" type="curve" smooth="yes"/>
      <point x="201" y="589"/>
      <point x="225" y="614"/>
      <point x="225" y="644" type="curve" smooth="yes"/>
      <point x="225" y="673"/>
      <point x="201" y="697"/>
    </contour>
  </outline>
</glyph>
<glyph name="copyright" format="1">
  <advance width="688"/>
  <unicode hex="00A9"/>
  <outline>
    <contour>
      <point x="670" y="168" type="curve" smooth="yes"/>
      <point x="670" y="296" type="line" smooth="yes"/>
      <point x="670" y="464"/>
      <point x="534" y="547"/>
      <point x="344" y="548" type="curve" smooth="yes"/>
      <point x="153" y="547"/>
      <point x="17" y="464"/>
      <point x="17" y="296" type="curve" smooth="yes"/>
      <point x="17" y="168" type="line" smooth="yes"/>
      <point x="17" y="0"/>
      <point x="153" y="-83"/>
      <point x="344" y="-85" type="curve" smooth="yes"/>
      <point x="534" y="-83"/>
      <point x="670" y="0"/>
    </contour>
    <contour>
      <point x="577" y="263" type="curve" smooth="yes"/>
      <point x="577" y="202" type="line" smooth="yes"/>
      <point x="577" y="40"/>
      <point x="510" y="8"/>
      <point x="344" y="6" type="curve" smooth="yes"/>
      <point x="177" y="8"/>
      <point x="110" y="40"/>
      <point x="110" y="202" type="curve" smooth="yes"/>
      <point x="110" y="263" type="line" smooth="yes"/>
      <point x="110" y="424"/>
      <point x="177" y="455"/>
      <point x="344" y="457" type="curve" smooth="yes"/>
      <point x="510" y="455"/>
      <point x="577" y="424"/>
    </contour>
    <contour>
      <point x="459" y="301" type="curve"/>
      <point x="485" y="383" type="line"/>
      <point x="448" y="401"/>
      <point x="403" y="413"/>
      <point x="358" y="414" type="curve" smooth="yes"/>
      <point x="313" y="414"/>
      <point x="268" y="402"/>
      <point x="235" y="373" type="curve" smooth="yes"/>
      <point x="201" y="344"/>
      <point x="179" y="297"/>
      <point x="179" y="226" type="curve" smooth="yes"/>
      <point x="179" y="164"/>
      <point x="199" y="120"/>
      <point x="233" y="91" type="curve" smooth="yes"/>
      <point x="265" y="64"/>
      <point x="308" y="51"/>
      <point x="358" y="51" type="curve" smooth="yes"/>
      <point x="405" y="51"/>
      <point x="456" y="63"/>
      <point x="507" y="83" type="curve"/>
      <point x="492" y="177" type="line"/>
      <point x="492" y="177"/>
      <point x="416" y="148"/>
      <point x="359" y="148" type="curve" smooth="yes"/>
      <point x="337" y="148"/>
      <point x="316" y="152"/>
      <point x="301" y="165" type="curve" smooth="yes"/>
      <point x="287" y="178"/>
      <point x="279" y="204"/>
      <point x="279" y="232" type="curve" smooth="yes"/>
      <point x="279" y="258"/>
      <point x="287" y="283"/>
      <point x="302" y="297" type="curve" smooth="yes"/>
      <point x="317" y="311"/>
      <point x="340" y="318"/>
      <point x="372" y="318" type="curve" smooth="yes"/>
      <point x="415" y="318"/>
      <point x="459" y="301"/>
    </contour>
  </outline>
</glyph>
<glyph name="ordfeminine" format="1">
  <advance width="265"/>
  <unicode hex="00AA"/>
  <outline>
    <contour>
      <point x="251" y="355" type="curve"/>
      <point x="251" y="354"/>
      <point x="251" y="504"/>
      <point x="251" y="504" type="curve"/>
      <point x="251" y="561"/>
      <point x="241" y="602"/>
      <point x="211" y="625" type="curve" smooth="yes"/>
      <point x="180" y="649"/>
      <point x="133" y="648"/>
      <point x="100" y="644" type="curve"/>
      <point x="91" y="588" type="line"/>
      <point x="106" y="590"/>
      <point x="119" y="591"/>
      <point x="129" y="591" type="curve" smooth="yes"/>
      <point x="171" y="591"/>
      <point x="171" y="576"/>
      <point x="171" y="554" type="curve"/>
      <point x="148" y="567"/>
      <point x="124" y="574"/>
      <point x="102" y="574" type="curve" smooth="yes"/>
      <point x="41" y="573"/>
      <point x="7" y="528"/>
      <point x="6" y="471" type="curve"/>
      <point x="6" y="369"/>
      <point x="61" y="344"/>
      <point x="141" y="344" type="curve" smooth="yes"/>
      <point x="172" y="344"/>
      <point x="211" y="349"/>
    </contour>
    <contour>
      <point x="171" y="485" type="curve"/>
      <point x="171" y="418" type="line"/>
      <point x="162" y="418"/>
      <point x="152" y="416"/>
      <point x="138" y="416" type="curve" smooth="yes"/>
      <point x="112" y="416"/>
      <point x="83" y="424"/>
      <point x="82" y="461" type="curve" smooth="yes"/>
      <point x="82" y="485"/>
      <point x="92" y="505"/>
      <point x="115" y="505" type="curve" smooth="yes"/>
      <point x="135" y="505"/>
      <point x="156" y="494"/>
    </contour>
  </outline>
</glyph>
<glyph name="sfthyphen" format="1">
  <advance width="399"/>
  <unicode hex="00AD"/>
  <outline>
    <contour>
      <point x="328" y="375" type="line"/>
      <point x="38" y="375" type="line"/>
      <point x="38" y="278" type="line"/>
      <point x="328" y="278" type="line"/>
    </contour>
  </outline>
</glyph>
<glyph name="registered" format="1">
  <advance width="688"/>
  <unicode hex="00AE"/>
  <outline>
    <contour>
      <point x="670" y="168" type="curve" smooth="yes"/>
      <point x="670" y="296" type="line" smooth="yes"/>
      <point x="670" y="464"/>
      <point x="534" y="547"/>
      <point x="343" y="548" type="curve" smooth="yes"/>
      <point x="152" y="547"/>
      <point x="17" y="464"/>
      <point x="17" y="296" type="curve" smooth="yes"/>
      <point x="17" y="168" type="line" smooth="yes"/>
      <point x="17" y="0"/>
      <point x="152" y="-83"/>
      <point x="343" y="-85" type="curve" smooth="yes"/>
      <point x="534" y="-83"/>
      <point x="670" y="0"/>
    </contour>
    <contour>
      <point x="577" y="262" type="curve" smooth="yes"/>
      <point x="577" y="202" type="line" smooth="yes"/>
      <point x="577" y="40"/>
      <point x="509" y="8"/>
      <point x="343" y="6" type="curve" smooth="yes"/>
      <point x="177" y="8"/>
      <point x="110" y="40"/>
      <point x="110" y="202" type="curve" smooth="yes"/>
      <point x="110" y="262" type="line" smooth="yes"/>
      <point x="110" y="424"/>
      <point x="177" y="455"/>
      <point x="343" y="457" type="curve" smooth="yes"/>
      <point x="509" y="455"/>
      <point x="577" y="424"/>
    </contour>
    <contour>
      <point x="198" y="403" type="line"/>
      <point x="198" y="55" type="line"/>
      <point x="298" y="55" type="line"/>
      <point x="298" y="116" type="line"/>
      <point x="365" y="116" type="line"/>
      <point x="394" y="55" type="line"/>
      <point x="508" y="55" type="line"/>
      <point x="460" y="136" type="line"/>
      <point x="492" y="157"/>
      <point x="506" y="196"/>
      <point x="506" y="257" type="curve" smooth="yes"/>
      <point x="506" y="361"/>
      <point x="472" y="403"/>
      <point x="376" y="403" type="curve" smooth="yes"/>
    </contour>
    <contour>
      <point x="369" y="212" type="curve" smooth="yes"/>
      <point x="298" y="212" type="line"/>
      <point x="298" y="303" type="line"/>
      <point x="368" y="303" type="line" smooth="yes"/>
      <point x="388" y="303"/>
      <point x="407" y="300"/>
      <point x="407" y="257" type="curve" smooth="yes"/>
      <point x="407" y="215"/>
      <point x="389" y="212"/>
    </contour>
  </outline>
</glyph>
<glyph name="degree" format="1">
  <advance width="296"/>
  <unicode hex="00B0"/>
  <outline>
    <contour>
      <point x="280" y="513" type="curve" smooth="yes"/>
      <point x="280" y="586"/>
      <point x="221" y="645"/>
      <point x="147" y="645" type="curve" smooth="yes"/>
      <point x="74" y="645"/>
      <point x="15" y="586"/>
      <point x="15" y="513" type="curve" smooth="yes"/>
      <point x="15" y="440"/>
      <point x="74" y="381"/>
      <point x="147" y="381" type="curve" smooth="yes"/>
      <point x="221" y="381"/>
      <point x="280" y="440"/>
    </contour>
    <contour>
      <point x="147" y="561" type="curve" smooth="yes"/>
      <point x="173" y="561"/>
      <point x="195" y="539"/>
      <point x="195" y="513" type="curve" smooth="yes"/>
      <point x="195" y="487"/>
      <point x="173" y="465"/>
      <point x="147" y="465" type="curve" smooth="yes"/>
      <point x="121" y="465"/>
      <point x="100" y="487"/>
      <point x="100" y="513" type="curve" smooth="yes"/>
      <point x="100" y="539"/>
      <point x="121" y="561"/>
    </contour>
  </outline>
</glyph>
<glyph name="plusminus" format="1">
  <advance width="327"/>
  <unicode hex="00B1"/>
  <outline>
    <contour>
      <point x="113" y="224" type="line"/>
      <point x="17" y="224" type="line"/>
      <point x="17" y="133" type="line"/>
      <point x="308" y="133" type="line"/>
      <point x="308" y="224" type="line"/>
      <point x="214" y="224" type="line"/>
      <point x="214" y="317" type="line"/>
      <point x="309" y="317" type="line"/>
      <point x="309" y="413" type="line"/>
      <point x="214" y="413" type="line"/>
      <point x="214" y="513" type="line"/>
      <point x="113" y="513" type="line"/>
      <point x="113" y="413" type="line"/>
      <point x="18" y="413" type="line"/>
      <point x="18" y="317" type="line"/>
      <point x="113" y="317" type="line"/>
    </contour>
  </outline>
</glyph>
<glyph name="acute" format="1">
  <advance width="215"/>
  <unicode hex="00B4"/>
  <outline>
    <contour>
      <point x="138" y="610" type="line"/>
      <point x="155" y="630"/>
      <point x="155" y="661"/>
      <point x="132" y="674" type="curve" smooth="yes"/>
      <point x="108" y="688"/>
      <point x="79" y="671"/>
      <point x="73" y="647" type="curve" smooth="yes"/>
      <point x="45" y="542" type="line"/>
      <point x="85" y="542" type="line"/>
    </contour>
  </outline>
</glyph>
<glyph name="paragraph" format="1">
  <advance width="585"/>
  <unicode hex="00B6"/>
  <outline>
    <contour>
      <point x="310" y="177" type="line"/>
      <point x="310" y="1" type="line"/>
      <point x="410" y="1" type="line"/>
      <point x="410" y="540" type="line"/>
      <point x="464" y="538" type="line"/>
      <point x="464" y="1" type="line"/>
      <point x="564" y="1" type="line"/>
      <point x="564" y="636" type="line"/>
      <point x="213" y="636" type="line" smooth="yes"/>
      <point x="118" y="636"/>
      <point x="16" y="589"/>
      <point x="16" y="411" type="curve" smooth="yes"/>
      <point x="16" y="215"/>
      <point x="116" y="177"/>
      <point x="213" y="177" type="curve" smooth="yes"/>
    </contour>
    <contour>
      <point x="250" y="536" type="curve" smooth="yes"/>
      <point x="310" y="536" type="line"/>
      <point x="310" y="273" type="line"/>
      <point x="250" y="273" type="line" smooth="yes"/>
      <point x="157" y="273"/>
      <point x="116" y="289"/>
      <point x="116" y="411" type="curve" smooth="yes"/>
      <point x="116" y="525"/>
      <point x="158" y="536"/>
    </contour>
  </outline>
</glyph>
<glyph name="cedilla" format="1">
  <advance width="308"/>
  <unicode hex="00B8"/>
  <outline>
    <contour>
      <point x="99" y="0" type="line"/>
      <point x="39" y="0" type="line"/>
      <point x="-3" y="-68" type="line"/>
      <point x="14" y="-104" type="line"/>
      <point x="51" y="-101"/>
      <point x="77" y="-97"/>
      <point x="95" y="-97" type="curve" smooth="yes"/>
      <point x="118" y="-97"/>
      <point x="127" y="-109"/>
      <point x="127" y="-125" type="curve" smooth="yes"/>
      <point x="127" y="-141"/>
      <point x="117" y="-153"/>
      <point x="92" y="-153" type="curve" smooth="yes"/>
      <point x="53" y="-153"/>
      <point x="2" y="-144"/>
      <point x="1" y="-144" type="curve"/>
      <point x="-4" y="-170"/>
      <point x="-6" y="-178"/>
      <point x="-11" y="-203" type="curve"/>
      <point x="-9" y="-204"/>
      <point x="38" y="-214"/>
      <point x="82" y="-214" type="curve" smooth="yes"/>
      <point x="156" y="-214"/>
      <point x="188" y="-175"/>
      <point x="188" y="-121" type="curve" smooth="yes"/>
      <point x="188" y="-78"/>
      <point x="157" y="-36"/>
      <point x="102" y="-36" type="curve" smooth="yes"/>
      <point x="98" y="-36"/>
      <point x="94" y="-37"/>
      <point x="77" y="-38" type="curve"/>
    </contour>
  </outline>
</glyph>
<glyph name="guillemotright" format="1">
  <advance width="469"/>
  <unicode hex="00BB"/>
  <outline>
    <contour>
      <point x="82" y="73" type="line"/>
      <point x="252" y="243" type="line"/>
      <point x="82" y="413" type="line"/>
      <point x="16" y="348" type="line"/>
      <point x="125" y="243" type="line"/>
      <point x="17" y="135" type="line"/>
    </contour>
    <contour>
      <point x="282" y="73" type="line"/>
      <point x="452" y="243" type="line"/>
      <point x="282" y="413" type="line"/>
      <point x="216" y="348" type="line"/>
      <point x="325" y="243" type="line"/>
      <point x="217" y="135" type="line"/>
    </contour>
  </outline>
</glyph>
<glyph name="questiondown" format="1">
  <advance width="368"/>
  <unicode hex="00BF"/>
  <outline>
    <contour>
      <point x="351" y="146" type="curve"/>
      <point x="250" y="146" type="line"/>
      <point x="248" y="105"/>
      <point x="221" y="81"/>
      <point x="183" y="81" type="curve"/>
      <point x="151" y="83"/>
      <point x="117" y="106"/>
      <point x="117" y="152" type="curve" smooth="yes"/>
      <point x="117" y="192"/>
      <point x="149" y="224"/>
      <point x="180" y="264" type="curve" smooth="yes"/>
      <point x="214" y="307"/>
      <point x="250" y="358"/>
      <point x="250" y="436" type="curve" smooth="yes"/>
      <point x="250" y="521" type="line"/>
      <point x="151" y="521" type="line"/>
      <point x="151" y="454"/>
      <point x="151" y="447"/>
      <point x="151" y="439" type="curve"/>
      <point x="148" y="374"/>
      <point x="135" y="351"/>
      <point x="87" y="298" type="curve" smooth="yes"/>
      <point x="48" y="254"/>
      <point x="16" y="215"/>
      <point x="16" y="155" type="curve" smooth="yes"/>
      <point x="16" y="50"/>
      <point x="100" y="-9"/>
      <point x="184" y="-14" type="curve"/>
      <point x="290" y="-14"/>
      <point x="350" y="53"/>
    </contour>
    <contour>
      <point x="200" y="644" type="curve" smooth="yes"/>
      <point x="170" y="644"/>
      <point x="146" y="620"/>
      <point x="146" y="590" type="curve" smooth="yes"/>
      <point x="146" y="560"/>
      <point x="170" y="535"/>
      <point x="200" y="535" type="curve" smooth="yes"/>
      <point x="230" y="535"/>
      <point x="254" y="560"/>
      <point x="254" y="590" type="curve" smooth="yes"/>
      <point x="254" y="620"/>
      <point x="230" y="644"/>
    </contour>
  </outline>
</glyph>
<glyph name="Agrave" format="1">
  <advance width="466"/>
  <unicode hex="00C0"/>
  <outline>
    <contour>
      <point x="162" y="635" type="line"/>
      <point x="8" y="0" type="line"/>
      <point x="121" y="0" type="line"/>
      <point x="157" y="166" type="line"/>
      <point x="304" y="166" type="line"/>
      <point x="340" y="0" type="line"/>
      <point x="459" y="0" type="line"/>
      <point x="303" y="635" type="line"/>
    </contour>
    <contour>
      <point x="281" y="273" type="line"/>
      <point x="182" y="273" type="line"/>
      <point x="231" y="468" type="line"/>
    </contour>
    <contour>
      <point x="158" y="743" type="curve" smooth="yes"/>
      <point x="211" y="674" type="line"/>
      <point x="252" y="674" type="line"/>
      <point x="224" y="780" type="line" smooth="yes"/>
      <point x="216" y="806"/>
      <point x="185" y="822"/>
      <point x="165" y="808" type="curve"/>
      <point x="139" y="795"/>
      <point x="143" y="761"/>
    </contour>
  </outline>
</glyph>
<glyph name="Acircumflex" format="1">
  <advance width="466"/>
  <unicode hex="00C2"/>
  <outline>
    <contour>
      <point x="162" y="635" type="line"/>
      <point x="8" y="0" type="line"/>
      <point x="121" y="0" type="line"/>
      <point x="157" y="166" type="line"/>
      <point x="304" y="166" type="line"/>
      <point x="340" y="0" type="line"/>
      <point x="459" y="0" type="line"/>
      <point x="303" y="635" type="line"/>
    </contour>
    <contour>
      <point x="281" y="273" type="line"/>
      <point x="182" y="273" type="line"/>
      <point x="231" y="468" type="line"/>
    </contour>
    <contour>
      <point x="352" y="723" type="line"/>
      <point x="304" y="675" type="line"/>
      <point x="235" y="750" type="line"/>
      <point x="163" y="675" type="line"/>
      <point x="116" y="722" type="line"/>
      <point x="231" y="838" type="line"/>
    </contour>
  </outline>
</glyph>
<glyph name="Atilde" format="1">
  <advance width="466"/>
  <unicode hex="00C3"/>
  <outline>
    <contour>
      <point x="162" y="635" type="line"/>
      <point x="8" y="0" type="line"/>
      <point x="121" y="0" type="line"/>
      <point x="157" y="166" type="line"/>
      <point x="304" y="166" type="line"/>
      <point x="340" y="0" type="line"/>
      <point x="459" y="0" type="line"/>
      <point x="303" y="635" type="line"/>
    </contour>
    <contour>
      <point x="281" y="273" type="line"/>
      <point x="182" y="273" type="line"/>
      <point x="231" y="468" type="line"/>
    </contour>
    <contour>
      <point x="353" y="703" type="curve"/>
      <point x="329" y="757" type="line"/>
      <point x="315" y="746"/>
      <point x="300" y="740"/>
      <point x="284" y="740" type="curve" smooth="yes"/>
      <point x="251" y="740"/>
      <point x="222" y="757"/>
      <point x="191" y="757" type="curve"/>
      <point x="145" y="754"/>
      <point x="126" y="736"/>
      <point x="115" y="726" type="curve"/>
      <point x="140" y="673" type="line"/>
      <point x="148" y="679"/>
      <point x="159" y="689"/>
      <point x="182" y="691" type="curve"/>
      <point x="219" y="691"/>
      <point x="249" y="675"/>
      <point x="282" y="675" type="curve" smooth="yes"/>
      <point x="306" y="676"/>
      <point x="331" y="685"/>
    </contour>
  </outline>
</glyph>
<glyph name="Adieresis" format="1">
  <advance width="466"/>
  <unicode hex="00C4"/>
  <outline>
    <contour>
      <point x="162" y="635" type="line"/>
      <point x="8" y="0" type="line"/>
      <point x="121" y="0" type="line"/>
      <point x="157" y="166" type="line"/>
      <point x="304" y="166" type="line"/>
      <point x="340" y="0" type="line"/>
      <point x="459" y="0" type="line"/>
      <point x="303" y="635" type="line"/>
    </contour>
    <contour>
      <point x="281" y="273" type="line"/>
      <point x="182" y="273" type="line"/>
      <point x="231" y="468" type="line"/>
    </contour>
    <contour>
      <point x="305" y="783" type="curve" smooth="yes"/>
      <point x="275" y="783"/>
      <point x="252" y="759"/>
      <point x="252" y="729" type="curve" smooth="yes"/>
      <point x="252" y="699"/>
      <point x="275" y="674"/>
      <point x="305" y="674" type="curve" smooth="yes"/>
      <point x="335" y="674"/>
      <point x="360" y="699"/>
      <point x="360" y="729" type="curve" smooth="yes"/>
      <point x="360" y="759"/>
      <point x="335" y="783"/>
    </contour>
    <contour>
      <point x="216" y="729" type="curve" smooth="yes"/>
      <point x="216" y="759"/>
      <point x="192" y="783"/>
      <point x="162" y="783" type="curve" smooth="yes"/>
      <point x="132" y="783"/>
      <point x="107" y="759"/>
      <point x="107" y="729" type="curve" smooth="yes"/>
      <point x="107" y="699"/>
      <point x="132" y="674"/>
      <point x="162" y="674" type="curve" smooth="yes"/>
      <point x="192" y="674"/>
      <point x="216" y="699"/>
    </contour>
  </outline>
</glyph>
<glyph name="Aring" format="1">
  <advance width="466"/>
  <unicode hex="00C5"/>
  <outline>
    <contour>
      <point x="162" y="635" type="line"/>
      <point x="8" y="0" type="line"/>
      <point x="121" y="0" type="line"/>
      <point x="157" y="166" type="line"/>
      <point x="304" y="166" type="line"/>
      <point x="340" y="0" type="line"/>
      <point x="459" y="0" type="line"/>
      <point x="303" y="635" type="line"/>
    </contour>
    <contour>
      <point x="281" y="273" type="line"/>
      <point x="182" y="273" type="line"/>
      <point x="231" y="468" type="line"/>
    </contour>
    <contour>
      <point x="233" y="601" type="curve" smooth="yes"/>
      <point x="290" y="601"/>
      <point x="336" y="647"/>
      <point x="336" y="704" type="curve" smooth="yes"/>
      <point x="336" y="762"/>
      <point x="290" y="808"/>
      <point x="233" y="808" type="curve" smooth="yes"/>
      <point x="176" y="808"/>
      <point x="129" y="762"/>
      <point x="129" y="704" type="curve" smooth="yes"/>
      <point x="129" y="647"/>
      <point x="176" y="601"/>
    </contour>
    <contour>
      <point x="262" y="704" type="curve" smooth="yes"/>
      <point x="262" y="689"/>
      <point x="248" y="676"/>
      <point x="233" y="676" type="curve" smooth="yes"/>
      <point x="217" y="676"/>
      <point x="205" y="689"/>
      <point x="205" y="704" type="curve" smooth="yes"/>
      <point x="205" y="720"/>
      <point x="217" y="733"/>
      <point x="233" y="733" type="curve" smooth="yes"/>
      <point x="248" y="733"/>
      <point x="262" y="720"/>
    </contour>
  </outline>
</glyph>
<glyph name="AE" format="1">
  <advance width="657"/>
  <unicode hex="00C6"/>
  <outline>
    <contour>
      <point x="639" y="91" type="line"/>
      <point x="435" y="91" type="line"/>
      <point x="435" y="278" type="line"/>
      <point x="543" y="278" type="line"/>
      <point x="574" y="375" type="line"/>
      <point x="435" y="375" type="line"/>
      <point x="435" y="535" type="line"/>
      <point x="641" y="535" type="line"/>
      <point x="641" y="635" type="line"/>
      <point x="251" y="635" type="line"/>
      <point x="5" y="0" type="line"/>
      <point x="122" y="0" type="line"/>
      <point x="190" y="175" type="line"/>
      <point x="337" y="175" type="line"/>
      <point x="337" y="0" type="line"/>
      <point x="639" y="0" type="line"/>
    </contour>
    <contour>
      <point x="336" y="535" type="line"/>
      <point x="336" y="273" type="line"/>
      <point x="227" y="273" type="line"/>
      <point x="325" y="535" type="line"/>
    </contour>
  </outline>
</glyph>
<glyph name="Ccedilla" format="1">
  <advance width="356"/>
  <unicode hex="00C7"/>
  <outline>
    <contour>
      <point x="295" y="529" type="curve"/>
      <point x="322" y="614" type="line"/>
      <point x="279" y="635"/>
      <point x="235" y="645"/>
      <point x="191" y="645" type="curve" smooth="yes"/>
      <point x="146" y="645"/>
      <point x="104" y="634"/>
      <point x="72" y="604" type="curve" smooth="yes"/>
      <point x="39" y="575"/>
      <point x="16" y="528"/>
      <point x="16" y="457" type="curve" smooth="yes"/>
      <point x="16" y="166" type="line" smooth="yes"/>
      <point x="16" y="103"/>
      <point x="37" y="58"/>
      <point x="70" y="29" type="curve" smooth="yes"/>
      <point x="102" y="2"/>
      <point x="146" y="-11"/>
      <point x="195" y="-11" type="curve" smooth="yes"/>
      <point x="242" y="-10"/>
      <point x="292" y="1"/>
      <point x="344" y="21" type="curve"/>
      <point x="329" y="115" type="line"/>
      <point x="318" y="115"/>
      <point x="256" y="91"/>
      <point x="201" y="91" type="curve" smooth="yes"/>
      <point x="175" y="91"/>
      <point x="153" y="95"/>
      <point x="138" y="109" type="curve" smooth="yes"/>
      <point x="124" y="121"/>
      <point x="116" y="140"/>
      <point x="116" y="168" type="curve" smooth="yes"/>
      <point x="116" y="465" type="line" smooth="yes"/>
      <point x="116" y="493"/>
      <point x="123" y="512"/>
      <point x="139" y="525" type="curve" smooth="yes"/>
      <point x="154" y="538"/>
      <point x="177" y="545"/>
      <point x="209" y="545" type="curve" smooth="yes"/>
      <point x="236" y="545"/>
      <point x="270" y="538"/>
    </contour>
    <contour>
      <point x="224" y="-38" type="curve" smooth="yes"/>
      <point x="221" y="-38"/>
      <point x="216" y="-39"/>
      <point x="200" y="-40" type="curve"/>
      <point x="222" y="-2" type="line"/>
      <point x="162" y="-2" type="line"/>
      <point x="120" y="-70" type="line"/>
      <point x="136" y="-105" type="line"/>
      <point x="173" y="-103"/>
      <point x="200" y="-99"/>
      <point x="218" y="-99" type="curve" smooth="yes"/>
      <point x="241" y="-99"/>
      <point x="250" y="-111"/>
      <point x="250" y="-127" type="curve" smooth="yes"/>
      <point x="250" y="-143"/>
      <point x="240" y="-155"/>
      <point x="214" y="-155" type="curve" smooth="yes"/>
      <point x="175" y="-155"/>
      <point x="124" y="-146"/>
      <point x="123" y="-145" type="curve"/>
      <point x="118" y="-172"/>
      <point x="117" y="-180"/>
      <point x="112" y="-205" type="curve"/>
      <point x="113" y="-205"/>
      <point x="161" y="-215"/>
      <point x="204" y="-215" type="curve" smooth="yes"/>
      <point x="279" y="-215"/>
      <point x="311" y="-177"/>
      <point x="311" y="-123" type="curve" smooth="yes"/>
      <point x="311" y="-80"/>
      <point x="280" y="-38"/>
    </contour>
  </outline>
</glyph>
<glyph name="Egrave" format="1">
  <advance width="340"/>
  <unicode hex="00C8"/>
  <outline>
    <contour>
      <point x="322" y="91" type="line"/>
      <point x="120" y="91" type="line"/>
      <point x="120" y="280" type="line"/>
      <point x="216" y="280" type="line"/>
      <point x="245" y="375" type="line"/>
      <point x="120" y="375" type="line"/>
      <point x="120" y="535" type="line"/>
      <point x="324" y="535" type="line"/>
      <point x="324" y="635" type="line"/>
      <point x="20" y="635" type="line"/>
      <point x="20" y="0" type="line"/>
      <point x="322" y="0" type="line"/>
    </contour>
    <contour>
      <point x="103" y="745" type="curve"/>
      <point x="156" y="676" type="line"/>
      <point x="197" y="676" type="line"/>
      <point x="169" y="782" type="line" smooth="yes"/>
      <point x="162" y="807"/>
      <point x="133" y="823"/>
      <point x="110" y="810" type="curve" smooth="yes"/>
      <point x="84" y="796"/>
      <point x="87" y="763"/>
    </contour>
  </outline>
</glyph>
<glyph name="Eacute" format="1">
  <advance width="340"/>
  <unicode hex="00C9"/>
  <outline>
    <contour>
      <point x="322" y="91" type="line"/>
      <point x="120" y="91" type="line"/>
      <point x="120" y="280" type="line"/>
      <point x="216" y="280" type="line"/>
      <point x="245" y="375" type="line"/>
      <point x="120" y="375" type="line"/>
      <point x="120" y="535" type="line"/>
      <point x="324" y="535" type="line"/>
      <point x="324" y="635" type="line"/>
      <point x="20" y="635" type="line"/>
      <point x="20" y="0" type="line"/>
      <point x="322" y="0" type="line"/>
    </contour>
    <contour>
      <point x="178" y="775" type="curve"/>
      <point x="153" y="676" type="line"/>
      <point x="190" y="676" type="line"/>
      <point x="240" y="741" type="line" smooth="yes"/>
      <point x="257" y="763"/>
      <point x="254" y="786"/>
      <point x="234" y="801" type="curve"/>
      <point x="209" y="808"/>
      <point x="188" y="801"/>
    </contour>
  </outline>
</glyph>
<glyph name="Ecircumflex" format="1">
  <advance width="340"/>
  <unicode hex="00CA"/>
  <outline>
    <contour>
      <point x="322" y="91" type="line"/>
      <point x="120" y="91" type="line"/>
      <point x="120" y="280" type="line"/>
      <point x="216" y="280" type="line"/>
      <point x="245" y="375" type="line"/>
      <point x="120" y="375" type="line"/>
      <point x="120" y="535" type="line"/>
      <point x="324" y="535" type="line"/>
      <point x="324" y="635" type="line"/>
      <point x="20" y="635" type="line"/>
      <point x="20" y="0" type="line"/>
      <point x="322" y="0" type="line"/>
    </contour>
    <contour>
      <point x="174" y="752" type="line"/>
      <point x="242" y="677" type="line"/>
      <point x="290" y="725" type="line"/>
      <point x="174" y="839" type="line"/>
      <point x="54" y="723" type="line"/>
      <point x="101" y="676" type="line"/>
    </contour>
  </outline>
</glyph>
<glyph name="Edieresis" format="1">
  <advance width="340"/>
  <unicode hex="00CB"/>
  <outline>
    <contour>
      <point x="322" y="91" type="line"/>
      <point x="120" y="91" type="line"/>
      <point x="120" y="280" type="line"/>
      <point x="216" y="280" type="line"/>
      <point x="245" y="375" type="line"/>
      <point x="120" y="375" type="line"/>
      <point x="120" y="535" type="line"/>
      <point x="324" y="535" type="line"/>
      <point x="324" y="635" type="line"/>
      <point x="20" y="635" type="line"/>
      <point x="20" y="0" type="line"/>
      <point x="322" y="0" type="line"/>
    </contour>
    <contour>
      <point x="298" y="730" type="curve" smooth="yes"/>
      <point x="298" y="760"/>
      <point x="274" y="784"/>
      <point x="244" y="784" type="curve" smooth="yes"/>
      <point x="214" y="784"/>
      <point x="190" y="760"/>
      <point x="190" y="730" type="curve" smooth="yes"/>
      <point x="190" y="700"/>
      <point x="214" y="676"/>
      <point x="244" y="676" type="curve" smooth="yes"/>
      <point x="274" y="676"/>
      <point x="298" y="700"/>
    </contour>
    <contour>
      <point x="155" y="730" type="curve" smooth="yes"/>
      <point x="155" y="760"/>
      <point x="130" y="784"/>
      <point x="100" y="784" type="curve" smooth="yes"/>
      <point x="70" y="784"/>
      <point x="46" y="760"/>
      <point x="46" y="730" type="curve" smooth="yes"/>
      <point x="46" y="700"/>
      <point x="70" y="676"/>
      <point x="100" y="676" type="curve" smooth="yes"/>
      <point x="130" y="676"/>
      <point x="155" y="700"/>
    </contour>
  </outline>
</glyph>
<glyph name="Igrave" format="1">
  <advance width="202"/>
  <unicode hex="00CC"/>
  <outline>
    <contour>
      <point x="61" y="0" type="line"/>
      <point x="161" y="0" type="line"/>
      <point x="161" y="635" type="line"/>
      <point x="5" y="635" type="line"/>
      <point x="5" y="539" type="line"/>
      <point x="61" y="537" type="line"/>
    </contour>
    <contour>
      <point x="114" y="780" type="curve" smooth="yes"/>
      <point x="86" y="674" type="line"/>
      <point x="126" y="674" type="line"/>
      <point x="180" y="743" type="line" smooth="yes"/>
      <point x="196" y="763"/>
      <point x="198" y="794"/>
      <point x="173" y="808" type="curve"/>
      <point x="148" y="819"/>
      <point x="121" y="805"/>
    </contour>
  </outline>
</glyph>
<glyph name="Iacute" format="1">
  <advance width="202"/>
  <unicode hex="00CD"/>
  <outline>
    <contour>
      <point x="62" y="0" type="line"/>
      <point x="162" y="0" type="line"/>
      <point x="162" y="635" type="line"/>
      <point x="5" y="635" type="line"/>
      <point x="5" y="539" type="line"/>
      <point x="62" y="537" type="line"/>
    </contour>
    <contour>
      <point x="114" y="780" type="curve"/>
      <point x="87" y="674" type="line"/>
      <point x="127" y="674" type="line"/>
      <point x="181" y="743" type="line" smooth="yes"/>
      <point x="197" y="763"/>
      <point x="197" y="795"/>
      <point x="174" y="808" type="curve"/>
      <point x="148" y="819"/>
      <point x="122" y="805"/>
    </contour>
  </outline>
</glyph>
<glyph name="Icircumflex" format="1">
  <advance width="229"/>
  <unicode hex="00CE"/>
  <outline>
    <contour>
      <point x="68" y="0" type="line"/>
      <point x="168" y="0" type="line"/>
      <point x="168" y="635" type="line"/>
      <point x="11" y="635" type="line"/>
      <point x="11" y="539" type="line"/>
      <point x="68" y="537" type="line"/>
    </contour>
    <contour>
      <point x="121" y="747" type="line"/>
      <point x="189" y="673" type="line"/>
      <point x="237" y="721" type="line"/>
      <point x="121" y="835" type="line"/>
      <point x="1" y="719" type="line"/>
      <point x="48" y="673" type="line"/>
    </contour>
  </outline>
</glyph>
<glyph name="Idieresis" format="1">
  <advance width="238"/>
  <unicode hex="00CF"/>
  <outline>
    <contour>
      <point x="89" y="0" type="line"/>
      <point x="189" y="0" type="line"/>
      <point x="189" y="635" type="line"/>
      <point x="32" y="635" type="line"/>
      <point x="32" y="539" type="line"/>
      <point x="89" y="537" type="line"/>
    </contour>
    <contour>
      <point x="186" y="783" type="curve" smooth="yes"/>
      <point x="156" y="783"/>
      <point x="131" y="759"/>
      <point x="131" y="729" type="curve" smooth="yes"/>
      <point x="131" y="699"/>
      <point x="156" y="674"/>
      <point x="186" y="674" type="curve" smooth="yes"/>
      <point x="216" y="674"/>
      <point x="239" y="699"/>
      <point x="239" y="729" type="curve" smooth="yes"/>
      <point x="239" y="759"/>
      <point x="216" y="783"/>
    </contour>
    <contour>
      <point x="41" y="783" type="curve" smooth="yes"/>
      <point x="11" y="783"/>
      <point x="-12" y="759"/>
      <point x="-12" y="729" type="curve" smooth="yes"/>
      <point x="-12" y="699"/>
      <point x="11" y="674"/>
      <point x="41" y="674" type="curve" smooth="yes"/>
      <point x="71" y="674"/>
      <point x="96" y="699"/>
      <point x="96" y="729" type="curve" smooth="yes"/>
      <point x="96" y="759"/>
      <point x="71" y="783"/>
    </contour>
  </outline>
</glyph>
<glyph name="Eth" format="1">
  <advance width="417"/>
  <unicode hex="00D0"/>
  <outline>
    <contour>
      <point x="190" y="636" type="curve" smooth="yes"/>
      <point x="20" y="636" type="line"/>
      <point x="20" y="0" type="line"/>
      <point x="208" y="0" type="line" smooth="yes"/>
      <point x="336" y="0"/>
      <point x="401" y="67"/>
      <point x="401" y="187" type="curve" smooth="yes"/>
      <point x="401" y="430" type="line" smooth="yes"/>
      <point x="401" y="554"/>
      <point x="327" y="636"/>
    </contour>
    <contour>
      <point x="194" y="92" type="curve" smooth="yes"/>
      <point x="120" y="92" type="line"/>
      <point x="120" y="282" type="line"/>
      <point x="212" y="282" type="line"/>
      <point x="237" y="375" type="line"/>
      <point x="120" y="375" type="line"/>
      <point x="120" y="535" type="line"/>
      <point x="199" y="535" type="line" smooth="yes"/>
      <point x="268" y="535"/>
      <point x="301" y="505"/>
      <point x="301" y="439" type="curve" smooth="yes"/>
      <point x="301" y="178" type="line" smooth="yes"/>
      <point x="301" y="142"/>
      <point x="296" y="92"/>
    </contour>
  </outline>
</glyph>
<glyph name="Ntilde" format="1">
  <advance width="487"/>
  <unicode hex="00D1"/>
  <outline>
    <contour>
      <point x="366" y="209" type="line"/>
      <point x="120" y="635" type="line"/>
      <point x="20" y="635" type="line"/>
      <point x="20" y="0" type="line"/>
      <point x="120" y="0" type="line"/>
      <point x="120" y="429" type="line"/>
      <point x="366" y="0" type="line"/>
      <point x="467" y="0" type="line"/>
      <point x="467" y="635" type="line"/>
      <point x="366" y="635" type="line"/>
    </contour>
    <contour>
      <point x="363" y="710" type="curve"/>
      <point x="339" y="764" type="line"/>
      <point x="327" y="754"/>
      <point x="311" y="748"/>
      <point x="297" y="747" type="curve"/>
      <point x="264" y="747"/>
      <point x="235" y="764"/>
      <point x="205" y="764" type="curve" smooth="yes"/>
      <point x="171" y="764"/>
      <point x="147" y="752"/>
      <point x="125" y="733" type="curve"/>
      <point x="150" y="681" type="line"/>
      <point x="158" y="686"/>
      <point x="169" y="696"/>
      <point x="192" y="698" type="curve"/>
      <point x="225" y="698"/>
      <point x="254" y="683"/>
      <point x="285" y="683" type="curve" smooth="yes"/>
      <point x="317" y="683"/>
      <point x="343" y="694"/>
    </contour>
  </outline>
</glyph>
<glyph name="Ocircumflex" format="1">
  <advance width="415"/>
  <unicode hex="00D4"/>
  <outline>
    <contour>
      <point x="16" y="460" type="curve" smooth="yes"/>
      <point x="16" y="168" type="line" smooth="yes"/>
      <point x="16" y="51"/>
      <point x="100" y="-10"/>
      <point x="208" y="-10" type="curve" smooth="yes"/>
      <point x="322" y="-10"/>
      <point x="398" y="57"/>
      <point x="398" y="168" type="curve" smooth="yes"/>
      <point x="398" y="459" type="line" smooth="yes"/>
      <point x="398" y="578"/>
      <point x="329" y="650"/>
      <point x="209" y="650" type="curve" smooth="yes"/>
      <point x="89" y="650"/>
      <point x="16" y="584"/>
    </contour>
    <contour>
      <point x="116" y="185" type="curve" smooth="yes"/>
      <point x="116" y="427" type="line" smooth="yes"/>
      <point x="116" y="506"/>
      <point x="144" y="544"/>
      <point x="207" y="544" type="curve" smooth="yes"/>
      <point x="277" y="544"/>
      <point x="298" y="504"/>
      <point x="298" y="426" type="curve" smooth="yes"/>
      <point x="298" y="187" type="line" smooth="yes"/>
      <point x="298" y="130"/>
      <point x="265" y="92"/>
      <point x="207" y="92" type="curve" smooth="yes"/>
      <point x="146" y="92"/>
      <point x="116" y="127"/>
    </contour>
    <contour>
      <point x="209" y="762" type="line"/>
      <point x="277" y="687" type="line"/>
      <point x="325" y="735" type="line"/>
      <point x="209" y="850" type="line"/>
      <point x="89" y="733" type="line"/>
      <point x="136" y="686" type="line"/>
    </contour>
  </outline>
</glyph>
<glyph name="Otilde" format="1">
  <advance width="415"/>
  <unicode hex="00D5"/>
  <outline>
    <contour>
      <point x="16" y="460" type="curve" smooth="yes"/>
      <point x="16" y="168" type="line" smooth="yes"/>
      <point x="16" y="51"/>
      <point x="100" y="-10"/>
      <point x="208" y="-10" type="curve" smooth="yes"/>
      <point x="322" y="-10"/>
      <point x="398" y="57"/>
      <point x="398" y="168" type="curve" smooth="yes"/>
      <point x="398" y="459" type="line" smooth="yes"/>
      <point x="398" y="578"/>
      <point x="329" y="650"/>
      <point x="209" y="650" type="curve" smooth="yes"/>
      <point x="89" y="650"/>
      <point x="16" y="584"/>
    </contour>
    <contour>
      <point x="116" y="185" type="curve" smooth="yes"/>
      <point x="116" y="427" type="line" smooth="yes"/>
      <point x="116" y="506"/>
      <point x="144" y="544"/>
      <point x="207" y="544" type="curve" smooth="yes"/>
      <point x="277" y="544"/>
      <point x="298" y="504"/>
      <point x="298" y="426" type="curve" smooth="yes"/>
      <point x="298" y="187" type="line" smooth="yes"/>
      <point x="298" y="130"/>
      <point x="265" y="92"/>
      <point x="207" y="92" type="curve" smooth="yes"/>
      <point x="146" y="92"/>
      <point x="116" y="127"/>
    </contour>
    <contour>
      <point x="326" y="703" type="curve"/>
      <point x="303" y="757" type="line"/>
      <point x="291" y="747"/>
      <point x="275" y="741"/>
      <point x="261" y="740" type="curve"/>
      <point x="227" y="740"/>
      <point x="199" y="757"/>
      <point x="169" y="757" type="curve" smooth="yes"/>
      <point x="135" y="757"/>
      <point x="111" y="744"/>
      <point x="88" y="726" type="curve"/>
      <point x="114" y="673" type="line"/>
      <point x="122" y="679"/>
      <point x="133" y="689"/>
      <point x="156" y="691" type="curve"/>
      <point x="189" y="691"/>
      <point x="219" y="674"/>
      <point x="251" y="674" type="curve" smooth="yes"/>
      <point x="281" y="674"/>
      <point x="307" y="687"/>
    </contour>
  </outline>
</glyph>
<glyph name="Odieresis" format="1">
  <advance width="415"/>
  <unicode hex="00D6"/>
  <outline>
    <contour>
      <point x="16" y="460" type="curve" smooth="yes"/>
      <point x="16" y="168" type="line" smooth="yes"/>
      <point x="16" y="51"/>
      <point x="100" y="-10"/>
      <point x="208" y="-10" type="curve" smooth="yes"/>
      <point x="322" y="-10"/>
      <point x="398" y="57"/>
      <point x="398" y="168" type="curve" smooth="yes"/>
      <point x="398" y="459" type="line" smooth="yes"/>
      <point x="398" y="578"/>
      <point x="329" y="650"/>
      <point x="209" y="650" type="curve" smooth="yes"/>
      <point x="89" y="650"/>
      <point x="16" y="584"/>
    </contour>
    <contour>
      <point x="116" y="185" type="curve" smooth="yes"/>
      <point x="116" y="427" type="line" smooth="yes"/>
      <point x="116" y="506"/>
      <point x="144" y="544"/>
      <point x="207" y="544" type="curve" smooth="yes"/>
      <point x="277" y="544"/>
      <point x="298" y="504"/>
      <point x="298" y="426" type="curve" smooth="yes"/>
      <point x="298" y="187" type="line" smooth="yes"/>
      <point x="298" y="130"/>
      <point x="265" y="92"/>
      <point x="207" y="92" type="curve" smooth="yes"/>
      <point x="146" y="92"/>
      <point x="116" y="127"/>
    </contour>
    <contour>
      <point x="136" y="792" type="curve" smooth="yes"/>
      <point x="106" y="792"/>
      <point x="81" y="767"/>
      <point x="81" y="737" type="curve" smooth="yes"/>
      <point x="81" y="707"/>
      <point x="106" y="683"/>
      <point x="136" y="683" type="curve" smooth="yes"/>
      <point x="166" y="683"/>
      <point x="190" y="707"/>
      <point x="190" y="737" type="curve" smooth="yes"/>
      <point x="190" y="767"/>
      <point x="166" y="792"/>
    </contour>
    <contour>
      <point x="279" y="792" type="curve" smooth="yes"/>
      <point x="249" y="792"/>
      <point x="225" y="767"/>
      <point x="225" y="737" type="curve" smooth="yes"/>
      <point x="225" y="707"/>
      <point x="249" y="683"/>
      <point x="279" y="683" type="curve" smooth="yes"/>
      <point x="309" y="683"/>
      <point x="334" y="707"/>
      <point x="334" y="737" type="curve" smooth="yes"/>
      <point x="334" y="767"/>
      <point x="309" y="792"/>
    </contour>
  </outline>
</glyph>
<glyph name="multiply" format="1">
  <advance width="320"/>
  <unicode hex="00D7"/>
  <outline>
    <contour>
      <point x="16" y="406" type="line"/>
      <point x="105" y="302" type="line"/>
      <point x="19" y="198" type="line"/>
      <point x="81" y="142" type="line"/>
      <point x="159" y="236" type="line"/>
      <point x="238" y="143" type="line"/>
      <point x="302" y="198" type="line"/>
      <point x="214" y="302" type="line"/>
      <point x="303" y="409" type="line"/>
      <point x="237" y="462" type="line"/>
      <point x="159" y="367" type="line"/>
      <point x="81" y="461" type="line"/>
    </contour>
  </outline>
</glyph>
<glyph name="Oslash" format="1">
  <advance width="428"/>
  <unicode hex="00D8"/>
  <outline>
    <contour>
      <point x="19" y="460" type="curve" smooth="yes"/>
      <point x="19" y="168" type="line" smooth="yes"/>
      <point x="19" y="51"/>
      <point x="103" y="-10"/>
      <point x="211" y="-10" type="curve" smooth="yes"/>
      <point x="324" y="-10"/>
      <point x="401" y="57"/>
      <point x="401" y="168" type="curve" smooth="yes"/>
      <point x="401" y="459" type="line" smooth="yes"/>
      <point x="401" y="578"/>
      <point x="332" y="650"/>
      <point x="212" y="650" type="curve" smooth="yes"/>
      <point x="92" y="650"/>
      <point x="19" y="584"/>
    </contour>
    <contour>
      <point x="119" y="185" type="curve" smooth="yes"/>
      <point x="119" y="427" type="line" smooth="yes"/>
      <point x="119" y="506"/>
      <point x="146" y="544"/>
      <point x="210" y="544" type="curve" smooth="yes"/>
      <point x="280" y="544"/>
      <point x="301" y="504"/>
      <point x="301" y="426" type="curve" smooth="yes"/>
      <point x="301" y="187" type="line" smooth="yes"/>
      <point x="301" y="130"/>
      <point x="267" y="92"/>
      <point x="210" y="92" type="curve" smooth="yes"/>
      <point x="148" y="92"/>
      <point x="119" y="127"/>
    </contour>
    <contour>
      <point x="418" y="742" type="line"/>
      <point x="309" y="742" type="line"/>
      <point x="15" y="-104" type="line"/>
      <point x="121" y="-104" type="line"/>
    </contour>
  </outline>
</glyph>
<glyph name="Ugrave" format="1">
  <advance width="417"/>
  <unicode hex="00D9"/>
  <outline>
    <contour>
      <point x="399" y="168" type="curve" smooth="yes"/>
      <point x="399" y="635" type="line"/>
      <point x="299" y="635" type="line"/>
      <point x="299" y="187" type="line" smooth="yes"/>
      <point x="299" y="156"/>
      <point x="289" y="131"/>
      <point x="272" y="115" type="curve" smooth="yes"/>
      <point x="256" y="100"/>
      <point x="235" y="92"/>
      <point x="208" y="92" type="curve" smooth="yes"/>
      <point x="181" y="92"/>
      <point x="160" y="98"/>
      <point x="146" y="111" type="curve" smooth="yes"/>
      <point x="127" y="127"/>
      <point x="117" y="153"/>
      <point x="117" y="185" type="curve" smooth="yes"/>
      <point x="117" y="635" type="line"/>
      <point x="17" y="635" type="line"/>
      <point x="17" y="168" type="line" smooth="yes"/>
      <point x="17" y="107"/>
      <point x="37" y="62"/>
      <point x="74" y="33" type="curve" smooth="yes"/>
      <point x="112" y="5"/>
      <point x="157" y="-10"/>
      <point x="209" y="-10" type="curve" smooth="yes"/>
      <point x="261" y="-10"/>
      <point x="306" y="5"/>
      <point x="343" y="33" type="curve" smooth="yes"/>
      <point x="380" y="62"/>
      <point x="399" y="107"/>
    </contour>
    <contour>
      <point x="142" y="745" type="curve" smooth="yes"/>
      <point x="196" y="676" type="line"/>
      <point x="236" y="676" type="line"/>
      <point x="208" y="782" type="line" smooth="yes"/>
      <point x="201" y="807"/>
      <point x="171" y="823"/>
      <point x="148" y="810" type="curve" smooth="yes"/>
      <point x="123" y="795"/>
      <point x="127" y="763"/>
    </contour>
  </outline>
</glyph>
<glyph name="Ucircumflex" format="1">
  <advance width="417"/>
  <unicode hex="00DB"/>
  <outline>
    <contour>
      <point x="399" y="168" type="curve" smooth="yes"/>
      <point x="399" y="635" type="line"/>
      <point x="299" y="635" type="line"/>
      <point x="299" y="187" type="line" smooth="yes"/>
      <point x="299" y="156"/>
      <point x="289" y="131"/>
      <point x="272" y="115" type="curve" smooth="yes"/>
      <point x="256" y="100"/>
      <point x="235" y="92"/>
      <point x="208" y="92" type="curve" smooth="yes"/>
      <point x="181" y="92"/>
      <point x="160" y="98"/>
      <point x="146" y="111" type="curve" smooth="yes"/>
      <point x="127" y="127"/>
      <point x="117" y="153"/>
      <point x="117" y="185" type="curve" smooth="yes"/>
      <point x="117" y="635" type="line"/>
      <point x="17" y="635" type="line"/>
      <point x="17" y="168" type="line" smooth="yes"/>
      <point x="17" y="107"/>
      <point x="37" y="62"/>
      <point x="74" y="33" type="curve" smooth="yes"/>
      <point x="112" y="5"/>
      <point x="157" y="-10"/>
      <point x="209" y="-10" type="curve" smooth="yes"/>
      <point x="261" y="-10"/>
      <point x="306" y="5"/>
      <point x="343" y="33" type="curve" smooth="yes"/>
      <point x="380" y="62"/>
      <point x="399" y="107"/>
    </contour>
    <contour>
      <point x="210" y="752" type="line"/>
      <point x="278" y="677" type="line"/>
      <point x="326" y="725" type="line"/>
      <point x="210" y="840" type="line"/>
      <point x="90" y="723" type="line"/>
      <point x="137" y="677" type="line"/>
    </contour>
  </outline>
</glyph>
<glyph name="Udieresis" format="1">
  <advance width="417"/>
  <unicode hex="00DC"/>
  <outline>
    <contour>
      <point x="399" y="168" type="curve" smooth="yes"/>
      <point x="399" y="635" type="line"/>
      <point x="299" y="635" type="line"/>
      <point x="299" y="187" type="line" smooth="yes"/>
      <point x="299" y="156"/>
      <point x="289" y="131"/>
      <point x="272" y="115" type="curve" smooth="yes"/>
      <point x="256" y="100"/>
      <point x="235" y="92"/>
      <point x="208" y="92" type="curve" smooth="yes"/>
      <point x="181" y="92"/>
      <point x="160" y="98"/>
      <point x="146" y="111" type="curve" smooth="yes"/>
      <point x="127" y="127"/>
      <point x="117" y="153"/>
      <point x="117" y="185" type="curve" smooth="yes"/>
      <point x="117" y="635" type="line"/>
      <point x="17" y="635" type="line"/>
      <point x="17" y="168" type="line" smooth="yes"/>
      <point x="17" y="107"/>
      <point x="37" y="62"/>
      <point x="74" y="33" type="curve" smooth="yes"/>
      <point x="112" y="5"/>
      <point x="157" y="-10"/>
      <point x="209" y="-10" type="curve" smooth="yes"/>
      <point x="261" y="-10"/>
      <point x="306" y="5"/>
      <point x="343" y="33" type="curve" smooth="yes"/>
      <point x="380" y="62"/>
      <point x="399" y="107"/>
    </contour>
    <contour>
      <point x="335" y="731" type="curve" smooth="yes"/>
      <point x="335" y="761"/>
      <point x="310" y="785"/>
      <point x="280" y="785" type="curve" smooth="yes"/>
      <point x="250" y="785"/>
      <point x="226" y="761"/>
      <point x="226" y="731" type="curve" smooth="yes"/>
      <point x="226" y="701"/>
      <point x="250" y="677"/>
      <point x="280" y="677" type="curve" smooth="yes"/>
      <point x="310" y="677"/>
      <point x="335" y="701"/>
    </contour>
    <contour>
      <point x="191" y="731" type="curve" smooth="yes"/>
      <point x="191" y="761"/>
      <point x="167" y="785"/>
      <point x="137" y="785" type="curve" smooth="yes"/>
      <point x="107" y="785"/>
      <point x="82" y="761"/>
      <point x="82" y="731" type="curve" smooth="yes"/>
      <point x="82" y="701"/>
      <point x="107" y="677"/>
      <point x="137" y="677" type="curve" smooth="yes"/>
      <point x="167" y="677"/>
      <point x="191" y="701"/>
    </contour>
  </outline>
</glyph>
<glyph name="Yacute" format="1">
  <advance width="435"/>
  <unicode hex="00DD"/>
  <outline>
    <contour>
      <point x="416" y="142" type="curve" smooth="yes"/>
      <point x="416" y="635" type="line"/>
      <point x="316" y="635" type="line"/>
      <point x="316" y="368" type="line" smooth="yes"/>
      <point x="316" y="341"/>
      <point x="305" y="315"/>
      <point x="286" y="298" type="curve" smooth="yes"/>
      <point x="269" y="282"/>
      <point x="246" y="273"/>
      <point x="222" y="273" type="curve" smooth="yes"/>
      <point x="188" y="273"/>
      <point x="161" y="281"/>
      <point x="144" y="297" type="curve" smooth="yes"/>
      <point x="123" y="316"/>
      <point x="113" y="345"/>
      <point x="113" y="384" type="curve" smooth="yes"/>
      <point x="113" y="635" type="line"/>
      <point x="13" y="635" type="line"/>
      <point x="13" y="375" type="line" smooth="yes"/>
      <point x="13" y="314"/>
      <point x="32" y="266"/>
      <point x="70" y="231" type="curve" smooth="yes"/>
      <point x="112" y="191"/>
      <point x="162" y="180"/>
      <point x="215" y="180" type="curve" smooth="yes"/>
      <point x="275" y="183"/>
      <point x="316" y="215"/>
      <point x="316" y="215" type="curve"/>
      <point x="316" y="149" type="line" smooth="yes"/>
      <point x="316" y="85"/>
      <point x="288" y="64"/>
      <point x="248" y="59" type="curve"/>
      <point x="280" y="-17" type="line"/>
      <point x="379" y="-7"/>
      <point x="416" y="46"/>
    </contour>
    <contour>
      <point x="217" y="781" type="curve"/>
      <point x="190" y="675" type="line"/>
      <point x="230" y="675" type="line"/>
      <point x="284" y="743" type="line" smooth="yes"/>
      <point x="301" y="763"/>
      <point x="301" y="794"/>
      <point x="277" y="808" type="curve" smooth="yes"/>
      <point x="254" y="822"/>
      <point x="225" y="804"/>
    </contour>
  </outline>
</glyph>
<glyph name="Thorn" format="1">
  <advance width="390"/>
  <unicode hex="00DE"/>
  <outline>
    <contour>
      <point x="377" y="264" type="curve" smooth="yes"/>
      <point x="377" y="395" type="line" smooth="yes"/>
      <point x="375" y="435"/>
      <point x="369" y="464"/>
      <point x="352" y="494" type="curve" smooth="yes"/>
      <point x="320" y="546"/>
      <point x="265" y="569"/>
      <point x="209" y="569" type="curve" smooth="yes"/>
      <point x="179" y="569"/>
      <point x="149" y="563"/>
      <point x="120" y="553" type="curve"/>
      <point x="120" y="635" type="line"/>
      <point x="20" y="635" type="line"/>
      <point x="20" y="0" type="line"/>
      <point x="120" y="0" type="line"/>
      <point x="120" y="103" type="line"/>
      <point x="173" y="93"/>
      <point x="227" y="91"/>
      <point x="275" y="107" type="curve" smooth="yes"/>
      <point x="338" y="127"/>
      <point x="377" y="175"/>
    </contour>
    <contour>
      <point x="198" y="484" type="curve" smooth="yes"/>
      <point x="224" y="484"/>
      <point x="253" y="473"/>
      <point x="266" y="452" type="curve" smooth="yes"/>
      <point x="274" y="440"/>
      <point x="278" y="425"/>
      <point x="278" y="407" type="curve" smooth="yes"/>
      <point x="279" y="264" type="line" smooth="yes"/>
      <point x="279" y="226"/>
      <point x="267" y="200"/>
      <point x="231" y="189" type="curve" smooth="yes"/>
      <point x="199" y="178"/>
      <point x="154" y="179"/>
      <point x="120" y="187" type="curve"/>
      <point x="120" y="467" type="line"/>
      <point x="143" y="476"/>
      <point x="174" y="484"/>
    </contour>
  </outline>
</glyph>
<glyph name="germandbls" format="1">
  <advance width="436"/>
  <unicode hex="00DF"/>
  <outline>
    <contour>
      <point x="119" y="0" type="curve"/>
      <point x="119" y="459" type="line" smooth="yes"/>
      <point x="119" y="514"/>
      <point x="137" y="541"/>
      <point x="174" y="541" type="curve" smooth="yes"/>
      <point x="200" y="541"/>
      <point x="213" y="524"/>
      <point x="213" y="505" type="curve" smooth="yes"/>
      <point x="213" y="484"/>
      <point x="196" y="460"/>
      <point x="166" y="460" type="curve"/>
      <point x="153" y="438"/>
      <point x="147" y="418"/>
      <point x="147" y="399" type="curve" smooth="yes"/>
      <point x="147" y="325"/>
      <point x="229" y="271"/>
      <point x="278" y="221" type="curve" smooth="yes"/>
      <point x="307" y="190"/>
      <point x="320" y="162"/>
      <point x="320" y="138" type="curve" smooth="yes"/>
      <point x="320" y="105"/>
      <point x="294" y="85"/>
      <point x="265" y="85" type="curve" smooth="yes"/>
      <point x="241" y="85"/>
      <point x="212" y="97"/>
      <point x="182" y="125" type="curve"/>
      <point x="167" y="94"/>
      <point x="153" y="65"/>
      <point x="138" y="34" type="curve"/>
      <point x="172" y="6"/>
      <point x="217" y="-11"/>
      <point x="267" y="-11" type="curve" smooth="yes"/>
      <point x="355" y="-11"/>
      <point x="425" y="48"/>
      <point x="425" y="135" type="curve" smooth="yes"/>
      <point x="425" y="186"/>
      <point x="404" y="228"/>
      <point x="373" y="262" type="curve" smooth="yes"/>
      <point x="327" y="314"/>
      <point x="250" y="357"/>
      <point x="250" y="404" type="curve" smooth="yes"/>
      <point x="250" y="414"/>
      <point x="254" y="423"/>
      <point x="260" y="433" type="curve"/>
      <point x="261" y="433"/>
      <point x="278" y="433"/>
      <point x="278" y="433" type="curve"/>
      <point x="312" y="468"/>
      <point x="317" y="516"/>
      <point x="305" y="555" type="curve" smooth="yes"/>
      <point x="287" y="606"/>
      <point x="227" y="636"/>
      <point x="165" y="636" type="curve" smooth="yes"/>
      <point x="92" y="635"/>
      <point x="19" y="592"/>
      <point x="19" y="487" type="curve" smooth="yes"/>
      <point x="19" y="325"/>
      <point x="19" y="162"/>
      <point x="19" y="0" type="curve"/>
      <point x="52" y="0"/>
      <point x="86" y="0"/>
    </contour>
  </outline>
</glyph>
<glyph name="aacute" format="1">
  <advance width="377"/>
  <unicode hex="00E1"/>
  <outline>
    <contour>
      <point x="261" y="304" type="curve"/>
      <point x="233" y="344"/>
      <point x="176" y="364"/>
      <point x="134" y="364" type="curve" smooth="yes"/>
      <point x="67" y="364"/>
      <point x="11" y="322"/>
      <point x="11" y="229" type="curve"/>
      <point x="11" y="229"/>
      <point x="11" y="141"/>
      <point x="11" y="141" type="curve"/>
      <point x="16" y="25"/>
      <point x="95" y="-10"/>
      <point x="197" y="-10" type="curve" smooth="yes"/>
      <point x="258" y="-10"/>
      <point x="311" y="-7"/>
      <point x="361" y="0" type="curve"/>
      <point x="361" y="0"/>
      <point x="361" y="176"/>
      <point x="361" y="278" type="curve" smooth="yes"/>
      <point x="361" y="362"/>
      <point x="340" y="402"/>
      <point x="318" y="422" type="curve" smooth="yes"/>
      <point x="278" y="458"/>
      <point x="220" y="462"/>
      <point x="172" y="462" type="curve"/>
      <point x="164" y="394" type="line"/>
      <point x="202" y="394"/>
      <point x="228" y="384"/>
      <point x="245" y="369" type="curve" smooth="yes"/>
      <point x="256" y="359"/>
      <point x="261" y="343"/>
    </contour>
    <contour>
      <point x="261" y="229" type="curve"/>
      <point x="261" y="229"/>
      <point x="261" y="85"/>
      <point x="261" y="85" type="curve"/>
      <point x="261" y="85"/>
      <point x="221" y="82"/>
      <point x="206" y="82" type="curve" smooth="yes"/>
      <point x="124" y="82"/>
      <point x="112" y="112"/>
      <point x="112" y="157" type="curve" smooth="yes"/>
      <point x="112" y="173"/>
      <point x="112" y="198"/>
      <point x="112" y="216" type="curve" smooth="yes"/>
      <point x="112" y="250"/>
      <point x="134" y="261"/>
      <point x="162" y="261" type="curve" smooth="yes"/>
      <point x="205" y="261"/>
      <point x="250" y="236"/>
    </contour>
    <contour>
      <point x="203" y="604" type="curve" smooth="yes"/>
      <point x="176" y="499" type="line"/>
      <point x="216" y="499" type="line"/>
      <point x="269" y="567" type="line" smooth="yes"/>
      <point x="286" y="587"/>
      <point x="286" y="619"/>
      <point x="262" y="632" type="curve" smooth="yes"/>
      <point x="238" y="645"/>
      <point x="209" y="628"/>
    </contour>
  </outline>
</glyph>
<glyph name="acircumflex" format="1">
  <advance width="378"/>
  <unicode hex="00E2"/>
  <outline>
    <contour>
      <point x="262" y="304" type="curve"/>
      <point x="234" y="344"/>
      <point x="177" y="364"/>
      <point x="135" y="364" type="curve" smooth="yes"/>
      <point x="68" y="364"/>
      <point x="12" y="322"/>
      <point x="12" y="229" type="curve"/>
      <point x="12" y="229"/>
      <point x="12" y="141"/>
      <point x="12" y="141" type="curve"/>
      <point x="17" y="25"/>
      <point x="96" y="-10"/>
      <point x="198" y="-10" type="curve" smooth="yes"/>
      <point x="259" y="-10"/>
      <point x="312" y="-7"/>
      <point x="362" y="0" type="curve"/>
      <point x="362" y="0"/>
      <point x="362" y="176"/>
      <point x="362" y="278" type="curve" smooth="yes"/>
      <point x="362" y="362"/>
      <point x="341" y="402"/>
      <point x="319" y="422" type="curve" smooth="yes"/>
      <point x="279" y="458"/>
      <point x="221" y="462"/>
      <point x="173" y="462" type="curve"/>
      <point x="165" y="394" type="line"/>
      <point x="203" y="394"/>
      <point x="229" y="384"/>
      <point x="246" y="369" type="curve" smooth="yes"/>
      <point x="257" y="359"/>
      <point x="262" y="343"/>
    </contour>
    <contour>
      <point x="262" y="229" type="curve"/>
      <point x="262" y="229"/>
      <point x="262" y="85"/>
      <point x="262" y="85" type="curve"/>
      <point x="262" y="85"/>
      <point x="222" y="82"/>
      <point x="207" y="82" type="curve" smooth="yes"/>
      <point x="125" y="82"/>
      <point x="113" y="112"/>
      <point x="113" y="157" type="curve" smooth="yes"/>
      <point x="113" y="173"/>
      <point x="113" y="198"/>
      <point x="113" y="216" type="curve" smooth="yes"/>
      <point x="113" y="250"/>
      <point x="135" y="261"/>
      <point x="163" y="261" type="curve" smooth="yes"/>
      <point x="206" y="261"/>
      <point x="251" y="236"/>
    </contour>
    <contour>
      <point x="188" y="572" type="line"/>
      <point x="257" y="498" type="line"/>
      <point x="306" y="545" type="line"/>
      <point x="188" y="660" type="line"/>
      <point x="68" y="544" type="line"/>
      <point x="117" y="497" type="line"/>
    </contour>
  </outline>
</glyph>
<glyph name="aring" format="1">
  <advance width="378"/>
  <unicode hex="00E5"/>
  <outline>
    <contour>
      <point x="262" y="304" type="curve"/>
      <point x="234" y="344"/>
      <point x="177" y="364"/>
      <point x="135" y="364" type="curve" smooth="yes"/>
      <point x="68" y="364"/>
      <point x="12" y="322"/>
      <point x="12" y="229" type="curve"/>
      <point x="12" y="229"/>
      <point x="12" y="141"/>
      <point x="12" y="141" type="curve"/>
      <point x="17" y="25"/>
      <point x="96" y="-10"/>
      <point x="198" y="-10" type="curve" smooth="yes"/>
      <point x="259" y="-10"/>
      <point x="312" y="-7"/>
      <point x="362" y="0" type="curve"/>
      <point x="362" y="0"/>
      <point x="362" y="176"/>
      <point x="362" y="278" type="curve" smooth="yes"/>
      <point x="362" y="362"/>
      <point x="341" y="402"/>
      <point x="319" y="422" type="curve" smooth="yes"/>
      <point x="279" y="458"/>
      <point x="221" y="462"/>
      <point x="173" y="462" type="curve"/>
      <point x="165" y="394" type="line"/>
      <point x="203" y="394"/>
      <point x="229" y="384"/>
      <point x="246" y="369" type="curve" smooth="yes"/>
      <point x="257" y="359"/>
      <point x="262" y="343"/>
    </contour>
    <contour>
      <point x="262" y="229" type="curve"/>
      <point x="262" y="229"/>
      <point x="262" y="85"/>
      <point x="262" y="85" type="curve"/>
      <point x="262" y="85"/>
      <point x="222" y="82"/>
      <point x="207" y="82" type="curve" smooth="yes"/>
      <point x="125" y="82"/>
      <point x="113" y="112"/>
      <point x="113" y="157" type="curve" smooth="yes"/>
      <point x="113" y="173"/>
      <point x="113" y="198"/>
      <point x="113" y="216" type="curve" smooth="yes"/>
      <point x="113" y="250"/>
      <point x="135" y="261"/>
      <point x="163" y="261" type="curve" smooth="yes"/>
      <point x="206" y="261"/>
      <point x="251" y="236"/>
    </contour>
    <contour>
      <point x="175" y="394" type="curve" smooth="yes"/>
      <point x="232" y="394"/>
      <point x="278" y="441"/>
      <point x="278" y="498" type="curve" smooth="yes"/>
      <point x="278" y="555"/>
      <point x="232" y="602"/>
      <point x="175" y="602" type="curve" smooth="yes"/>
      <point x="118" y="602"/>
      <point x="71" y="555"/>
      <point x="71" y="498" type="curve" smooth="yes"/>
      <point x="71" y="441"/>
      <point x="118" y="394"/>
    </contour>
    <contour>
      <point x="203" y="498" type="curve" smooth="yes"/>
      <point x="203" y="482"/>
      <point x="190" y="469"/>
      <point x="175" y="469" type="curve" smooth="yes"/>
      <point x="159" y="469"/>
      <point x="147" y="482"/>
      <point x="147" y="498" type="curve" smooth="yes"/>
      <point x="147" y="514"/>
      <point x="159" y="526"/>
      <point x="175" y="526" type="curve" smooth="yes"/>
      <point x="190" y="526"/>
      <point x="203" y="514"/>
    </contour>
  </outline>
</glyph>
<glyph name="ae" format="1">
  <advance width="604"/>
  <unicode hex="00E6"/>
  <outline>
    <contour>
      <point x="365" y="136" type="curve" smooth="yes"/>
      <point x="365" y="158" type="line"/>
      <point x="591" y="170" type="line"/>
      <point x="591" y="312" type="line" smooth="yes"/>
      <point x="591" y="409"/>
      <point x="520" y="464"/>
      <point x="431" y="464" type="curve" smooth="yes"/>
      <point x="386" y="464"/>
      <point x="347" y="452"/>
      <point x="313" y="426" type="curve"/>
      <point x="273" y="458"/>
      <point x="218" y="462"/>
      <point x="172" y="462" type="curve"/>
      <point x="169" y="439"/>
      <point x="167" y="417"/>
      <point x="164" y="394" type="curve"/>
      <point x="234" y="392"/>
      <point x="261" y="371"/>
      <point x="261" y="304" type="curve"/>
      <point x="233" y="344"/>
      <point x="176" y="364"/>
      <point x="134" y="364" type="curve" smooth="yes"/>
      <point x="67" y="364"/>
      <point x="11" y="322"/>
      <point x="11" y="229" type="curve" smooth="yes"/>
      <point x="11" y="141" type="line" smooth="yes"/>
      <point x="16" y="25"/>
      <point x="95" y="-10"/>
      <point x="198" y="-10" type="curve" smooth="yes"/>
      <point x="254" y="-10"/>
      <point x="303" y="-8"/>
      <point x="350" y="-2" type="curve"/>
      <point x="350" y="12" type="line"/>
      <point x="364" y="0"/>
      <point x="397" y="-11"/>
      <point x="428" y="-11" type="curve" smooth="yes"/>
      <point x="483" y="-11"/>
      <point x="526" y="6"/>
      <point x="568" y="33" type="curve"/>
      <point x="532" y="119" type="line"/>
      <point x="493" y="99"/>
      <point x="449" y="83"/>
      <point x="417" y="83" type="curve" smooth="yes"/>
      <point x="382" y="83"/>
      <point x="365" y="106"/>
    </contour>
    <contour>
      <point x="261" y="229" type="curve"/>
      <point x="261" y="85" type="line"/>
      <point x="261" y="85"/>
      <point x="221" y="82"/>
      <point x="206" y="82" type="curve" smooth="yes"/>
      <point x="124" y="82"/>
      <point x="112" y="112"/>
      <point x="112" y="157" type="curve" smooth="yes"/>
      <point x="112" y="216" type="line" smooth="yes"/>
      <point x="112" y="250"/>
      <point x="134" y="261"/>
      <point x="162" y="261" type="curve" smooth="yes"/>
      <point x="205" y="261"/>
      <point x="250" y="236"/>
    </contour>
    <contour>
      <point x="491" y="294" type="curve" smooth="yes"/>
      <point x="491" y="258" type="line"/>
      <point x="365" y="250" type="line"/>
      <point x="365" y="296" type="line" smooth="yes"/>
      <point x="365" y="345"/>
      <point x="385" y="366"/>
      <point x="430" y="368" type="curve" smooth="yes"/>
      <point x="480" y="368"/>
      <point x="491" y="334"/>
    </contour>
  </outline>
</glyph>
<glyph name="ccedilla" format="1">
  <advance width="318"/>
  <unicode hex="00E7"/>
  <outline>
    <contour>
      <point x="280" y="356" type="curve"/>
      <point x="303" y="434" type="line"/>
      <point x="250" y="457"/>
      <point x="192" y="471"/>
      <point x="138" y="459" type="curve" smooth="yes"/>
      <point x="97" y="450"/>
      <point x="61" y="428"/>
      <point x="38" y="388" type="curve" smooth="yes"/>
      <point x="20" y="359"/>
      <point x="14" y="330"/>
      <point x="12" y="290" type="curve"/>
      <point x="12" y="157" type="line" smooth="yes"/>
      <point x="12" y="68"/>
      <point x="52" y="21"/>
      <point x="114" y="1" type="curve" smooth="yes"/>
      <point x="178" y="-18"/>
      <point x="246" y="-11"/>
      <point x="305" y="5" type="curve"/>
      <point x="287" y="85" type="line"/>
      <point x="287" y="85"/>
      <point x="245" y="76"/>
      <point x="205" y="76" type="curve" smooth="yes"/>
      <point x="150" y="76"/>
      <point x="111" y="103"/>
      <point x="111" y="158" type="curve" smooth="yes"/>
      <point x="111" y="301" type="line" smooth="yes"/>
      <point x="111" y="319"/>
      <point x="116" y="334"/>
      <point x="123" y="345" type="curve" smooth="yes"/>
      <point x="134" y="362"/>
      <point x="153" y="372"/>
      <point x="174" y="375" type="curve"/>
      <point x="209" y="382"/>
      <point x="249" y="371"/>
    </contour>
    <contour>
      <point x="213" y="-34" type="curve" smooth="yes"/>
      <point x="210" y="-34"/>
      <point x="207" y="-34"/>
      <point x="190" y="-35" type="curve"/>
      <point x="213" y="4" type="line"/>
      <point x="152" y="4" type="line"/>
      <point x="111" y="-65" type="line"/>
      <point x="127" y="-100" type="line"/>
      <point x="164" y="-97"/>
      <point x="190" y="-94"/>
      <point x="209" y="-94" type="curve" smooth="yes"/>
      <point x="231" y="-94"/>
      <point x="240" y="-105"/>
      <point x="240" y="-122" type="curve" smooth="yes"/>
      <point x="240" y="-137"/>
      <point x="230" y="-149"/>
      <point x="205" y="-149" type="curve" smooth="yes"/>
      <point x="166" y="-149"/>
      <point x="115" y="-141"/>
      <point x="115" y="-141" type="curve"/>
      <point x="109" y="-167"/>
      <point x="107" y="-175"/>
      <point x="102" y="-200" type="curve"/>
      <point x="105" y="-200"/>
      <point x="151" y="-210"/>
      <point x="195" y="-210" type="curve" smooth="yes"/>
      <point x="269" y="-210"/>
      <point x="302" y="-172"/>
      <point x="302" y="-117" type="curve" smooth="yes"/>
      <point x="302" y="-75"/>
      <point x="269" y="-34"/>
    </contour>
  </outline>
</glyph>
<glyph name="eacute" format="1">
  <advance width="354"/>
  <unicode hex="00E9"/>
  <outline>
    <contour>
      <point x="114" y="135" type="curve" smooth="yes"/>
      <point x="114" y="157" type="line"/>
      <point x="340" y="169" type="line"/>
      <point x="340" y="311" type="line" smooth="yes"/>
      <point x="340" y="365"/>
      <point x="320" y="408"/>
      <point x="285" y="434" type="curve" smooth="yes"/>
      <point x="258" y="453"/>
      <point x="223" y="463"/>
      <point x="180" y="463" type="curve" smooth="yes"/>
      <point x="134" y="463"/>
      <point x="95" y="451"/>
      <point x="67" y="429" type="curve" smooth="yes"/>
      <point x="33" y="402"/>
      <point x="13" y="361"/>
      <point x="13" y="308" type="curve" smooth="yes"/>
      <point x="13" y="122" type="line" smooth="yes"/>
      <point x="13" y="73"/>
      <point x="31" y="39"/>
      <point x="59" y="18" type="curve" smooth="yes"/>
      <point x="86" y="-3"/>
      <point x="123" y="-12"/>
      <point x="163" y="-12" type="curve" smooth="yes"/>
      <point x="217" y="-12"/>
      <point x="275" y="5"/>
      <point x="318" y="32" type="curve"/>
      <point x="281" y="118" type="line"/>
      <point x="242" y="98"/>
      <point x="198" y="82"/>
      <point x="165" y="82" type="curve" smooth="yes"/>
      <point x="149" y="82"/>
      <point x="135" y="86"/>
      <point x="126" y="96" type="curve"/>
      <point x="119" y="105"/>
      <point x="114" y="117"/>
    </contour>
    <contour>
      <point x="239" y="284" type="curve" smooth="yes"/>
      <point x="239" y="277"/>
      <point x="239" y="263"/>
      <point x="239" y="257" type="curve"/>
      <point x="114" y="249" type="line"/>
      <point x="114" y="258"/>
      <point x="114" y="276"/>
      <point x="114" y="285" type="curve" smooth="yes"/>
      <point x="114" y="314"/>
      <point x="115" y="334"/>
      <point x="131" y="350" type="curve"/>
      <point x="141" y="359"/>
      <point x="157" y="366"/>
      <point x="179" y="367" type="curve" smooth="yes"/>
      <point x="198" y="367"/>
      <point x="211" y="361"/>
      <point x="220" y="353" type="curve" smooth="yes"/>
      <point x="238" y="337"/>
      <point x="239" y="316"/>
    </contour>
    <contour>
      <point x="179" y="604" type="curve" smooth="yes"/>
      <point x="152" y="499" type="line"/>
      <point x="192" y="499" type="line"/>
      <point x="246" y="567" type="line" smooth="yes"/>
      <point x="262" y="587"/>
      <point x="262" y="619"/>
      <point x="238" y="632" type="curve" smooth="yes"/>
      <point x="215" y="645"/>
      <point x="186" y="628"/>
    </contour>
  </outline>
</glyph>
<glyph name="igrave" format="1">
  <advance width="166"/>
  <unicode hex="00EC"/>
  <outline>
    <contour>
      <point x="148" y="454" type="line"/>
      <point x="48" y="454" type="line"/>
      <point x="48" y="0" type="line"/>
      <point x="148" y="0" type="line"/>
    </contour>
    <contour>
      <point x="24" y="564" type="curve" smooth="yes"/>
      <point x="78" y="495" type="line"/>
      <point x="118" y="495" type="line"/>
      <point x="90" y="601" type="line"/>
      <point x="82" y="626"/>
      <point x="53" y="641"/>
      <point x="31" y="628" type="curve"/>
      <point x="4" y="614"/>
      <point x="10" y="582"/>
    </contour>
  </outline>
</glyph>
<glyph name="icircumflex" format="1">
  <advance width="242"/>
  <unicode hex="00EE"/>
  <outline>
    <contour>
      <point x="170" y="454" type="line"/>
      <point x="70" y="454" type="line"/>
      <point x="70" y="0" type="line"/>
      <point x="170" y="0" type="line"/>
    </contour>
    <contour>
      <point x="122" y="570" type="line"/>
      <point x="190" y="496" type="line"/>
      <point x="238" y="544" type="line"/>
      <point x="122" y="658" type="line"/>
      <point x="2" y="543" type="line"/>
      <point x="49" y="495" type="line"/>
    </contour>
  </outline>
</glyph>
<glyph name="idieresis" format="1">
  <advance width="258"/>
  <unicode hex="00EF"/>
  <outline>
    <contour>
      <point x="178" y="454" type="line"/>
      <point x="78" y="454" type="line"/>
      <point x="78" y="0" type="line"/>
      <point x="178" y="0" type="line"/>
    </contour>
    <contour>
      <point x="254" y="549" type="curve" smooth="yes"/>
      <point x="254" y="578"/>
      <point x="229" y="603"/>
      <point x="199" y="603" type="curve" smooth="yes"/>
      <point x="169" y="603"/>
      <point x="146" y="578"/>
      <point x="146" y="549" type="curve" smooth="yes"/>
      <point x="146" y="519"/>
      <point x="169" y="494"/>
      <point x="199" y="494" type="curve" smooth="yes"/>
      <point x="229" y="494"/>
      <point x="254" y="519"/>
    </contour>
    <contour>
      <point x="110" y="549" type="curve" smooth="yes"/>
      <point x="110" y="578"/>
      <point x="86" y="603"/>
      <point x="56" y="603" type="curve" smooth="yes"/>
      <point x="26" y="603"/>
      <point x="1" y="578"/>
      <point x="1" y="549" type="curve" smooth="yes"/>
      <point x="1" y="519"/>
      <point x="26" y="494"/>
      <point x="56" y="494" type="curve" smooth="yes"/>
      <point x="86" y="494"/>
      <point x="110" y="519"/>
    </contour>
  </outline>
</glyph>
<glyph name="ntilde" format="1">
  <advance width="371"/>
  <unicode hex="00F1"/>
  <outline>
    <contour>
      <point x="255" y="312" type="curve" smooth="yes"/>
      <point x="255" y="0" type="line"/>
      <point x="354" y="0" type="line"/>
      <point x="354" y="314" type="line" smooth="yes"/>
      <point x="354" y="430"/>
      <point x="279" y="463"/>
      <point x="207" y="463" type="curve" smooth="yes"/>
      <point x="170" y="463"/>
      <point x="133" y="444"/>
      <point x="117" y="433" type="curve"/>
      <point x="117" y="454" type="line"/>
      <point x="18" y="454" type="line"/>
      <point x="18" y="0" type="line"/>
      <point x="117" y="0" type="line"/>
      <point x="117" y="351" type="line"/>
      <point x="147" y="366"/>
      <point x="173" y="373"/>
      <point x="194" y="373" type="curve"/>
      <point x="233" y="371"/>
      <point x="255" y="345"/>
    </contour>
    <contour>
      <point x="305" y="526" type="curve"/>
      <point x="281" y="581" type="line"/>
      <point x="269" y="571"/>
      <point x="253" y="564"/>
      <point x="239" y="564" type="curve" smooth="yes"/>
      <point x="205" y="564"/>
      <point x="177" y="581"/>
      <point x="147" y="581" type="curve" smooth="yes"/>
      <point x="113" y="581"/>
      <point x="89" y="568"/>
      <point x="66" y="550" type="curve"/>
      <point x="92" y="497" type="line"/>
      <point x="100" y="503"/>
      <point x="112" y="514"/>
      <point x="134" y="514" type="curve" smooth="yes"/>
      <point x="168" y="514"/>
      <point x="197" y="499"/>
      <point x="229" y="499" type="curve" smooth="yes"/>
      <point x="259" y="499"/>
      <point x="285" y="511"/>
    </contour>
  </outline>
</glyph>
<glyph name="oacute" format="1">
  <advance width="362"/>
  <unicode hex="00F3"/>
  <outline>
    <contour>
      <point x="348" y="167" type="curve" smooth="yes"/>
      <point x="348" y="287" type="line" smooth="yes"/>
      <point x="348" y="397"/>
      <point x="288" y="464"/>
      <point x="183" y="464" type="curve" smooth="yes"/>
      <point x="73" y="464"/>
      <point x="12" y="403"/>
      <point x="12" y="287" type="curve" smooth="yes"/>
      <point x="12" y="167" type="line" smooth="yes"/>
      <point x="12" y="75"/>
      <point x="63" y="-9"/>
      <point x="183" y="-9" type="curve" smooth="yes"/>
      <point x="296" y="-9"/>
      <point x="348" y="65"/>
    </contour>
    <contour>
      <point x="247" y="293" type="curve" smooth="yes"/>
      <point x="247" y="160" type="line" smooth="yes"/>
      <point x="247" y="119"/>
      <point x="227" y="89"/>
      <point x="182" y="89" type="curve" smooth="yes"/>
      <point x="134" y="89"/>
      <point x="114" y="123"/>
      <point x="114" y="160" type="curve" smooth="yes"/>
      <point x="114" y="293" type="line" smooth="yes"/>
      <point x="114" y="339"/>
      <point x="138" y="364"/>
      <point x="182" y="364" type="curve" smooth="yes"/>
      <point x="225" y="364"/>
      <point x="247" y="336"/>
    </contour>
    <contour>
      <point x="182" y="604" type="curve" smooth="yes"/>
      <point x="155" y="499" type="line"/>
      <point x="195" y="499" type="line"/>
      <point x="248" y="567" type="line"/>
      <point x="266" y="587"/>
      <point x="266" y="618"/>
      <point x="242" y="632" type="curve" smooth="yes"/>
      <point x="218" y="645"/>
      <point x="189" y="628"/>
    </contour>
  </outline>
</glyph>
<glyph name="ocircumflex" format="1">
  <advance width="363"/>
  <unicode hex="00F4"/>
  <outline>
    <contour>
      <point x="349" y="167" type="curve" smooth="yes"/>
      <point x="349" y="287" type="line" smooth="yes"/>
      <point x="349" y="397"/>
      <point x="289" y="464"/>
      <point x="184" y="464" type="curve" smooth="yes"/>
      <point x="74" y="464"/>
      <point x="13" y="403"/>
      <point x="13" y="287" type="curve" smooth="yes"/>
      <point x="13" y="167" type="line" smooth="yes"/>
      <point x="13" y="75"/>
      <point x="64" y="-9"/>
      <point x="184" y="-9" type="curve" smooth="yes"/>
      <point x="297" y="-9"/>
      <point x="349" y="65"/>
    </contour>
    <contour>
      <point x="248" y="293" type="curve" smooth="yes"/>
      <point x="248" y="160" type="line" smooth="yes"/>
      <point x="248" y="119"/>
      <point x="228" y="89"/>
      <point x="183" y="89" type="curve" smooth="yes"/>
      <point x="135" y="89"/>
      <point x="115" y="123"/>
      <point x="115" y="160" type="curve" smooth="yes"/>
      <point x="115" y="293" type="line" smooth="yes"/>
      <point x="115" y="339"/>
      <point x="139" y="364"/>
      <point x="183" y="364" type="curve" smooth="yes"/>
      <point x="226" y="364"/>
      <point x="248" y="336"/>
    </contour>
    <contour>
      <point x="183" y="569" type="line"/>
      <point x="251" y="495" type="line"/>
      <point x="299" y="543" type="line"/>
      <point x="183" y="657" type="line"/>
      <point x="63" y="542" type="line"/>
      <point x="110" y="494" type="line"/>
    </contour>
  </outline>
</glyph>
<glyph name="otilde" format="1">
  <advance width="363"/>
  <unicode hex="00F5"/>
  <outline>
    <contour>
      <point x="349" y="167" type="curve" smooth="yes"/>
      <point x="349" y="287" type="line" smooth="yes"/>
      <point x="349" y="397"/>
      <point x="289" y="464"/>
      <point x="184" y="464" type="curve" smooth="yes"/>
      <point x="74" y="464"/>
      <point x="13" y="403"/>
      <point x="13" y="287" type="curve" smooth="yes"/>
      <point x="13" y="167" type="line" smooth="yes"/>
      <point x="13" y="75"/>
      <point x="64" y="-9"/>
      <point x="184" y="-9" type="curve" smooth="yes"/>
      <point x="297" y="-9"/>
      <point x="349" y="65"/>
    </contour>
    <contour>
      <point x="248" y="293" type="curve" smooth="yes"/>
      <point x="248" y="160" type="line" smooth="yes"/>
      <point x="248" y="119"/>
      <point x="228" y="89"/>
      <point x="183" y="89" type="curve" smooth="yes"/>
      <point x="135" y="89"/>
      <point x="115" y="123"/>
      <point x="115" y="160" type="curve" smooth="yes"/>
      <point x="115" y="293" type="line" smooth="yes"/>
      <point x="115" y="339"/>
      <point x="139" y="364"/>
      <point x="183" y="364" type="curve" smooth="yes"/>
      <point x="226" y="364"/>
      <point x="248" y="336"/>
    </contour>
    <contour>
      <point x="300" y="526" type="curve"/>
      <point x="277" y="581" type="line"/>
      <point x="265" y="571"/>
      <point x="248" y="564"/>
      <point x="235" y="564" type="curve" smooth="yes"/>
      <point x="199" y="564"/>
      <point x="170" y="582"/>
      <point x="139" y="582" type="curve"/>
      <point x="92" y="579"/>
      <point x="74" y="560"/>
      <point x="62" y="551" type="curve"/>
      <point x="88" y="497" type="line"/>
      <point x="96" y="504"/>
      <point x="107" y="514"/>
      <point x="129" y="514" type="curve" smooth="yes"/>
      <point x="164" y="514"/>
      <point x="193" y="499"/>
      <point x="224" y="499" type="curve" smooth="yes"/>
      <point x="255" y="499"/>
      <point x="280" y="512"/>
    </contour>
  </outline>
</glyph>
<glyph name="odieresis" format="1">
  <advance width="363"/>
  <unicode hex="00F6"/>
  <outline>
    <contour>
      <point x="349" y="167" type="curve" smooth="yes"/>
      <point x="349" y="287" type="line" smooth="yes"/>
      <point x="349" y="397"/>
      <point x="289" y="464"/>
      <point x="184" y="464" type="curve" smooth="yes"/>
      <point x="74" y="464"/>
      <point x="13" y="403"/>
      <point x="13" y="287" type="curve" smooth="yes"/>
      <point x="13" y="167" type="line" smooth="yes"/>
      <point x="13" y="75"/>
      <point x="64" y="-9"/>
      <point x="184" y="-9" type="curve" smooth="yes"/>
      <point x="297" y="-9"/>
      <point x="349" y="65"/>
    </contour>
    <contour>
      <point x="248" y="293" type="curve" smooth="yes"/>
      <point x="248" y="160" type="line" smooth="yes"/>
      <point x="248" y="119"/>
      <point x="228" y="89"/>
      <point x="183" y="89" type="curve" smooth="yes"/>
      <point x="135" y="89"/>
      <point x="115" y="123"/>
      <point x="115" y="160" type="curve" smooth="yes"/>
      <point x="115" y="293" type="line" smooth="yes"/>
      <point x="115" y="339"/>
      <point x="139" y="364"/>
      <point x="183" y="364" type="curve" smooth="yes"/>
      <point x="226" y="364"/>
      <point x="248" y="336"/>
    </contour>
    <contour>
      <point x="304" y="552" type="curve" smooth="yes"/>
      <point x="304" y="582"/>
      <point x="279" y="606"/>
      <point x="249" y="606" type="curve" smooth="yes"/>
      <point x="219" y="606"/>
      <point x="195" y="582"/>
      <point x="195" y="552" type="curve" smooth="yes"/>
      <point x="195" y="522"/>
      <point x="219" y="497"/>
      <point x="249" y="497" type="curve" smooth="yes"/>
      <point x="279" y="497"/>
      <point x="304" y="522"/>
    </contour>
    <contour>
      <point x="159" y="552" type="curve" smooth="yes"/>
      <point x="159" y="582"/>
      <point x="136" y="606"/>
      <point x="106" y="606" type="curve" smooth="yes"/>
      <point x="76" y="606"/>
      <point x="51" y="582"/>
      <point x="51" y="552" type="curve" smooth="yes"/>
      <point x="51" y="522"/>
      <point x="76" y="497"/>
      <point x="106" y="497" type="curve" smooth="yes"/>
      <point x="136" y="497"/>
      <point x="159" y="522"/>
    </contour>
  </outline>
</glyph>
<glyph name="divide" format="1">
  <advance width="324"/>
  <unicode hex="00F7"/>
  <outline>
    <contour>
      <point x="307" y="387" type="line"/>
      <point x="16" y="387" type="line"/>
      <point x="16" y="309" type="line"/>
      <point x="307" y="309" type="line"/>
    </contour>
    <contour>
      <point x="163" y="519" type="curve" smooth="yes"/>
      <point x="133" y="519"/>
      <point x="108" y="494"/>
      <point x="108" y="465" type="curve" smooth="yes"/>
      <point x="108" y="435"/>
      <point x="133" y="411"/>
      <point x="163" y="411" type="curve" smooth="yes"/>
      <point x="192" y="411"/>
      <point x="217" y="435"/>
      <point x="217" y="465" type="curve" smooth="yes"/>
      <point x="217" y="494"/>
      <point x="192" y="519"/>
    </contour>
    <contour>
      <point x="163" y="285" type="curve" smooth="yes"/>
      <point x="133" y="285"/>
      <point x="108" y="262"/>
      <point x="108" y="232" type="curve" smooth="yes"/>
      <point x="108" y="202"/>
      <point x="133" y="177"/>
      <point x="163" y="177" type="curve" smooth="yes"/>
      <point x="192" y="177"/>
      <point x="217" y="202"/>
      <point x="217" y="232" type="curve" smooth="yes"/>
      <point x="217" y="262"/>
      <point x="192" y="285"/>
    </contour>
  </outline>
</glyph>
<glyph name="oslash" format="1">
  <advance width="379"/>
  <unicode hex="00F8"/>
  <outline>
    <contour>
      <point x="349" y="167" type="curve" smooth="yes"/>
      <point x="349" y="287" type="line" smooth="yes"/>
      <point x="349" y="337"/>
      <point x="337" y="379"/>
      <point x="313" y="409" type="curve"/>
      <point x="367" y="533" type="line"/>
      <point x="269" y="533" type="line"/>
      <point x="237" y="458" type="line"/>
      <point x="220" y="463"/>
      <point x="203" y="464"/>
      <point x="184" y="464" type="curve" smooth="yes"/>
      <point x="74" y="464"/>
      <point x="13" y="403"/>
      <point x="13" y="287" type="curve" smooth="yes"/>
      <point x="13" y="167" type="line" smooth="yes"/>
      <point x="13" y="119"/>
      <point x="27" y="73"/>
      <point x="58" y="40" type="curve"/>
      <point x="14" y="-61" type="line"/>
      <point x="109" y="-61" type="line"/>
      <point x="134" y="-4" type="line"/>
      <point x="149" y="-7"/>
      <point x="166" y="-9"/>
      <point x="184" y="-9" type="curve" smooth="yes"/>
      <point x="297" y="-9"/>
      <point x="349" y="65"/>
    </contour>
    <contour>
      <point x="115" y="195" type="curve" smooth="yes"/>
      <point x="115" y="293" type="line" smooth="yes"/>
      <point x="115" y="339"/>
      <point x="139" y="364"/>
      <point x="183" y="364" type="curve" smooth="yes"/>
      <point x="188" y="364"/>
      <point x="192" y="364"/>
      <point x="197" y="364" type="curve"/>
      <point x="115" y="173" type="line"/>
      <point x="115" y="180"/>
      <point x="115" y="187"/>
    </contour>
    <contour>
      <point x="248" y="236" type="curve" smooth="yes"/>
      <point x="248" y="160" type="line" smooth="yes"/>
      <point x="248" y="119"/>
      <point x="228" y="89"/>
      <point x="183" y="89" type="curve" smooth="yes"/>
      <point x="180" y="89"/>
      <point x="177" y="89"/>
      <point x="175" y="89" type="curve"/>
      <point x="248" y="257" type="line"/>
      <point x="248" y="251"/>
      <point x="248" y="244"/>
    </contour>
  </outline>
</glyph>
<glyph name="ugrave" format="1">
  <advance width="367"/>
  <unicode hex="00F9"/>
  <outline>
    <contour>
      <point x="250" y="24" type="curve"/>
      <point x="250" y="0" type="line"/>
      <point x="350" y="0" type="line"/>
      <point x="350" y="455" type="line"/>
      <point x="250" y="455" type="line"/>
      <point x="250" y="159" type="line" smooth="yes"/>
      <point x="250" y="117"/>
      <point x="218" y="85"/>
      <point x="177" y="85" type="curve" smooth="yes"/>
      <point x="141" y="85"/>
      <point x="115" y="113"/>
      <point x="115" y="145" type="curve" smooth="yes"/>
      <point x="115" y="455" type="line"/>
      <point x="15" y="455" type="line"/>
      <point x="15" y="143" type="line" smooth="yes"/>
      <point x="15" y="26"/>
      <point x="89" y="-6"/>
      <point x="161" y="-6" type="curve" smooth="yes"/>
      <point x="198" y="-6"/>
      <point x="239" y="11"/>
    </contour>
    <contour>
      <point x="111" y="564" type="curve"/>
      <point x="164" y="494" type="line"/>
      <point x="204" y="494" type="line"/>
      <point x="177" y="600" type="line"/>
      <point x="167" y="624"/>
      <point x="141" y="642"/>
      <point x="117" y="628" type="curve" smooth="yes"/>
      <point x="91" y="614"/>
      <point x="95" y="581"/>
    </contour>
  </outline>
</glyph>
<glyph name="ucircumflex" format="1">
  <advance width="367"/>
  <unicode hex="00FB"/>
  <outline>
    <contour>
      <point x="250" y="24" type="curve"/>
      <point x="250" y="0" type="line"/>
      <point x="350" y="0" type="line"/>
      <point x="350" y="455" type="line"/>
      <point x="250" y="455" type="line"/>
      <point x="250" y="159" type="line" smooth="yes"/>
      <point x="250" y="117"/>
      <point x="218" y="85"/>
      <point x="177" y="85" type="curve" smooth="yes"/>
      <point x="141" y="85"/>
      <point x="115" y="113"/>
      <point x="115" y="145" type="curve" smooth="yes"/>
      <point x="115" y="455" type="line"/>
      <point x="15" y="455" type="line"/>
      <point x="15" y="143" type="line" smooth="yes"/>
      <point x="15" y="26"/>
      <point x="89" y="-6"/>
      <point x="161" y="-6" type="curve" smooth="yes"/>
      <point x="198" y="-6"/>
      <point x="239" y="11"/>
    </contour>
    <contour>
      <point x="185" y="569" type="line"/>
      <point x="253" y="495" type="line"/>
      <point x="301" y="543" type="line"/>
      <point x="185" y="657" type="line"/>
      <point x="65" y="542" type="line"/>
      <point x="112" y="494" type="line"/>
    </contour>
  </outline>
</glyph>
<glyph name="udieresis" format="1">
  <advance width="369"/>
  <unicode hex="00FC"/>
  <outline>
    <contour>
      <point x="251" y="24" type="curve"/>
      <point x="251" y="0" type="line"/>
      <point x="351" y="0" type="line"/>
      <point x="351" y="455" type="line"/>
      <point x="251" y="455" type="line"/>
      <point x="251" y="159" type="line" smooth="yes"/>
      <point x="251" y="117"/>
      <point x="219" y="85"/>
      <point x="178" y="85" type="curve" smooth="yes"/>
      <point x="142" y="85"/>
      <point x="116" y="113"/>
      <point x="116" y="145" type="curve" smooth="yes"/>
      <point x="116" y="455" type="line"/>
      <point x="16" y="455" type="line"/>
      <point x="16" y="143" type="line" smooth="yes"/>
      <point x="16" y="26"/>
      <point x="90" y="-6"/>
      <point x="162" y="-6" type="curve" smooth="yes"/>
      <point x="199" y="-6"/>
      <point x="240" y="11"/>
    </contour>
    <contour>
      <point x="256" y="603" type="curve" smooth="yes"/>
      <point x="226" y="603"/>
      <point x="202" y="578"/>
      <point x="202" y="548" type="curve" smooth="yes"/>
      <point x="202" y="518"/>
      <point x="226" y="494"/>
      <point x="256" y="494" type="curve" smooth="yes"/>
      <point x="286" y="494"/>
      <point x="311" y="518"/>
      <point x="311" y="548" type="curve" smooth="yes"/>
      <point x="311" y="578"/>
      <point x="286" y="603"/>
    </contour>
    <contour>
      <point x="112" y="603" type="curve" smooth="yes"/>
      <point x="82" y="603"/>
      <point x="58" y="578"/>
      <point x="58" y="548" type="curve" smooth="yes"/>
      <point x="58" y="518"/>
      <point x="82" y="494"/>
      <point x="112" y="494" type="curve" smooth="yes"/>
      <point x="142" y="494"/>
      <point x="167" y="518"/>
      <point x="167" y="548" type="curve" smooth="yes"/>
      <point x="167" y="578"/>
      <point x="142" y="603"/>
    </contour>
  </outline>
</glyph>
<glyph name="thorn" format="1">
  <advance width="375"/>
  <unicode hex="00FE"/>
  <outline>
    <contour>
      <point x="120" y="446" type="curve"/>
      <point x="120" y="636" type="line"/>
      <point x="20" y="636" type="line"/>
      <point x="20" y="0" type="line"/>
      <point x="120" y="0" type="line"/>
      <point x="120" y="126" type="line"/>
      <point x="138" y="113"/>
      <point x="165" y="105"/>
      <point x="195" y="105" type="curve" smooth="yes"/>
      <point x="296" y="105"/>
      <point x="364" y="173"/>
      <point x="364" y="286" type="curve" smooth="yes"/>
      <point x="364" y="391"/>
      <point x="304" y="462"/>
      <point x="191" y="462" type="curve" smooth="yes"/>
      <point x="167" y="462"/>
      <point x="141" y="456"/>
    </contour>
    <contour>
      <point x="195" y="367" type="curve" smooth="yes"/>
      <point x="243" y="367"/>
      <point x="265" y="327"/>
      <point x="265" y="287" type="curve" smooth="yes"/>
      <point x="265" y="225"/>
      <point x="231" y="200"/>
      <point x="195" y="200" type="curve" smooth="yes"/>
      <point x="154" y="200"/>
      <point x="119" y="226"/>
      <point x="119" y="289" type="curve" smooth="yes"/>
      <point x="119" y="335"/>
      <point x="157" y="367"/>
    </contour>
  </outline>
</glyph>
<glyph name="ydieresis" format="1">
  <advance width="405"/>
  <unicode hex="00FF"/>
  <outline>
    <contour>
      <point x="394" y="394" type="curve"/>
      <point x="363" y="464" type="line"/>
      <point x="281" y="464"/>
      <point x="251" y="407"/>
      <point x="251" y="356" type="curve" smooth="yes"/>
      <point x="251" y="160" type="line" smooth="yes"/>
      <point x="251" y="117"/>
      <point x="215" y="85"/>
      <point x="176" y="85" type="curve" smooth="yes"/>
      <point x="137" y="86"/>
      <point x="115" y="113"/>
      <point x="115" y="146" type="curve" smooth="yes"/>
      <point x="115" y="455" type="line"/>
      <point x="15" y="455" type="line"/>
      <point x="15" y="144" type="line" smooth="yes"/>
      <point x="15" y="27"/>
      <point x="89" y="-5"/>
      <point x="161" y="-5" type="curve" smooth="yes"/>
      <point x="198" y="-5"/>
      <point x="240" y="12"/>
      <point x="251" y="25" type="curve"/>
      <point x="251" y="-44" type="line" smooth="yes"/>
      <point x="251" y="-65"/>
      <point x="245" y="-81"/>
      <point x="233" y="-92" type="curve" smooth="yes"/>
      <point x="220" y="-104"/>
      <point x="203" y="-113"/>
      <point x="187" y="-113" type="curve"/>
      <point x="214" y="-194" type="line"/>
      <point x="244" y="-194"/>
      <point x="283" y="-181"/>
      <point x="308" y="-163" type="curve" smooth="yes"/>
      <point x="337" y="-143"/>
      <point x="351" y="-105"/>
      <point x="351" y="-54" type="curve" smooth="yes"/>
      <point x="351" y="329" type="line" smooth="yes"/>
      <point x="351" y="359"/>
      <point x="359" y="386"/>
    </contour>
    <contour>
      <point x="267" y="603" type="curve" smooth="yes"/>
      <point x="237" y="603"/>
      <point x="212" y="578"/>
      <point x="212" y="548" type="curve" smooth="yes"/>
      <point x="212" y="518"/>
      <point x="237" y="494"/>
      <point x="267" y="494" type="curve" smooth="yes"/>
      <point x="297" y="494"/>
      <point x="321" y="518"/>
      <point x="321" y="548" type="curve" smooth="yes"/>
      <point x="321" y="578"/>
      <point x="297" y="603"/>
    </contour>
    <contour>
      <point x="123" y="603" type="curve" smooth="yes"/>
      <point x="93" y="603"/>
      <point x="69" y="578"/>
      <point x="69" y="548" type="curve" smooth="yes"/>
      <point x="69" y="518"/>
      <point x="93" y="494"/>
      <point x="123" y="494" type="curve" smooth="yes"/>
      <point x="153" y="494"/>
      <point x="177" y="518"/>
      <point x="177" y="548" type="curve" smooth="yes"/>
      <point x="177" y="578"/>
      <point x="153" y="603"/>
    </contour>
  </outline>
</glyph>
<glyph name="Abreve" format="1">
  <advance width="466"/>
  <unicode hex="0102"/>
  <outline>
    <contour>
      <point x="162" y="635" type="line"/>
      <point x="8" y="0" type="line"/>
      <point x="121" y="0" type="line"/>
      <point x="157" y="166" type="line"/>
      <point x="304" y="166" type="line"/>
      <point x="340" y="0" type="line"/>
      <point x="459" y="0" type="line"/>
      <point x="303" y="635" type="line"/>
    </contour>
    <contour>
      <point x="281" y="273" type="line"/>
      <point x="182" y="273" type="line"/>
      <point x="231" y="468" type="line"/>
    </contour>
    <contour>
      <point x="200" y="778" type="curve" smooth="yes"/>
      <point x="200" y="783" type="line"/>
      <point x="127" y="783" type="line"/>
      <point x="127" y="778" type="line" smooth="yes"/>
      <point x="127" y="721"/>
      <point x="174" y="674"/>
      <point x="230" y="674" type="curve" smooth="yes"/>
      <point x="287" y="674"/>
      <point x="334" y="721"/>
      <point x="334" y="778" type="curve" smooth="yes"/>
      <point x="334" y="783" type="line"/>
      <point x="261" y="783" type="line"/>
      <point x="261" y="778" type="line" smooth="yes"/>
      <point x="261" y="761"/>
      <point x="247" y="747"/>
      <point x="231" y="747" type="curve" smooth="yes"/>
      <point x="214" y="747"/>
      <point x="200" y="761"/>
    </contour>
  </outline>
</glyph>
<glyph name="Aogonek" format="1">
  <advance width="500"/>
  <unicode hex="0104"/>
  <outline>
    <contour>
      <point x="162" y="635" type="line"/>
      <point x="8" y="0" type="line"/>
      <point x="121" y="0" type="line"/>
      <point x="157" y="166" type="line"/>
      <point x="303" y="166" type="line"/>
      <point x="340" y="0" type="line"/>
      <point x="459" y="0" type="line"/>
      <point x="303" y="635" type="line"/>
    </contour>
    <contour>
      <point x="281" y="273" type="line"/>
      <point x="182" y="273" type="line"/>
      <point x="231" y="468" type="line"/>
    </contour>
    <contour>
      <point x="377" y="-115" type="curve"/>
      <point x="451" y="-2" type="line"/>
      <point x="451" y="10" type="line"/>
      <point x="370" y="2" type="line"/>
      <point x="370" y="-2" type="line"/>
      <point x="320" y="-83" type="line" smooth="yes"/>
      <point x="273" y="-166"/>
      <point x="341" y="-230"/>
      <point x="421" y="-208" type="curve" smooth="yes"/>
      <point x="440" y="-203"/>
      <point x="514" y="-177"/>
      <point x="515" y="-176" type="curve"/>
      <point x="493" y="-112" type="line"/>
      <point x="493" y="-112"/>
      <point x="424" y="-135"/>
      <point x="399" y="-144" type="curve" smooth="yes"/>
      <point x="375" y="-153"/>
      <point x="367" y="-134"/>
    </contour>
  </outline>
</glyph>
<glyph name="aogonek" format="1">
  <advance width="411"/>
  <unicode hex="0105"/>
  <outline>
    <contour>
      <point x="261" y="304" type="curve"/>
      <point x="233" y="344"/>
      <point x="176" y="364"/>
      <point x="134" y="364" type="curve" smooth="yes"/>
      <point x="67" y="364"/>
      <point x="11" y="322"/>
      <point x="11" y="229" type="curve"/>
      <point x="11" y="229"/>
      <point x="11" y="141"/>
      <point x="11" y="141" type="curve"/>
      <point x="16" y="25"/>
      <point x="95" y="-10"/>
      <point x="198" y="-10" type="curve" smooth="yes"/>
      <point x="259" y="-10"/>
      <point x="311" y="-7"/>
      <point x="361" y="0" type="curve"/>
      <point x="361" y="0"/>
      <point x="361" y="176"/>
      <point x="361" y="278" type="curve" smooth="yes"/>
      <point x="361" y="362"/>
      <point x="340" y="402"/>
      <point x="319" y="422" type="curve" smooth="yes"/>
      <point x="279" y="458"/>
      <point x="220" y="462"/>
      <point x="172" y="462" type="curve"/>
      <point x="164" y="394" type="line"/>
      <point x="202" y="394"/>
      <point x="229" y="384"/>
      <point x="245" y="369" type="curve" smooth="yes"/>
      <point x="256" y="359"/>
      <point x="261" y="343"/>
    </contour>
    <contour>
      <point x="261" y="229" type="curve"/>
      <point x="261" y="229"/>
      <point x="261" y="85"/>
      <point x="261" y="85" type="curve"/>
      <point x="261" y="85"/>
      <point x="221" y="82"/>
      <point x="206" y="82" type="curve" smooth="yes"/>
      <point x="124" y="82"/>
      <point x="112" y="112"/>
      <point x="112" y="157" type="curve" smooth="yes"/>
      <point x="112" y="173"/>
      <point x="112" y="198"/>
      <point x="112" y="216" type="curve" smooth="yes"/>
      <point x="112" y="250"/>
      <point x="134" y="261"/>
      <point x="162" y="261" type="curve" smooth="yes"/>
      <point x="205" y="261"/>
      <point x="250" y="236"/>
    </contour>
    <contour>
      <point x="325" y="-216" type="curve" smooth="yes"/>
      <point x="345" y="-211"/>
      <point x="419" y="-185"/>
      <point x="420" y="-185" type="curve"/>
      <point x="398" y="-120" type="line"/>
      <point x="398" y="-120"/>
      <point x="330" y="-144"/>
      <point x="304" y="-153" type="curve"/>
      <point x="282" y="-162"/>
      <point x="272" y="-142"/>
      <point x="282" y="-125" type="curve" smooth="yes"/>
      <point x="356" y="-10" type="line"/>
      <point x="356" y="-6"/>
      <point x="356" y="-2"/>
      <point x="356" y="2" type="curve"/>
      <point x="342" y="1"/>
      <point x="275" y="-6"/>
      <point x="274" y="-6" type="curve"/>
      <point x="274" y="-10" type="line"/>
      <point x="274" y="-10"/>
      <point x="253" y="-45"/>
      <point x="225" y="-92" type="curve" smooth="yes"/>
      <point x="180" y="-172"/>
      <point x="241" y="-241"/>
    </contour>
  </outline>
</glyph>
<glyph name="Cacute" format="1">
  <advance width="356"/>
  <unicode hex="0106"/>
  <outline>
    <contour>
      <point x="295" y="529" type="curve"/>
      <point x="322" y="614" type="line"/>
      <point x="279" y="635"/>
      <point x="235" y="645"/>
      <point x="191" y="645" type="curve" smooth="yes"/>
      <point x="146" y="645"/>
      <point x="104" y="634"/>
      <point x="72" y="604" type="curve" smooth="yes"/>
      <point x="39" y="575"/>
      <point x="16" y="528"/>
      <point x="16" y="457" type="curve" smooth="yes"/>
      <point x="16" y="166" type="line" smooth="yes"/>
      <point x="16" y="103"/>
      <point x="37" y="58"/>
      <point x="70" y="29" type="curve" smooth="yes"/>
      <point x="102" y="2"/>
      <point x="146" y="-11"/>
      <point x="195" y="-11" type="curve" smooth="yes"/>
      <point x="242" y="-10"/>
      <point x="292" y="1"/>
      <point x="344" y="21" type="curve"/>
      <point x="329" y="115" type="line"/>
      <point x="318" y="115"/>
      <point x="256" y="91"/>
      <point x="201" y="91" type="curve" smooth="yes"/>
      <point x="175" y="91"/>
      <point x="153" y="95"/>
      <point x="138" y="109" type="curve" smooth="yes"/>
      <point x="124" y="121"/>
      <point x="116" y="140"/>
      <point x="116" y="168" type="curve" smooth="yes"/>
      <point x="116" y="465" type="line" smooth="yes"/>
      <point x="116" y="493"/>
      <point x="123" y="512"/>
      <point x="139" y="525" type="curve" smooth="yes"/>
      <point x="154" y="538"/>
      <point x="177" y="545"/>
      <point x="209" y="545" type="curve" smooth="yes"/>
      <point x="236" y="545"/>
      <point x="270" y="538"/>
    </contour>
    <contour>
      <point x="200" y="781" type="curve" smooth="yes"/>
      <point x="172" y="675" type="line"/>
      <point x="212" y="675" type="line"/>
      <point x="266" y="743" type="line" smooth="yes"/>
      <point x="282" y="764"/>
      <point x="283" y="795"/>
      <point x="259" y="808" type="curve" smooth="yes"/>
      <point x="235" y="822"/>
      <point x="207" y="805"/>
    </contour>
  </outline>
</glyph>
